<svg xmlns="http://www.w3.org/2000/svg" xmlns:xlink="http://www.w3.org/1999/xlink" version="1.1" x="0px" y="0px" viewBox="0 0 512 512" style="enable-background:new 0 0 512 512;" xml:space="preserve"><g><path d="M367.454,246.949l-204.799-204.8c-2.418-2.417-5.633-3.749-9.051-3.749s-6.634,1.332-9.051,3.75   c-2.417,2.418-3.749,5.632-3.749,9.051c0,3.419,1.332,6.633,3.749,9.051L340.301,256L144.552,451.75   c-2.417,2.417-3.749,5.632-3.749,9.05c0,3.419,1.332,6.633,3.75,9.052c2.417,2.417,5.632,3.748,9.051,3.748   s6.633-1.331,9.051-3.749l204.799-204.8C372.445,260.061,372.445,251.94,367.454,246.949z"></path></g></svg>