<?xml version="1.0" encoding="UTF-8"?>
<svg width="1200pt" height="1200pt" version="1.1" viewBox="0 0 1200 1200" xmlns="http://www.w3.org/2000/svg">
 <path d="m751.37 597.4c-0.55078-6.375-3.1172-12.41-7.3203-17.238l-241.83-279.61c-5.168-6.3633-12.699-10.352-20.863-11.055-8.1641-0.70703-16.266 1.9336-22.449 7.3164-6.1797 5.3789-9.9141 13.039-10.34 21.227-0.42969 8.1836 2.4844 16.191 8.0742 22.188l224.59 259.78-224.59 259.78v-0.003906c-5.5898 5.9961-8.5039 14.004-8.0742 22.191 0.42578 8.1836 4.1602 15.844 10.34 21.223 6.1836 5.3828 14.285 8.0234 22.449 7.3203 8.1641-0.70703 15.695-4.6953 20.863-11.059l241.83-279.61c5.3789-6.1797 8.0234-14.273 7.3203-22.438z" fill="#fff"/>
</svg>
