<svg xmlns="http://www.w3.org/2000/svg" data-name="Layer 1" viewBox="0 0 1000 1000" x="0px" y="0px"><title>1774-Pants</title><path d="M669.78,916H563.23a16,16,0,0,1-15.92-14.4c-9-89.5-30.52-290.11-47.31-403.22C483.21,611.49,461.67,812.1,452.69,901.6A16,16,0,0,1,436.77,916H330.22a16,16,0,0,1-9.82-3.37c-7.68-6-12.24-17.56-15.89-64.36-2.14-27.46-3.73-65.49-4.74-113-1.86-87.3-1.33-188.54-.85-241.12.25-27.29-.67-55-2.76-82.3C284,252.75,317.31,172.64,318.73,169.3a16,16,0,0,1,29.43,12.56c-.3.71-31.54,77.19-20.09,227.53,2.15,28.23,3.11,56.84,2.85,85-.45,49.67-1,145.67.65,230.45,2.05,107.64,6.55,145.71,9.35,159.12H422.3c8.56-84,44.36-427.25,62.78-474.73a16,16,0,0,1,29.84,0C533.34,456.75,569.14,800,577.7,884h81.38c2.8-13.41,7.3-51.48,9.35-159.12,1.62-84.78,1.1-180.78.65-230.45-.26-28.2.7-56.81,2.85-85,11.45-150.34-19.79-226.82-20.11-227.57a16,16,0,0,1,29.45-12.52c1.42,3.34,34.69,83.45,22.57,242.53-2.09,27.32-3,55-2.76,82.3.48,52.58,1,153.82-.85,241.12-1,47.53-2.6,85.56-4.74,113-3.65,46.8-8.21,58.39-15.89,64.36A16,16,0,0,1,669.78,916Zm-12.55-25.57Zm-314.46,0Z"></path><path d="M688,370.15a16,16,0,0,1-8.07-2.19,221.44,221.44,0,0,1-97.3-118.22,16,16,0,1,1,30.22-10.51A189.4,189.4,0,0,0,696.1,340.34,16,16,0,0,1,688,370.15Z"></path><path d="M312,370.15a16,16,0,0,1-8.09-29.81,189.4,189.4,0,0,0,83.24-101.11,16,16,0,1,1,30.22,10.51A221.44,221.44,0,0,1,320.06,368,16,16,0,0,1,312,370.15Z"></path><path d="M683.32,260.07H316.68a16,16,0,0,1,0-32H683.32a16,16,0,0,1,0,32Z"></path><path d="M666.56,191.58H333.44a16,16,0,0,1-16-16V100a16,16,0,0,1,16-16H666.56a16,16,0,0,1,16,16v75.58A16,16,0,0,1,666.56,191.58Zm-317.12-32H650.56V116H349.44Z"></path></svg>