<?xml version="1.0" encoding="UTF-8"?>
<svg width="100pt" height="100pt" version="1.1" viewBox="0 0 100 100" xmlns="http://www.w3.org/2000/svg">
 <g>
  <path d="m19.883 95.191c-0.27344 0-0.54687-0.11719-0.73437-0.34375-0.34375-0.40625-0.28906-1.0117 0.11719-1.3555 1.4727-1.2383 2.3203-3.0508 2.3203-4.9766s-0.84375-3.7344-2.3203-4.9727l-4.1562-3.4883c-1.9102-1.6016-3.0078-3.9531-3.0078-6.4453s1.0938-4.8438 3.0078-6.4453l4.1562-3.4883c1.4727-1.2383 2.3203-3.0508 2.3203-4.9727 0-1.9258-0.84375-3.7383-2.3203-4.9766l-4.1562-3.4883c-1.9102-1.6016-3.0078-3.9531-3.0078-6.4453 0-2.4922 1.0938-4.8438 3.0078-6.4453l4.1562-3.4883c1.4727-1.2383 2.3203-3.0508 2.3203-4.9766 0-1.9258-0.84375-3.7344-2.3203-4.9727-0.40625-0.33984-0.46094-0.94922-0.11719-1.3555s0.94922-0.45703 1.3555-0.11719c1.9102 1.6016 3.0078 3.9531 3.0078 6.4453 0 2.4961-1.0938 4.8438-3.0078 6.4453l-4.1562 3.4844c-1.4727 1.2383-2.3203 3.0508-2.3203 4.9766 0 1.9219 0.84375 3.7344 2.3203 4.9727l4.1562 3.4883c1.9102 1.6016 3.0078 3.9531 3.0078 6.4453 0 2.4922-1.0938 4.8438-3.0078 6.4453l-4.1562 3.4922c-1.4727 1.2383-2.3203 3.0508-2.3203 4.9766 0 1.9219 0.84375 3.7383 2.3203 4.9727l4.1562 3.4883c1.9102 1.6016 3.0078 3.9531 3.0078 6.4453 0 2.4961-1.0938 4.8438-3.0078 6.4453-0.18359 0.15625-0.40234 0.23047-0.62109 0.23047z"/>
  <path d="m52.078 77.797c-0.27344 0-0.54688-0.11719-0.73438-0.34375-0.34375-0.40625-0.28906-1.0117 0.11719-1.3555 1.4727-1.2383 2.3203-3.0508 2.3203-4.9727 0-1.9258-0.84375-3.7383-2.3203-4.9766l-4.1562-3.4883c-1.9102-1.6016-3.0039-3.9531-3.0039-6.4453 0-2.4922 1.0938-4.8438 3.0039-6.4453l4.1562-3.4883c1.4727-1.2383 2.3203-3.0508 2.3203-4.9727 0-1.9258-0.84375-3.7383-2.3203-4.9766l-4.1562-3.4883c-1.9102-1.6016-3.0039-3.9531-3.0039-6.4453 0-2.4922 1.0938-4.8438 3.0039-6.4453l4.1562-3.4883c1.4727-1.2383 2.3203-3.0508 2.3203-4.9727 0-1.9258-0.84375-3.7383-2.3203-4.9766-0.40625-0.33984-0.46094-0.94922-0.11719-1.3555s0.94922-0.45703 1.3555-0.11719c1.9102 1.6055 3.0078 3.9531 3.0078 6.4492 0 2.4922-1.0938 4.8438-3.0078 6.4453l-4.1562 3.4883c-1.4727 1.2383-2.3164 3.0508-2.3164 4.9766 0 1.9258 0.84375 3.7383 2.3164 4.9766l4.1562 3.4883c1.9102 1.6055 3.0078 3.9531 3.0078 6.4492 0 2.4922-1.0938 4.8438-3.0078 6.4453l-4.1562 3.4883c-1.4727 1.2383-2.3164 3.0508-2.3164 4.9766 0 1.9258 0.84375 3.7383 2.3164 4.9766l4.1562 3.4883c1.9102 1.6016 3.0078 3.9531 3.0078 6.4453 0 2.4922-1.0938 4.8438-3.0078 6.4453-0.18359 0.14062-0.40234 0.21484-0.62109 0.21484z"/>
  <path d="m84.273 95.191c-0.27344 0-0.54688-0.11719-0.73438-0.34375-0.34375-0.40625-0.28906-1.0117 0.11719-1.3555 1.4727-1.2383 2.3164-3.0508 2.3164-4.9766s-0.84375-3.7344-2.3164-4.9727l-4.1562-3.4883c-1.9102-1.6016-3.0039-3.9531-3.0039-6.4453s1.0938-4.8438 3.0039-6.4453l4.1562-3.4883c1.4727-1.2383 2.3164-3.0508 2.3164-4.9727 0-1.9258-0.84375-3.7383-2.3164-4.9766l-4.1562-3.4883c-1.9102-1.6016-3.0039-3.9531-3.0039-6.4453 0-2.4922 1.0938-4.8438 3.0039-6.4453l4.1562-3.4883c1.4727-1.2383 2.3164-3.0508 2.3164-4.9766 0-1.9258-0.84375-3.7344-2.3164-4.9727-0.40625-0.33984-0.46094-0.94922-0.11719-1.3555s0.94922-0.45703 1.3555-0.11719c1.9102 1.6016 3.0039 3.9531 3.0039 6.4453 0 2.4922-1.0938 4.8438-3.0039 6.4453l-4.1562 3.4883c-1.4727 1.2383-2.3164 3.0508-2.3164 4.9766s0.84375 3.7383 2.3164 4.9766l4.1562 3.4883c1.9102 1.6016 3.0039 3.9531 3.0039 6.4453s-1.0938 4.8438-3.0039 6.4453l-4.1562 3.4883c-1.4727 1.2383-2.3164 3.0508-2.3164 4.9766s0.84375 3.7383 2.3164 4.9766l4.1562 3.4883c1.9102 1.6016 3.0039 3.9531 3.0039 6.4453 0 2.4922-1.0938 4.8438-3.0039 6.4453-0.18359 0.14844-0.40234 0.22266-0.62109 0.22266z"/>
  <path d="m34.633 42.555h1.9219v3.8477h-1.9219z"/>
  <path d="m65.137 70.758h1.9219v3.8477h-1.9219z"/>
  <path d="m62.191 29.984h1.9219v3.8477h-1.9219z"/>
  <path d="m37.281 82.656h1.9219v3.8477h-1.9219z"/>
  <path d="m63.789 59.66c-0.24609 0-0.49219-0.09375-0.67969-0.28125-0.375-0.375-0.375-0.98438 0-1.3594l6.1367-6.1328c0.375-0.375 0.98438-0.375 1.3594 0s0.375 0.98438 0 1.3594l-6.1367 6.1328c-0.1875 0.1875-0.43359 0.28125-0.67969 0.28125z"/>
  <path d="m30.836 69.184c-0.24609 0-0.49219-0.09375-0.67969-0.28125-0.375-0.375-0.375-0.98438 0-1.3594l6.1328-6.1328c0.375-0.375 0.98438-0.375 1.3594 0s0.375 0.98438 0 1.3594l-6.1328 6.1328c-0.1875 0.1875-0.43359 0.28125-0.67969 0.28125z"/>
  <path d="m54.742 91.676c-0.24609 0-0.49219-0.09375-0.67969-0.28125-0.375-0.375-0.375-0.98438 0-1.3594l6.1328-6.1328c0.375-0.375 0.98438-0.375 1.3594 0s0.375 0.98438 0 1.3594l-6.1328 6.1328c-0.1875 0.1875-0.43359 0.28125-0.67969 0.28125z"/>
 </g>
</svg>
