<?xml version="1.0" encoding="UTF-8"?>
<svg width="100pt" height="100pt" version="1.1" viewBox="0 0 100 100" xmlns="http://www.w3.org/2000/svg">
 <g>
  <path d="m83.691 96.387h-72.996c-4.1758 0-7.5703-3.3945-7.5703-7.5664 0-2.2266 0.96484-4.2305 2.5-5.6172-1.5352-1.3867-2.5-3.3906-2.5-5.6172 0-4.1719 3.3945-7.5703 7.5703-7.5703l72.996 0.003906c7.2695 0 13.184 5.9141 13.184 13.184s-5.9141 13.184-13.184 13.184zm-71.043-13.184c0 1.0781-0.875 1.9531-1.9531 1.9531-2.0195 0-3.6641 1.6445-3.6641 3.6641 0 2.0195 1.6445 3.6641 3.6641 3.6641l72.996-0.003906c5.1172 0 9.2773-4.1602 9.2773-9.2773s-4.1602-9.2773-9.2773-9.2773h-72.996c-2.0195 0-3.6641 1.6445-3.6641 3.6641 0 2.0156 1.6445 3.6602 3.6641 3.6602 1.0781 0 1.9531 0.875 1.9531 1.9531z"/>
  <path d="m83.691 85.156h-72.996c-1.0781 0-1.9531-0.875-1.9531-1.9531s0.875-1.9531 1.9531-1.9531h71.043v-0.29297c0-1.0781 0.875-1.9531 1.9531-1.9531s1.9531 0.875 1.9531 1.9531v2.2461c0 1.0781-0.875 1.9531-1.9531 1.9531z"/>
  <path d="m89.305 73.926h-72.996c-7.2695 0-13.184-5.9141-13.184-13.184 0-7.2695 5.9141-13.184 13.184-13.184h73c4.1719 0 7.5703 3.3945 7.5703 7.5703 0 2.2266-0.96484 4.2305-2.5 5.6172 1.5352 1.3867 2.5 3.3906 2.5 5.6172-0.003906 4.168-3.3984 7.5625-7.5742 7.5625zm-72.996-22.461c-5.1172 0-9.2773 4.1602-9.2773 9.2773 0 5.1172 4.1602 9.2773 9.2773 9.2773h73c2.0195 0 3.6641-1.6445 3.6641-3.6641-0.003906-2.0156-1.6484-3.6602-3.668-3.6602-1.0781 0-1.9531-0.875-1.9531-1.9531 0-1.0781 0.875-1.9531 1.9531-1.9531 2.0195 0 3.6641-1.6445 3.6641-3.6641s-1.6445-3.6641-3.6641-3.6641z"/>
  <path d="m16.309 64.941c-1.0781 0-1.9531-0.875-1.9531-1.9531v-2.2461c0-1.0781 0.875-1.9531 1.9531-1.9531h73c1.0781 0 1.9531 0.875 1.9531 1.9531 0 1.0781-0.875 1.9531-1.9531 1.9531h-71.047v0.29297c0 1.0781-0.875 1.9531-1.9531 1.9531z"/>
  <path d="m83.691 51.465h-72.996c-4.1758 0-7.5703-3.3945-7.5703-7.5664 0-2.2266 0.96484-4.2305 2.5-5.6172-1.5352-1.3867-2.5-3.3906-2.5-5.6172 0-4.1719 3.3945-7.5703 7.5703-7.5703l72.996 0.003906c7.2695 0 13.184 5.9141 13.184 13.184s-5.9141 13.184-13.184 13.184zm-71.043-13.184c0 1.0781-0.875 1.9531-1.9531 1.9531-2.0195 0-3.6641 1.6445-3.6641 3.6641 0 2.0195 1.6445 3.6641 3.6641 3.6641l72.996-0.003906c5.1172 0 9.2773-4.1602 9.2773-9.2773s-4.1602-9.2773-9.2773-9.2773h-72.996c-2.0195 0-3.6641 1.6445-3.6641 3.6641 0 2.0156 1.6445 3.6602 3.6641 3.6602 1.0781 0 1.9531 0.875 1.9531 1.9531z"/>
  <path d="m83.691 40.234h-72.996c-1.0781 0-1.9531-0.875-1.9531-1.9531s0.875-1.9531 1.9531-1.9531h71.043v-0.29297c0-1.0781 0.875-1.9531 1.9531-1.9531s1.9531 0.875 1.9531 1.9531v2.2461c0 1.0781-0.875 1.9531-1.9531 1.9531z"/>
  <path d="m18.75 11.426h3.9062v3.9062h-3.9062z"/>
  <path d="m22.656 7.5195h3.9062v3.9062h-3.9062z"/>
  <path d="m14.844 7.5195h3.9062v3.9062h-3.9062z"/>
  <path d="m18.75 3.6133h3.9062v3.9062h-3.9062z"/>
  <path d="m77.344 17.285h3.9062v3.9062h-3.9062z"/>
  <path d="m81.25 13.379h3.9062v3.9062h-3.9062z"/>
  <path d="m73.438 13.379h3.9062v3.9062h-3.9062z"/>
  <path d="m77.344 9.4727h3.9062v3.9062h-3.9062z"/>
 </g>
</svg>
