<svg xmlns:sodipodi="http://sodipodi.sourceforge.net/DTD/sodipodi-0.dtd" xmlns:inkscape="http://www.inkscape.org/namespaces/inkscape" xmlns:rdf="http://www.w3.org/1999/02/22-rdf-syntax-ns#" xmlns:dc="http://purl.org/dc/elements/1.1/" xmlns:cc="http://creativecommons.org/ns#" xmlns:svg="http://www.w3.org/2000/svg" xmlns="http://www.w3.org/2000/svg" xmlns:xlink="http://www.w3.org/1999/xlink" version="1.1" x="0px" y="0px" viewBox="0 0 800 800" enable-background="new 0 0 800 800" xml:space="preserve"><g><path d="M756.572,50.877H43.428c-8.284,0-15,6.716-15,15v653.652c0,8.284,6.716,15,15,15h60.093   c0.217,8.095,6.832,14.594,14.979,14.594h60.667c8.146,0,14.762-6.499,14.979-14.594h36.772h89.174h187.491h61.497h61.938   c0.218,8.095,6.833,14.594,14.979,14.594h60.667c8.147,0,14.763-6.499,14.979-14.594h34.927c8.284,0,15-6.716,15-15V65.877   C771.572,57.593,764.856,50.877,756.572,50.877z M554.081,670.455v34.074h-31.497v-34.074c0-8.284-6.716-15-15-15H320.093   c-8.284,0-15,6.716-15,15v34.074h-59.174v-34.074c0-8.284-6.716-15-15-15H58.428v-25.5h683.145v25.5H569.081   C560.797,655.455,554.081,662.171,554.081,670.455z M741.572,80.877v519.078H58.428V80.877H741.572z M58.428,704.529v-19.074   h157.491v19.074H58.428z M335.093,704.529v-19.074h157.491v19.074H335.093z M741.572,704.529H584.081v-19.074h157.491V704.529z"></path><path d="M687.575,176.974H569.081c-8.284,0-15,6.716-15,15v367.481c0,8.284,6.716,15,15,15h118.494c8.285,0,15-6.716,15-15V191.974   C702.575,183.689,695.86,176.974,687.575,176.974z M672.575,544.455h-88.494V206.974h88.494V544.455z"></path><path d="M112.425,574.455h118.494c8.284,0,15-6.716,15-15V191.974c0-8.284-6.716-15-15-15H112.425c-8.284,0-15,6.716-15,15v367.481   C97.425,567.739,104.141,574.455,112.425,574.455z M127.425,206.974h88.494v337.481h-88.494V206.974z"></path><path d="M507.584,176.974h-215.17c-8.284,0-15,6.716-15,15v367.481c0,8.284,6.716,15,15,15h215.17c8.284,0,15-6.716,15-15V191.974   C522.584,183.689,515.868,176.974,507.584,176.974z M307.414,206.974h77.585v337.481h-77.585V206.974z M492.584,544.455h-77.585   V206.974h77.585V544.455z"></path><path d="M442.888,386.323c2.801,2.79,6.66,4.39,10.61,4.39s7.81-1.6,10.61-4.39c2.79-2.79,4.39-6.66,4.39-10.61   c0-3.939-1.6-7.81-4.39-10.609c-2.801-2.79-6.66-4.391-10.61-4.391s-7.81,1.601-10.61,4.391c-2.79,2.8-4.39,6.659-4.39,10.609   S440.098,383.533,442.888,386.323z"></path><path d="M355.108,365.104c-2.79-2.79-6.66-4.391-10.61-4.391s-7.82,1.601-10.61,4.391s-4.39,6.659-4.39,10.609s1.6,7.82,4.39,10.61   s6.66,4.39,10.61,4.39s7.82-1.6,10.61-4.39c2.79-2.8,4.39-6.66,4.39-10.61C359.498,371.773,357.898,367.903,355.108,365.104z"></path><path d="M604.833,375.94c3.839,0,7.678-1.465,10.606-4.394l46.332-46.332c5.858-5.857,5.858-15.355,0-21.213   c-5.857-5.857-15.355-5.857-21.213,0l-46.332,46.332c-5.858,5.857-5.858,15.355,0,21.213   C597.155,374.476,600.994,375.94,604.833,375.94z"></path><path d="M604.833,451.822c3.839,0,7.678-1.465,10.606-4.394l46.332-46.333c5.858-5.857,5.858-15.355,0-21.213   c-5.857-5.857-15.355-5.857-21.213,0l-46.332,46.333c-5.858,5.857-5.858,15.355,0,21.213   C597.155,450.357,600.994,451.822,604.833,451.822z"></path><path d="M184.559,366.281l-46.332,46.333c-5.858,5.857-5.858,15.355,0,21.213c2.929,2.929,6.768,4.394,10.606,4.394   s7.678-1.465,10.606-4.394l46.332-46.333c5.858-5.857,5.858-15.355,0-21.213C199.914,360.424,190.416,360.424,184.559,366.281z"></path><path d="M184.559,290.4l-46.332,46.332c-5.858,5.857-5.858,15.355,0,21.213c2.929,2.929,6.768,4.394,10.606,4.394   s7.678-1.465,10.606-4.394l46.332-46.332c5.858-5.857,5.858-15.355,0-21.213C199.914,284.543,190.416,284.543,184.559,290.4z"></path><path d="M112.425,143.926h575.15c8.285,0,15-6.716,15-15s-6.715-15-15-15h-575.15c-8.284,0-15,6.716-15,15   S104.141,143.926,112.425,143.926z"></path></g></svg>