<svg xmlns="http://www.w3.org/2000/svg" xmlns:xlink="http://www.w3.org/1999/xlink" version="1.1" x="0px" y="0px" viewBox="0 0 100 100" style="enable-background:new 0 0 100 100;" xml:space="preserve"><path d="M50,5C25.1469727,5,5,25.1474609,5,50s20.1469727,45,45,45c24.8525391,0,45-20.1474609,45-45S74.8525391,5,50,5z M50,86  c-19.8505859,0-36-16.1494141-36-36s16.1494141-36,36-36s36,16.1494141,36,36S69.8505859,86,50,86z"></path><path d="M27.5,72.5L60,60l12.5-32.5L40,40L27.5,72.5z M50,44.1503906c3.230957,0,5.8500977,2.6191406,5.8500977,5.8496094  S53.230957,55.8496094,50,55.8496094S44.1499023,53.2304688,44.1499023,50S46.769043,44.1503906,50,44.1503906z"></path></svg>