<?xml version="1.0" encoding="UTF-8"?>
<svg width="100pt" height="100pt" version="1.1" viewBox="0 0 100 100" xmlns="http://www.w3.org/2000/svg">
 <path d="m25.859 28.539 17.078-13h0.003906c4.6758-3.5469 10.852-4.4336 16.34-2.3398l27.23 10.391c1.7734 0.66797 3.6523 1.0078 5.5469 1h4.4805c0.63672-0.003906 1.2461 0.25 1.6953 0.70703 0.44531 0.45312 0.6875 1.0664 0.67578 1.7031v33.301c0 1.3008-1.0586 2.3594-2.3594 2.3594h-5.9219c-0.84766 0-1.6719 0.29297-2.3281 0.82812l-1.3516 1.1016c-0.34375 0.27734-0.84766 0.22266-1.1289-0.12109l-31.73-38.559c-0.79688-0.97266-2.1797-1.2344-3.2812-0.62109l-14.539 8.1523c-2.9219 1.6328-6.4414 1.8047-9.5078 0.46875-1.0117-0.4375-1.7344-1.3555-1.9141-2.4414-0.18359-1.082 0.19922-2.1875 1.0117-2.9297zm-22.398 34.102h5.1172l3.5703-4.3711c2.168-2.625 5.6133-3.8281 8.9414-3.125s5.9922 3.1992 6.9102 6.4766c3.0703 0.84375 5.4805 3.2344 6.3516 6.3008 2.2422 0.65234 4.1523 2.1406 5.3281 4.1562 1.9375 0.30469 3.7305 1.2188 5.1094 2.6133 2.9258 3.0664 3.4609 7.7031 1.3125 11.359l-0.48047 0.85156v-0.003906c-0.019532 0.023437-0.019532 0.058593 0 0.082031 1.7422 1.2148 4.0508 1.2539 5.832 0.09375 1.7852-1.1602 2.6836-3.2852 2.2773-5.375-0.0625-0.12109 0.11328-0.22266 0.19141-0.10938l0.39062 0.37891h-0.003906c1.8164 1.8125 4.6562 2.0977 6.793 0.67969 1.6953-1.1836 2.5352-3.2578 2.1367-5.2891-0.058593-0.12109 0.11719-0.22266 0.19141-0.10938l0.39062 0.37891c1.8125 1.8086 4.6445 2.0938 6.7812 0.67969 1.7188-1.1758 2.5742-3.2617 2.1797-5.3086-0.0625-0.125 0.11328-0.22266 0.1875-0.10938l0.44141 0.42188v-0.003906c1.7109 1.7031 4.3516 2.043 6.4414 0.83203 1.3438-0.80469 2.2578-2.168 2.4922-3.7148s-0.23828-3.1211-1.2852-4.2852l-3.1992-3.8594-25.859-31.473c-0.26172-0.32031-0.71875-0.40625-1.0781-0.19922l-12.363 6.9219c-3.9727 2.2266-8.7305 2.5938-13 1-2.3477-0.82422-4.207-2.6602-5.0586-5-0.67969-2.4023-0.36719-4.9766 0.85938-7.1523 0.19922-0.36719 0.1875-0.8125-0.027344-1.168-0.21484-0.35938-0.60547-0.57422-1.0234-0.57031h-16.848c-0.62891-0.003906-1.2305 0.24609-1.6758 0.6875-0.44531 0.44141-0.69531 1.043-0.69531 1.6719v33.301c0.011718 1.2969 1.0703 2.3438 2.3711 2.3398zm18.059-2.3906c-1.9648-1.1016-4.4414-0.60547-5.8281 1.1719l-3.4688 4.2617-0.003906-0.003906c-0.74609 0.91406-1.0938 2.0898-0.96094 3.2656 0.12891 1.1719 0.72266 2.2461 1.6523 2.9766l0.53125 0.41016v-0.003906c1.4102 1.1133 3.3555 1.25 4.9102 0.35156 0.16016-0.10938 0.37109 0.042968 0.32031 0.23047-0.32422 1.625 0.29688 3.2969 1.5977 4.3203l0.42969 0.33984c1.3594 1.0664 3.2148 1.2461 4.75 0.46094 0.074219-0.039062 0.16406-0.03125 0.23438 0.015625 0.066406 0.046875 0.10547 0.12891 0.097656 0.21484-0.17578 1.5312 0.45312 3.0469 1.668 4l0.30078 0.23047v-0.003907c1.375 1.0781 3.25 1.2539 4.8008 0.45312 0.074219-0.046875 0.16406-0.050781 0.24219-0.011718 0.078125 0.039062 0.12891 0.11328 0.13672 0.19922 0.17969 1.1055 0.76953 2.1016 1.6484 2.793l0.19141 0.14844c1.0312 0.80469 2.3594 1.125 3.6406 0.87109 1.2812-0.25 2.3906-1.0469 3.0391-2.1797l0.64844-1.1406h0.003906c1.1055-1.8594 0.78125-4.2383-0.78125-5.7305-1.3242-1.1992-3.2344-1.5-4.8594-0.76172-0.09375 0.050782-0.20313-0.023437-0.19141-0.12891 0.078125-1.4961-0.60547-2.9297-1.8164-3.8125-1.2109-0.87891-2.7852-1.0898-4.1836-0.55859-0.66016 0.12109-0.51953-0.46094-0.51953-0.46094v0.003906c0.71484-1.7383 0.25781-3.7383-1.1445-4.9883-1.4023-1.2461-3.4414-1.4727-5.0859-0.5625-0.48828 0.070312-0.42969-0.39062-0.42969-0.39062 1.207-2.0859 0.50781-4.7578-1.5703-5.9805z"/>
</svg>
