<svg xmlns="http://www.w3.org/2000/svg" enable-background="new 0 0 512.02 512.02" viewBox="0 0 512.02 512.02" x="0px" y="0px"><g><path d="m482.456 316.112-211.446-115.387v-12.119c0-6.134 3.425-11.573 8.727-13.856 22.958-9.892 37.179-32.44 36.229-57.445-1.183-31.135-26.498-56.451-57.633-57.633-16.473-.62-32.078 5.315-43.933 16.729-11.859 11.417-18.39 26.769-18.39 43.228h30c0-8.229 3.266-15.906 9.197-21.616 5.927-5.706 13.743-8.675 21.987-8.362 15.555.591 28.203 13.238 28.793 28.793.476 12.52-6.638 23.807-18.122 28.754-16.314 7.029-26.856 23.283-26.856 41.408v12.119l-211.445 115.387c-23.088 12.599-34.232 38.187-27.73 63.673 6.501 25.486 28.541 42.609 54.842 42.609h33.334v30h30v-30h272v30h30v-30h33.334c26.302 0 48.341-17.123 54.842-42.609 6.502-25.486-4.642-51.074-27.73-63.673zm-1.338 56.257c-2.469 9.681-10.537 20.024-25.773 20.024h-33.335v-30h-30v30h-272v-30h-30v30h-33.334c-15.236 0-23.304-10.344-25.773-20.024s-.343-22.625 13.032-29.923l212.075-115.731 212.075 115.731c13.375 7.299 15.502 20.243 13.033 29.923z"></path></g></svg>