<svg xmlns="http://www.w3.org/2000/svg" viewBox="0 0 24 24" x="0px" y="0px"><title>ui 3</title><g data-name="Layer 2"><path d="M13.177,3.074a1.745,1.745,0,0,0-2.354,0L2.66,10.5a1.75,1.75,0,0,0,1.176,3.045h.323a.25.25,0,0,1,.25.25v5.818a1.752,1.752,0,0,0,1.75,1.75H17.841a1.752,1.752,0,0,0,1.75-1.75V13.791a.25.25,0,0,1,.25-.25h.322A1.75,1.75,0,0,0,21.341,10.5ZM12.75,19.859h-1.5V16.32a.75.75,0,0,1,1.5,0ZM20.4,11.88a.233.233,0,0,1-.233.161h-.322a1.752,1.752,0,0,0-1.75,1.75v5.818a.25.25,0,0,1-.25.25H14.25V16.32a2.25,2.25,0,0,0-4.5,0v3.539H6.159a.25.25,0,0,1-.25-.25V13.791a1.752,1.752,0,0,0-1.75-1.75H3.836a.251.251,0,0,1-.168-.435l8.164-7.421a.247.247,0,0,1,.336,0l8.163,7.421h0A.231.231,0,0,1,20.4,11.88Z"></path></g></svg>