<svg xmlns="http://www.w3.org/2000/svg" data-name="Layer 1" viewBox="0 0 95 95" x="0px" y="0px"><path d="M18.443,19.647a8.722,8.722,0,1,1-8.722-8.722A8.731,8.731,0,0,1,18.443,19.647ZM9.721,38.779A8.721,8.721,0,1,0,18.443,47.5,8.731,8.731,0,0,0,9.721,38.779Zm0,27.853a8.722,8.722,0,1,0,8.722,8.721A8.731,8.731,0,0,0,9.721,66.632ZM26.9,24.235H89.412a4.588,4.588,0,0,0,0-9.176H26.9a4.588,4.588,0,0,0,0,9.176ZM89.412,42.912H26.9a4.588,4.588,0,0,0,0,9.176H89.412a4.588,4.588,0,0,0,0-9.176Zm0,27.853H26.9a4.589,4.589,0,0,0,0,9.177H89.412a4.589,4.589,0,0,0,0-9.177Z"></path></svg>