<?xml version="1.0" encoding="UTF-8"?>
<svg width="100pt" height="100pt" version="1.1" viewBox="0 0 100 100" xmlns="http://www.w3.org/2000/svg">
 <path d="m52.383 20.164-2.3828 2.3867-2.3828-2.3828v-0.003907c-4.3203-4.3086-10.172-6.7305-16.273-6.7305s-11.953 2.4219-16.273 6.7305c-4.3242 5-6.7266 11.379-6.7695 17.988s2.2734 13.02 6.5352 18.074c9.5977 11.332 26.93 30.348 35.164 30.348s25.566-19.016 34.93-30.094v-0.003907c4.3477-5.0469 6.7383-11.492 6.7383-18.156 0-6.6641-2.3906-13.105-6.7383-18.156-4.3203-4.3086-10.172-6.7305-16.273-6.7305s-11.953 2.4219-16.273 6.7305z"/>
</svg>
