<?xml version="1.0" encoding="UTF-8"?>
<svg width="100pt" height="100pt" version="1.1" viewBox="0 0 100 100" xmlns="http://www.w3.org/2000/svg">
 <path d="m90.699 86.898c0 2.3984-1.6016 3-3 3h-72c-2.3984 0-3-1.6992-3-3v-27h78zm-5.1992-42-4.5 12h-12l4.5-12zm-22.602 0-4.5 12h-12l4.5-12zm-22.5 0-4.5 12h-12l4.5-12zm-12.398-5.5-8.1992-9.8984 11.398-3.8984 8.1992 9.8984zm13.102-17.297 11.398-3.8984 8.1992 9.8984-11.5 3.8984zm21.297-7.3008 11.398-3.8984 8.1992 9.8984-11.398 3.8984zm-44.797 24.398c2.3008 0 4.1992 1.8984 4.1992 4.1992 0 2.3008-1.8984 4.1992-4.1992 4.1992-2.3008 0-4.1992-1.8984-4.1992-4.1992-0.003906-2.2969 1.7969-4.1992 4.1992-4.1992m79.098 47.699v-40.5c0-1.8008-1.1992-4.5-4.5-4.5h-62.5l59.5-20.5c3.1016-1.1016 3.3984-4 2.8008-5.6992l-2.8984-8.5c-1.1016-3.1016-4-3.3984-5.6992-2.8008l-76.703 26.402c-3.1016 1.1016-3.3984 4-2.8008 5.6992l3 8.5v0.10156c-0.10156 0.39844-0.30078 0.80078-0.30078 1.3008v40.5c0 3.6016 2.3984 9 9 9h72c3.7031 0.097656 9.1016-2.3008 9.1016-9.0039"/>
</svg>
