<svg xmlns:dc="http://purl.org/dc/elements/1.1/" xmlns:cc="http://creativecommons.org/ns#" xmlns:rdf="http://www.w3.org/1999/02/22-rdf-syntax-ns#" xmlns:svg="http://www.w3.org/2000/svg" xmlns="http://www.w3.org/2000/svg" xmlns:sodipodi="http://sodipodi.sourceforge.net/DTD/sodipodi-0.dtd" xmlns:inkscape="http://www.inkscape.org/namespaces/inkscape" version="1.1" viewBox="0 0 8.4666664 8.4666672" x="0px" y="0px"><g transform="translate(0,761.3334)"><path d="m 2.3811519,-760.80423 c -1.021483,0 -1.851985,0.8307 -1.851985,1.85218 v 5.2917 a 0.26461112,0.26461112 0 0 0 0.264457,0.26445 h 1.587528 a 0.26461112,0.26461112 0 0 0 0.264653,-0.26445 v -0.26466 h 1.058222 a 0.26461112,0.26461112 0 0 0 0.264653,-0.26465 v -5.2917 a 0.26461112,0.26461112 0 0 0 -0.264653,-0.26445 c -0.295385,0 -0.529111,-0.23392 -0.529111,-0.52931 h 2.116639 c 0,0.29539 -0.233726,0.52931 -0.529111,0.52931 a 0.26461112,0.26461112 0 0 0 -0.264653,0.26445 v 5.2917 a 0.26461112,0.26461112 0 0 0 0.264653,0.26465 h 1.058418 v 0.26466 a 0.26461112,0.26461112 0 0 0 0.264457,0.26445 h 1.587528 a 0.26461112,0.26461112 0 0 0 0.264653,-0.26445 v -5.2917 c 0,-1.02148 -0.830698,-1.85218 -1.852181,-1.85218 z m 0,0.52911 h 0.264653 c 0,0.48774 0.342338,0.88373 0.793764,1.00451 v 4.81649 h -0.793764 v -4.23347 h -0.529306 v 4.76258 h -1.058222 v -5.02704 c 0,-0.73747 0.585399,-1.32307 1.322875,-1.32307 z m 3.43971,0 h 0.264457 c 0.737476,0 1.322875,0.5856 1.322875,1.32307 v 5.02704 h -1.058222 v -4.76258 h -0.52911 v 4.23347 h -0.793764 v -4.81649 c 0.451332,-0.12084 0.793764,-0.51683 0.793764,-1.00451 z" style="color:#000000;font-style:normal;font-variant:normal;font-weight:normal;font-stretch:normal;font-size:medium;line-height:normal;font-family:sans-serif;font-variant-ligatures:normal;font-variant-position:normal;font-variant-caps:normal;font-variant-numeric:normal;font-variant-alternates:normal;font-variant-east-asian:normal;font-feature-settings:normal;font-variation-settings:normal;text-indent:0;text-align:start;text-decoration:none;text-decoration-line:none;text-decoration-style:solid;text-decoration-color:#000000;letter-spacing:normal;word-spacing:normal;text-transform:none;writing-mode:lr-tb;direction:ltr;text-orientation:mixed;dominant-baseline:auto;baseline-shift:baseline;text-anchor:start;white-space:normal;shape-padding:0;shape-margin:0;inline-size:0;clip-rule:nonzero;display:inline;overflow:visible;visibility:visible;opacity:1;isolation:auto;mix-blend-mode:normal;color-interpolation:sRGB;color-interpolation-filters:linearRGB;solid-color:#000000;solid-opacity:1;vector-effect:none;fill:#000000;fill-opacity:1;fill-rule:nonzero;stroke:none;stroke-width:5.29167;stroke-linecap:butt;stroke-linejoin:round;stroke-miterlimit:4;stroke-dasharray:none;stroke-dashoffset:0;stroke-opacity:1;paint-order:fill markers stroke;color-rendering:auto;image-rendering:auto;shape-rendering:auto;text-rendering:auto;enable-background:accumulate;stop-color:#000000;stop-opacity:1"></path></g></svg>