<?xml version="1.0" encoding="UTF-8"?>
<svg width="1200pt" height="1200pt" version="1.1" viewBox="0 0 1200 1200" xmlns="http://www.w3.org/2000/svg">
 <g fill="#ede8d6">
  <path d="m453.42 107.16c-1.1797-1.8945-2.668-3.4648-4.5391-4.5391-0.39062-0.24219-0.53906-0.75391-0.95703-0.95703-3.4141-1.6367-85.246-40.133-205.6-40.391-0.4375 0-0.85156 0.015624-1.2734 0.070312l-0.015625-0.070312c-118.98 0.26172-200.76 38.754-204.19 40.391-0.3125 0.15234-0.41797 0.54688-0.72266 0.72266-1.8711 1.0781-3.3672 2.6523-4.5508 4.5508-0.26172 0.41797-0.80469 0.57422-1.0234 1.0234-1.9297 4.0547-47.496 102.42-23.66 344.52 0.20703 2.5117 21.328 252.46 30.355 335.3 2.6484 24.395 7.4414 59.629 12.391 96.016 6.1172 44.922 12.441 91.414 15.266 121.35l10.578 109.92c0.45312 4.8086 3.4688 8.957 7.8594 10.941 2.5625 1.1172 63.918 27.812 138.85 0.34766 5.7148-2.125 9.3047-7.8086 8.7109-13.871l-5.418-56.109-3.957-197.82 5.2617-183.32c3.0859-106.19 10.02-151.22 15.594-170.21 5.6094 19.027 12.547 64.074 15.629 170.21l5.2617 182.65-3.8867 197.43-5.4883 57.156c-0.59375 6.0625 2.9961 11.746 8.7109 13.871 25.32 9.2695 49.051 12.371 69.527 12.371 40.148 0 67.629-11.988 69.32-12.719 4.3906-1.9883 7.4062-6.1328 7.8594-10.941l10.578-109.92c2.8203-29.902 9.1328-76.289 15.23-121.14 4.9648-36.453 9.7578-71.793 12.426-96.258 9.0273-82.809 30.164-332.76 30.355-335.09 23.84-242.28-21.73-340.63-23.68-344.69-0.16797-0.34766-0.60156-0.46484-0.79688-0.79688zm-6.4258 75.656c-18.859 6.2891-40.602 11.566-64.605 15.699v-55.375c18.777-3.4648 36.098-7.6914 51.848-12.512 3.375 10.062 8.2617 27.109 12.758 52.188zm-205.93-94.777 1.3594-0.050781c0.40234 0.035157 0.80078 0.050781 1.2031 0.050781 67.305 0.14453 122.21 13.418 156.09 24.203-44.641 10.324-99.613 16.082-156.95 16.082-57.551 0-112.67-5.7969-157.39-16.195 33.891-10.766 88.629-23.945 155.68-24.09zm114.55 59.461v55.027c-5.8555 0.75781-11.68 1.5391-17.723 2.1719v-55.027c5.957-0.6875 11.938-1.3555 17.723-2.1719zm-214.42 1.3906-2.9023 53.152c-6.6953-0.89844-13.309-1.8242-19.719-2.8828l2.8867-53.008c6.4609 0.99609 13.031 1.9062 19.734 2.7383zm-90.586-18.488c13.578 4.1836 28.406 7.8789 44.293 11.059l-2.8672 52.684c-20.113-4.3281-38.02-9.5469-53.469-15.488 4.3086-22.93 8.8594-38.797 12.043-48.254zm-16.391 75.23c24.355 8.7812 53.914 15.922 87.051 21.039-2.4883 17.84-6.5938 33.102-13.082 45.648-9.8477 19.133-23.77 30.094-38.16 30.094-13.016 0-25.719-5.1406-37.762-15.301l-4.6484-3.9219c1.1602-30.383 3.6133-56.074 6.6016-77.559zm165.79 468.84-5.2617 183.98 4.0234 199.48 4.4609 46.527c-46.668 14.047-86.344 4.6367-101.94-0.38281l-9.7422-101.45c-2.8906-30.496-9.2539-77.266-15.402-122.46-4.9141-36.105-9.6719-71.059-12.32-95.316-8.9727-82.492-30.078-332.11-30.301-334.81-5.0273-51.078-6.8477-95.547-6.6445-133.92 13.637 8.5156 28.316 13.059 43.152 13.059 24.762 0 47.348-16.258 61.949-44.594 7.8945-15.281 12.848-33.391 15.754-54.305 25.773 3.0078 53.176 4.7461 81.273 5.3438l0.03125 238.71c-16.914 18.332-25.441 76.945-29.035 200.15zm-35.066-469.35 2.9141-53.398c24.168 2.1406 49.293 3.3672 74.914 3.3672 23.312 0 46.199-1.0352 68.359-2.8164v54.73c-20.234 1.4297-41.172 2.207-62.559 2.207-28.922 0.003906-57-1.4961-83.629-4.0898zm286.3 245.09c-0.20703 2.5117-21.328 252.15-30.301 334.6-2.6484 24.324-7.4219 59.387-12.355 95.598-6.1328 45.098-12.477 91.762-15.371 122.22l-9.7422 101.49c-15.543 5.0547-54.961 14.465-101.96 0.34766l4.5469-47.57 3.957-199.11-5.2617-183.32c-3.5938-123.15-12.117-181.76-28.961-200.09l-0.03125-238.53c23.031-0.17578 45.523-1.2227 67.234-3.0234 0.51953 0.0625 0.97266 0.30469 1.5078 0.30469 1.332 0 2.5391-0.39453 3.7539-0.75781 3.3594-0.30078 6.793-0.53516 10.105-0.87109 2.957 20.363 7.8047 38.121 15.52 53.07 14.621 28.332 37.203 44.594 61.965 44.594 14.41 0 28.711-4.2031 42.031-12.262 0.17969 38.238-1.6406 82.484-6.6406 133.3zm2.3711-163.11c-12.039 10.16-24.762 15.301-37.762 15.301-14.395 0-28.316-10.961-38.18-30.094-6.2578-12.121-10.234-26.93-12.773-44.008 32.152-4.4336 61.32-10.746 86.184-18.648 2.7695 20.887 5.0234 45.523 6.1055 74.434z"/>
  <path d="m1196.7 405.57c-20.945-25.18-35.023-62.609-43.145-89.551-4.1133-13.801-7.1445-28.754-9.2031-45.723-9.3047-76.324-69.32-94.984-71.41-95.598-45.41-15.145-118.98-46.668-119.68-46.977-4.5312-1.8984-9.4805-0.34766-13.488 2.2656-4.043 2.6328-6.4492 8.1875-6.4492 13 0 36.785-37.324 66.723-83.223 66.723-45.863 0-83.188-29.938-83.188-68.188 0.24219-4.9297-2.0898-9.6172-6.1328-12.426-4.043-2.8398-9.2695-3.3281-13.801-1.375-0.69531 0.3125-74.266 31.836-119.22 46.84-2.5469 0.75-62.559 19.41-71.863 95.734-2.0898 17.059-5.1055 32.012-9.2344 45.707-8.0859 26.938-22.148 64.336-43.129 89.566-4.6719 5.6094-4.3398 13.836 0.73047 19.082 2.5117 2.5781 53.184 53.809 119.19 53.809 6.8672 0 13.941-0.74219 21.109-1.9648 13.652 95.852 23.473 238-11.281 357.5-1.7773 6.1328 0.75 12.688 6.1523 16.066 40.32 25.199 120.72 40.777 210.08 40.777h1.4961c89.184-0.035157 169.59-15.648 209.77-40.777 5.4023-3.3789 7.9453-9.9336 6.1328-16.066-34.727-119.44-24.918-261.51-11.266-357.36 75.996 13.047 137.55-49.148 140.32-51.98 5.0898-5.25 5.4062-13.473 0.73437-19.086zm-136.67 42.391c5.2539-31.941 10.453-56.496 13.457-69.754 1.4609-6.4531-1.7305-13.047-7.6914-15.922-8.1797-3.9453-17.891 0.68359-20 9.5156-15 62.727-55.227 286.27-9.332 459.16-38.371 19.168-109.15 31.297-185.48 31.297-77.336-0.52344-148.5-11.953-187.22-31.297 32.691-123.09 21.711-271.62 7.2656-369.74 0.35156-2.1367 0.36328-4.3398-0.33203-6.543-0.19141-0.59766-0.61328-1.0195-0.87109-1.5742-5.5117-35.945-11.359-64.445-15.383-81.312-2.1055-8.8281-11.816-13.438-19.988-9.4961-5.957 2.875-9.1484 9.4648-7.6914 15.914 3 13.254 8.1953 37.805 13.445 69.746-46.52 7.9414-88.543-20.383-106.38-35.098 19.379-27.742 32.395-62.715 40.164-88.625 4.6016-15.266 7.9453-31.785 10.227-50.48 6.9688-57.207 49.906-71.289 52.102-71.969 32.551-10.855 78.73-29.691 104.14-40.32 10.105 43.719 55.449 76.793 109.64 76.793 53.531 0 98.383-32.219 109.22-76.984 25.336 10.594 71.934 29.621 104.94 40.637 1.8125 0.55859 44.785 14.637 51.719 71.844 2.3008 18.609 5.6094 35.113 10.246 50.48 7.8086 25.949 20.84 60.938 40.184 88.625-17.871 14.719-59.832 43.066-106.38 35.109z"/>
 </g>
</svg>
