<svg xmlns="http://www.w3.org/2000/svg" xmlns:xlink="http://www.w3.org/1999/xlink" xmlns:serif="http://www.serif.com/" viewBox="0 0 32 32" version="1.1" xml:space="preserve" style="" x="0px" y="0px" fill-rule="evenodd" clip-rule="evenodd" stroke-linejoin="round" stroke-miterlimit="2"><g transform="matrix(1,0,0,1,-259,-37)"><path d="M275,38C266.721,38 260,44.721 260,53C260,61.279 266.721,68 275,68C283.279,68 290,61.279 290,53C290,44.721 283.279,38 275,38ZM267,61C267,61.552 267.448,62 268,62L282,62C282.552,62 283,61.552 283,61C283,56.585 279.415,53 275,53C270.585,53 267,56.585 267,61ZM275,44C272.792,44 271,45.792 271,48C271,50.208 272.792,52 275,52C277.208,52 279,50.208 279,48C279,45.792 277.208,44 275,44Z"></path></g></svg>