<?xml version="1.0" encoding="UTF-8"?>
<svg width="100pt" height="100pt" version="1.1" viewBox="0 0 100 100" xmlns="http://www.w3.org/2000/svg">
 <g>
  <path d="m46.469 77.363c-5.6172 0-9.6875 4.2383-9.6875 10.074 0 5.668 4.1094 9.9453 9.5586 9.9453 5.6055 0 9.6758-4.1797 9.6758-9.9453 0-5.8359-4.0078-10.074-9.5469-10.074z"/>
  <path d="m48.438 2.6133c-7.3633 0-15.133 2.1953-19.801 5.5859-0.66797 0.48828-0.92969 1.3672-0.62891 2.1367l3.1406 8.25c0.19922 0.53906 0.64844 0.94922 1.207 1.1055 0.54688 0.14844 1.1484 0.039063 1.6055-0.30859 2.9023-2.2031 7.7695-3.6797 12.09-3.6797 6.8516 0.10938 10.633 3.4531 10.633 9.4258 0 5.4062-3.2031 10.234-8.7383 16.758-6.5625 7.8711-9.4258 15.953-8.5391 23.961l0.25781 3.4023c0.078126 0.95703 0.86719 1.6875 1.8242 1.6875h10.215c0.48828 0 0.96875-0.19922 1.3164-0.55859 0.33984-0.35938 0.52734-0.83984 0.50781-1.3359l-0.12891-3.4414c-0.37891-6.3242 1.7266-11.691 7.0312-17.957 6.625-7.8594 11.68-14.625 11.68-23.961 0.007813-10.484-7.3125-21.07-23.672-21.07z"/>
 </g>
</svg>
