<svg xmlns="http://www.w3.org/2000/svg" xmlns:xlink="http://www.w3.org/1999/xlink" version="1.0" x="0px" y="0px" viewBox="0 0 100 100" enable-background="new 0 0 100 100" xml:space="preserve"><path d="M78.047,21.38c-2.591-2.591-7.715-4.713-11.38-4.713h-8.334C58.333,21.27,54.603,25,50,25s-8.333-3.73-8.333-8.333h-8.334  c-3.665,0-8.789,2.122-11.38,4.713L10,33.333l13.333,13.334l3.334-3.334v40h46.666v-40l3.334,3.334L90,33.333L78.047,21.38z   M66.667,27.239v49.428H33.333V27.239l-10,10l-3.906-3.906l10-10h7.201c2.461,4.922,7.493,8.334,13.372,8.334  c5.876,0,10.911-3.412,13.372-8.334h7.201l10,10l-3.906,3.906L66.667,27.239z"></path></svg>