<svg xmlns="http://www.w3.org/2000/svg" xmlns:xlink="http://www.w3.org/1999/xlink" version="1.1" x="0px" y="0px" viewBox="0 0 100 100" enable-background="new 0 0 100 100" xml:space="preserve"><g><circle fill="#000000" cx="50.875" cy="41.784" r="1.093"></circle><circle fill="#000000" cx="44.535" cy="38.731" r="1.093"></circle><path fill="#000000" d="M97.604,59.112c-0.008-0.046-0.017-0.092-0.027-0.138c-0.057-0.234-1.456-5.728-8.723-6.336   c-1.925-0.528-23.264-6.523-40.734-17.914c-0.473-0.389-2.058-1.514-4.571-1.514c-0.996,0-2.02,0.179-3.052,0.533l-3.117-3.117   c-0.394-0.394-0.96-0.562-1.506-0.447c-0.544,0.114-0.996,0.497-1.197,1.016l-3.67,9.438c-1.124,0.594-4.131,2.004-7.329,2.004   c-3.66,0-6.27-1.833-7.979-5.604c-0.095-0.209-0.231-0.396-0.402-0.548c-0.164-0.147-1.65-1.431-3.443-1.431   c-1.116,0-3.119,0.499-4.041,3.825c-0.442,1.234-5.42,15.513-3.95,29.1c0.089,0.823,0.773,1.452,1.6,1.472   c0.168,0.003,17.075,0.405,35.662,0.405c0.001,0,0,0,0.001,0c16.3,0,28.915-0.3,37.493-0.891c0.113,0.003,0.337,0.006,0.649,0.006   c3.861,0,13.236-0.458,16.891-4.709C97.396,62.82,97.896,61.04,97.604,59.112z M88.451,55.915c2.126,0.154,3.507,0.866,4.399,1.634   c-8.525,3.105-21.931,3.883-35.663,3.594l9.73-8.823c4.619,0.93,9.728,1.574,15.309,1.747c3.609,1.177,5.853,1.779,5.923,1.798   C88.248,55.891,88.35,55.906,88.451,55.915z M9.106,46.219c2.295,1.77,7.188,4.776,13.978,4.776c5.379,0,11.942-1.904,19.322-7.805   c1.255,0.734,2.707,1.523,4.335,2.328l-16.77,13.938C18.613,58.367,9.758,57.104,7.229,56.73   C7.646,52.766,8.393,49.106,9.106,46.219z M50.051,47.057c1.248,0.544,2.583,1.083,3.992,1.608L41.685,60.423   c-2.408-0.165-4.77-0.349-7.06-0.544L50.051,47.057z M57.55,49.882c1.713,0.552,3.521,1.077,5.432,1.554l-9.395,8.52   c-0.318,0.288-0.492,0.672-0.529,1.067c-2.306-0.082-4.607-0.189-6.884-0.317L57.55,49.882z M46.007,37.257   c0.068,0.063,0.142,0.121,0.22,0.171c3.748,2.449,7.666,4.65,11.542,6.611c-0.06-0.01-0.12-0.019-0.181-0.019   c-0.604,0-1.094,0.49-1.094,1.095c0,0.603,0.49,1.092,1.094,1.092s1.093-0.489,1.093-1.092c0-0.307-0.125-0.583-0.329-0.782   c3.914,1.959,7.767,3.669,11.342,5.129c-15.56-2.765-25.803-9.035-29.59-11.692l0.835-0.657c0.911-0.396,1.789-0.604,2.609-0.604   C45.12,36.51,45.992,37.246,46.007,37.257z M36.833,34.747l0.784,0.783l-1.237,0.973c-0.002,0.001-0.004,0.003-0.006,0.004   l-0.323,0.254L36.833,34.747z M10.979,39.808c0.181-0.671,0.518-1.455,0.875-1.455c0.297,0,0.717,0.212,1.016,0.417   c2.841,5.912,7.427,7.167,10.808,7.167c4.944,0,9.325-2.632,9.508-2.743c0.031-0.019,0.058-0.042,0.086-0.063   c0.025-0.018,0.051-0.03,0.075-0.049l4.049-3.182c0.504,0.378,1.188,0.868,2.039,1.435c-17.252,13.115-28.569,2.201-29.381,1.376   c0.503-1.711,0.868-2.731,0.882-2.769C10.951,39.898,10.966,39.853,10.979,39.808z M79.268,65.675   c-0.396,0-0.625-0.007-0.639-0.007c-0.053-0.002-0.107,0-0.163,0.003c-8.503,0.589-21.067,0.887-37.342,0.887   c-15.381,0-29.609-0.275-34.113-0.37c-0.148-2.057-0.146-4.127-0.042-6.158c5.512,0.825,31.384,4.494,55.067,4.494   c12.489,0,24.363-1.023,32.326-4.021c-0.062,0.594-0.287,1.122-0.706,1.61C91.397,64.742,84.492,65.675,79.268,65.675z"></path></g></svg>