<svg xmlns="http://www.w3.org/2000/svg" xmlns:xlink="http://www.w3.org/1999/xlink" version="1.1" x="0px" y="0px" viewBox="0 0 64 64" enable-background="new 0 0 64 64" xml:space="preserve"><g><path d="M61.2314453,6.6369462L44.1917114,2.5769489c-0.0004883-0.0001221-0.0007935-0.0004272-0.0012817-0.0005493   l-2.1054688-0.4990234c-0.7070313-0.171875-1.4335938-0.0537109-2.0498047,0.3271484   c-0.6123047,0.378418-1.0390625,0.9716797-1.1972656,1.660156c-0.2001953,0.8261719-0.5654297,1.5610352-1.0927734,2.1918945   C36.5224609,7.7521806,34.4287109,8.6096029,32,8.6096029s-4.5224609-0.8574224-5.7519531-2.3608403   c-0.5205078-0.6230469-0.8857422-1.3579102-1.0830078-2.1743164c-0.1611328-0.6982419-0.5878906-1.2915037-1.2001953-1.6699216   c-0.6162109-0.3808594-1.3457031-0.496582-2.0449219-0.328125l-2.1103516,0.5   c-0.0004883,0.0001221-0.0007935,0.0004272-0.0012817,0.0005493L2.7685547,6.6369462C2.3173828,6.7443681,2,7.1467118,2,7.6096025   v16c0,0.5522461,0.4472656,1,1,1h10v29.0000019c0,0.5522461,0.4472656,1,1,1h20.1787109l-0.1777344,4.2954102   c-0.0361328,0.8168945,0.2539063,1.5917969,0.8183594,2.1811523c0.5634766,0.5893555,1.3232422,0.9135742,2.140625,0.9135742   h19.9003906c0.8173828,0,1.5771332-0.3242188,2.140625-0.9135742c0.5634766-0.5888672,0.8544922-1.3632813,0.8183594-2.1801758   l-0.8203125-19.828125c-0.0722656-1.7260742-1.4863281-3.078125-3.21875-3.078125h-0.8701172v-1   c0-2.1367188-0.8320313-4.145998-2.3427734-5.6572285C52.1019287,28.877058,51.5663452,28.4942455,51,28.1560497V24.609602h10   c0.5527344,0,1-0.4477539,1-1v-16C62,7.1467118,61.6826172,6.7443681,61.2314453,6.6369462z M22.3857422,4.0217118   c0.1787109-0.0444334,0.3691406-0.0136719,0.5283203,0.0844727c0.1542969,0.0952148,0.2617188,0.2441406,0.3046875,0.4282227   c0.2724609,1.1274414,0.7753906,2.1357422,1.4873047,2.9887695C26.3105469,9.4846029,28.9697266,10.6096029,32,10.6096029   s5.6894531-1.125,7.2871094-3.0786138c0.71875-0.8608398,1.2216797-1.8691406,1.4970703-3.0063477   c0.0400391-0.1743164,0.1474609-0.3232422,0.3017578-0.418457c0.1591797-0.0986328,0.34375-0.1303709,0.5332031-0.0834961   l1.2366333,0.2931519c-0.0054321,0.0336914-0.0072632,0.0687256-0.0130005,0.102356   c-0.0161133,0.093811-0.0380249,0.1854248-0.0567627,0.2782593c-0.043335,0.2145386-0.0922852,0.427063-0.1496582,0.6362915   c-0.0286255,0.104187-0.0592041,0.2075806-0.0912476,0.3104248c-0.0631104,0.2025146-0.1341553,0.4017334-0.2106323,0.5986938   c-0.0355835,0.0915527-0.0686035,0.1841431-0.1070557,0.2744751c-0.1190796,0.2796631-0.2478638,0.5551147-0.3944092,0.8222656   C40.0234375,10.6393881,36.3476563,12.6096029,32,12.6096029s-8.0234375-1.9702148-9.8330078-5.2705083   c-0.1466675-0.2674561-0.2755127-0.5432129-0.3946533-0.8231812c-0.038208-0.0897217-0.0709839-0.1817627-0.1063232-0.2727051   c-0.0766602-0.1973877-0.1478271-0.3969727-0.2110596-0.5999146c-0.0320435-0.1028442-0.0626831-0.2062988-0.0913086-0.3105469   c-0.0574951-0.2097168-0.1065674-0.4226685-0.1499634-0.6377563c-0.0185547-0.0921021-0.0402832-0.1829834-0.0562744-0.276062   c-0.0057983-0.0338745-0.0076294-0.0690918-0.0131226-0.1030884L22.3857422,4.0217118z M4,8.3991537l15.1865234-3.6181645   c0.0025024,0.0144653,0.0066528,0.0283203,0.0092163,0.0427246c0.0123291,0.069397,0.0307617,0.1365356,0.0443115,0.2055664   c0.0581665,0.2963257,0.1266479,0.5889282,0.2069092,0.8772583c0.0328369,0.1177979,0.0695801,0.2339478,0.1060791,0.3503418   c0.078064,0.2490234,0.164917,0.4944458,0.2597656,0.7368164c0.015564,0.0397339,0.0266113,0.0812378,0.0426025,0.1207886   L4,10.6429892V8.3991537z M55.7802734,37.9997406c0.6572113,0,1.1933594,0.5107422,1.2207031,1.1616211l0.8203125,19.8295898   c0,0.0009766,0,0.0019531,0,0.0029297c0.0117188,0.2666016-0.0820313,0.5185547-0.265625,0.7099609   c-0.1826172,0.190918-0.4296875,0.2958984-0.6953125,0.2958984H54v-16c0-0.5522461-0.4472656-1-1-1s-1,0.4477539-1,1v16H36.9599609   c-0.265625,0-0.5126953-0.1049805-0.6953125-0.2958984c-0.1835938-0.1914063-0.2773438-0.4433594-0.265625-0.7133789   L36.8193359,39.16185c0.0273438-0.6513672,0.5634766-1.1621094,1.2207031-1.1621094h1.8701172h14H55.7802734z    M51.1533203,30.7565746c1.1328125,1.1333008,1.7568359,2.6401386,1.7568359,4.243166v1h-12v-1   c0-3.3085957,2.6914063-6.0000019,6-6.0000019c0.2324219,0,0.4624023,0.0129395,0.6895752,0.0387573   c0.6814575,0.0773926,1.3375244,0.2706909,1.9578857,0.5779419C50.1533203,29.9098949,50.6904297,30.293684,51.1533203,30.7565746z    M60,22.609602H50c-0.5527344,0-1,0.4477539-1,1v3.668457c-0.0408936-0.0110474-0.0835571-0.0146484-0.1246338-0.0250244   c-0.2167969-0.0549316-0.4362793-0.0952759-0.6571655-0.132019c-0.1063232-0.0177002-0.2109375-0.0418091-0.3178711-0.0552368   c-0.3284912-0.0411987-0.6589355-0.06604-0.9901733-0.06604c-4.4111328,0-8,3.5888672-8,8.0000019v1h-0.8701172   c-1.7324219,0-3.1464844,1.3520508-3.21875,3.0786133l-0.5605469,13.53125H15V23.609602c0-0.5522461-0.4472656-1-1-1H4v-9.9179678   l16.8314819-3.7456665C23.1031494,12.495162,27.2032471,14.6096029,32,14.6096029   c4.7965698,0,8.8964844-2.1143188,11.1682739-5.6636963L60,12.6916342V22.609602z M60,10.6429892L44.1445313,7.1144853   c0.0162354-0.0400391,0.0274658-0.0822144,0.0432129-0.1224976c0.0946045-0.2416382,0.1811523-0.4863281,0.2590332-0.7346191   c0.0365601-0.1166382,0.0734253-0.2330322,0.1062622-0.3510742c0.0802612-0.288208,0.1486816-0.5806885,0.2068481-0.8769531   c0.0134888-0.0690308,0.0320435-0.1361694,0.0443726-0.2056274c0.0025635-0.0144043,0.0067139-0.0282593,0.0092163-0.0427246   L60,8.3991537V10.6429892z"></path></g></svg>