<?xml version="1.0" encoding="UTF-8"?>
<svg width="100pt" height="100pt" version="1.1" viewBox="0 0 100 100" xmlns="http://www.w3.org/2000/svg">
 <g>
  <path d="m80.379 41.703c-1.1289-10.586-10.102-18.641-20.762-18.641-10.793-0.011719-19.828 8.2109-20.809 18.953 0.011718 1.0195-0.65625 1.7578-1.7109 1.5039-7.5664-1.8203-15.133 3.6875-16.105 11.289 0.15625 0.80078-0.42578 1.5625-1.2383 1.6133-5.8711 0.33984-10.516 5.25-10.516 11.156 0 6.1367 5.0312 11.168 11.168 11.168h59.121c9.8125 0 17.777-7.9688 17.777-17.789 0-8.4883-5.9922-15.715-14.152-17.414-1.4297-0.26562-2.5117-0.33984-2.7773-1.8438zm-43.016-5.5898c3.2852-9.3125 12.129-15.742 22.242-15.742 11.859 0 21.805 8.8047 23.367 20.41 9.7617 1.6602 17.027 10.148 17.027 20.18 0 11.703-9.2031 20.238-20.484 20.484h-59.109c-7.6289 0-13.875-6.2344-13.875-13.859 0-5.9062 3.7734-11.086 9.1797-13.047-7.4805-5.2148-8.4766-15.961-1.9883-22.445 7.1797-7.1914 19.258-5.0586 23.637 4.0273zm-21.73-2.1211c-5.75 5.75-4.2188 15.391 2.9219 19.137 1.7227-7.9414 9.2031-13.426 17.426-12.504-1.4805-9.543-13.34-13.645-20.348-6.6328z"/>
  <path d="m26.133 18.555v6.1484h-2.9609v-6.1484z"/>
  <path d="m13.605 21.113 3.082 5.3242-2.5703 1.4922-3.0703-5.3242z"/>
  <path d="m4.0508 29.602 5.3242 3.0703-1.4922 2.5703-5.3242-3.082z"/>
  <path d="m0 41.73h6.1484v2.9609h-6.1484z"/>
  <path d="m2.5586 54.258 5.3242-3.082 1.4922 2.5703-5.3242 3.082z"/>
  <path d="m38.273 22.605-3.082 5.3242-2.5703-1.4922 3.082-5.3242z"/>
 </g>
</svg>
