<svg xmlns="http://www.w3.org/2000/svg" xmlns:xlink="http://www.w3.org/1999/xlink" version="1.0" x="0px" y="0px" viewBox="0 0 100 100" enable-background="new 0 0 100 100" xml:space="preserve"><path d="M73.333,23.669v-7.002c0-3.666-3.001-6.667-6.666-6.667H20c-3.665,0-6.667,3.001-6.667,6.667v66.666  C13.333,86.999,16.335,90,20,90h46.667c3.665,0,6.666-3.001,6.666-6.667V56.331C80.94,54.785,86.667,48.063,86.667,40  S80.94,25.215,73.333,23.669z M66.667,83.333H20V16.667h46.667v7.002C59.06,25.215,53.333,31.937,53.333,40  s5.727,14.785,13.334,16.331V83.333z M78.535,41.035l-7.356,7.646c-0.648,0.645-1.709,0.645-2.357,0l-7.356-7.646  C60.56,40.13,60,38.88,60,37.5c0-2.764,2.239-5,5-5c1.38,0,2.63,0.56,3.535,1.465L70,35.43l1.465-1.465  C72.37,33.06,73.62,32.5,75,32.5c2.761,0,5,2.239,5,5C80,38.88,79.44,40.13,78.535,41.035z"></path><rect x="26.667" y="30" width="20" height="6.667"></rect><rect x="26.667" y="43.333" width="20" height="6.667"></rect><rect x="26.667" y="56.667" width="26.666" height="6.666"></rect><rect x="26.667" y="70" width="33.333" height="6.667"></rect></svg>