<?xml version="1.0" encoding="UTF-8"?>
<svg width="100pt" height="100pt" version="1.1" viewBox="0 0 100 100" xmlns="http://www.w3.org/2000/svg">
 <path d="m93.242 6.7578c-2.3438-2.3438-6.1406-2.3438-8.4844 0l-34.758 34.758-34.758-34.758c-2.3438-2.3398-6.1367-2.3359-8.4805 0.003907-2.3398 2.3438-2.3438 6.1367-0.003907 8.4805l34.758 34.758-34.758 34.758c-2.3398 2.3438-2.3359 6.1367 0.003907 8.4805 2.3438 2.3398 6.1367 2.3438 8.4805 0.003907l34.758-34.758 34.758 34.758c2.3438 2.3398 6.1367 2.3359 8.4805-0.003907 2.3398-2.3438 2.3438-6.1367 0.003907-8.4805l-34.758-34.758 34.758-34.758c1.125-1.125 1.7578-2.6523 1.7578-4.2422s-0.63281-3.1172-1.7578-4.2422z"/>
</svg>
