<svg xmlns="http://www.w3.org/2000/svg" viewBox="0 0 500 500"><g id="freepik--Floor--inject-51"><ellipse id="freepik--floor--inject-51" cx="252.62" cy="383.86" rx="216.95" ry="107" style="fill:#f5f5f5"></ellipse></g><g id="freepik--Shadows--inject-51"><ellipse id="freepik--Shadow--inject-51" cx="215.82" cy="430.08" rx="56.78" ry="32.78" style="fill:#e0e0e0"></ellipse><ellipse id="freepik--shadow--inject-51" cx="250.01" cy="379.3" rx="73.44" ry="42.4" style="fill:#e0e0e0"></ellipse><ellipse id="freepik--shadow--inject-51" cx="379.19" cy="418.73" rx="76.27" ry="44.04" style="fill:#e0e0e0"></ellipse><ellipse id="freepik--shadow--inject-51" cx="117.67" cy="417.4" rx="73.52" ry="42.45" style="fill:#e0e0e0"></ellipse></g><g id="freepik--Balloons--inject-51"><g id="freepik--balloons--inject-51"><path d="M455.36,348.05a3.4,3.4,0,0,0,3.94,4.28c.9-.22,2.32-1.26,1.37-2.27a1.76,1.76,0,0,0-1.59-.3,2.56,2.56,0,0,0-1.51.93,3.06,3.06,0,0,0,2.16,4.88,2.48,2.48,0,0,0,2.46-1.46,1.13,1.13,0,0,0-1.59-1.4,2.41,2.41,0,0,0-1.2,3,2.47,2.47,0,0,0,2.93,1.42c.28-.08,0-.52-.25-.49a1.91,1.91,0,0,1-2-.93,1.86,1.86,0,0,1,.28-2c.21-.27.66-.65,1-.54.2.06.2,0,.21.26a1.15,1.15,0,0,1,0,.26,1.33,1.33,0,0,1-.27.56,2.07,2.07,0,0,1-1.86.67c-1.61-.22-2.14-2.27-1.45-3.55a2,2,0,0,1,2-1.1c.62.11.21.77-.08,1a2.2,2.2,0,0,1-1.22.5c-2,.23-3.15-1.74-3-3.53,0-.16-.27-.46-.34-.21Z" style="fill:#e0e0e0"></path><path d="M454,346.82c-.73,3.41-1.31,6.84-2.16,10.23a95,95,0,0,1-3.25,10.41,113.3,113.3,0,0,1-9.73,19.22c-2,3.24-3.95,6.62-4.36,10.46,0,.35.4.85.56.32,2-6.76,6.42-12.29,9.59-18.49a98.36,98.36,0,0,0,7.63-20.25,63.39,63.39,0,0,0,2.05-11.92C454.34,346.49,454.05,346.58,454,346.82Z" style="fill:#e0e0e0"></path><path d="M450.79,347.48h0c.24-1.37,3.73-4.63,4.27-4.53s2.45,4.2,2.19,5.66h0a1.65,1.65,0,0,1-1.17,1.16,5.13,5.13,0,0,1-4.57-.8,1.65,1.65,0,0,1-.72-1.49Z" style="fill:#EEE9D6"></path><path d="M440.4,315.09c-1.82,10.46,4.08,25.1,14.37,29.47,11.32-1.13,21.68-12.4,23.51-22.86s-3.21-21.4-15.41-23.53S442.23,304.63,440.4,315.09Z" style="fill:#EEE9D6"></path><path d="M440.4,315.09c-1.82,10.46,4.08,25.1,14.37,29.47,11.32-1.13,21.68-12.4,23.51-22.86s-3.21-21.4-15.41-23.53S442.23,304.63,440.4,315.09Z" style="fill:#fff;opacity:0.30000000000000004"></path><path d="M450.82,312.14a12.37,12.37,0,0,0,.44,1.87c.65,1.74,1.8-1.1,2.06-1.61a12.71,12.71,0,0,1,.9-1.94c.33-.45,1-.13,1.41-.07s3.16.56,2.95-.53c-.05-.26-.49-.68-.69-.88-.59-.58-1.71-1.13-2-2-.21-.65.34-1.33.59-1.88.16-.34.94-1.78.08-1.79-.44,0-1.07.47-1.47.63-.67.29-1.34.62-2,.93-1.1.52-2.17-.77-3.1-1.19-.73-.32-1.16-.36-1.17.54a14.08,14.08,0,0,0,.19,1.59c.09.71.17,1.5-.58,1.87a6.54,6.54,0,0,0-1.84,1.3c-.51.54-.76,1,.16,1.16,1.11.21,2.27.07,3.38.32C450.82,310.66,450.71,311.63,450.82,312.14Zm13.48-3.72a.11.11,0,0,0-.05-.09c.42,1-1,1.68-1.5,2.34-.89,1.12,1.44.74,1.87.71a10,10,0,0,1,1.63-.18c.43,0,.48.59.61.9s.89,2.29,1.52,1.73a2,2,0,0,0,.3-.81c.15-.61.06-1.57.5-2.08s1-.31,1.46-.36c.29,0,1.54-.09,1.21-.66-.17-.3-.73-.52-1-.72-.46-.33-.94-.63-1.41-.94-.78-.51-.35-1.73-.45-2.51-.08-.6-.23-.91-.82-.55a9.8,9.8,0,0,0-1,.76c-.43.34-.92.7-1.46.36a5,5,0,0,0-1.58-.69c-.56-.12-1-.11-.7.56S464,307.68,464.3,308.42Zm-3.63,26.94c-.46-.33-.94-.64-1.41-.95-.78-.51-.36-1.73-.45-2.5-.08-.61-.23-.91-.82-.56a10.13,10.13,0,0,0-1,.76c-.43.34-.92.71-1.46.37a4.75,4.75,0,0,0-1.58-.69c-.57-.12-1-.11-.7.56s.57,1.48.84,2.23a.19.19,0,0,0-.05-.1c.42,1-1,1.69-1.5,2.35-.89,1.12,1.43.74,1.87.71a10,10,0,0,1,1.63-.18c.43,0,.48.59.61.89s.89,2.3,1.52,1.73a2,2,0,0,0,.3-.8c.15-.62.06-1.58.49-2.09s1-.3,1.47-.36c.29,0,1.54-.09,1.21-.66C461.5,335.78,460.93,335.55,460.67,335.36Zm-8.42-12.81c-.1-.4.18-.6.4-.9s1-.87.49-1.21a2.13,2.13,0,0,0-1.25-.08c-.27,0-.52-.07-.79-.07a.93.93,0,0,1-.86-.42c-.24-.28-.41-.61-.67-.87s-.61-.46-.81.07a8,8,0,0,0-.22,1,1.58,1.58,0,0,1-.33.76,2.89,2.89,0,0,1-1,.46c-.29.09-1,.14-1.15.47s.46.52.65.63a9.72,9.72,0,0,1,1.25.73.11.11,0,0,0-.08,0c.78.42.23,1.57.24,2.26,0,1.19,1.38-.4,1.62-.68s.36-.61.64-.65a2.53,2.53,0,0,1,1,.26c.26.09,1.76.72,1.76.21s-.34-.75-.5-1.08A4,4,0,0,1,452.25,322.55Zm19.52,4.62a7.72,7.72,0,0,1-.51-1.39c-.09-.64.4-.91.79-1.35s1.75-1.22,1-1.84c-.54-.43-1.35-.3-2-.34-.42,0-.81-.2-1.23-.25a1.52,1.52,0,0,1-1.31-.8,14.34,14.34,0,0,0-.92-1.5c-.51-.61-.88-.83-1.28,0a11.34,11.34,0,0,0-.52,1.52,2.34,2.34,0,0,1-.66,1.14,4.66,4.66,0,0,1-1.67.57c-.48.08-1.65.05-1.91.55s.65.9.93,1.11a14.16,14.16,0,0,1,1.86,1.37.19.19,0,0,0-.12-.07c1.17.81.11,2.54,0,3.63-.18,1.89,2.27-.4,2.69-.8s.67-.91,1.13-.93a4,4,0,0,1,1.58.58c.41.19,2.68,1.44,2.77.64C472.46,328.37,472,327.73,471.77,327.17Z" style="fill:#fff;opacity:0.30000000000000004"></path><path d="M476.51,327s-4.57,9.55-17.13,8.18c-12.11-1.31-19.55-16.15-17.67-24.79a25.32,25.32,0,0,0-1.31,4.68c-1.82,10.46,4.08,25.1,14.37,29.47,9.39-.94,18.1-8.84,21.85-17.47Z" style="fill:#EEE9D6;opacity:0.4"></path><path d="M441.19,261.88A3.39,3.39,0,0,0,443,267.4c.86.17,2.45-.07,2.23-1.29s-2.09-1.35-3-1a3,3,0,0,0-.39,5.32,2.62,2.62,0,0,0,2.81-.05,1.12,1.12,0,0,0-.55-2.06,2.38,2.38,0,0,0-2.51,2.18,2.47,2.47,0,0,0,2,2.51c.31.05.21-.46,0-.52a1.82,1.82,0,0,1-.27-3.44c.26-.12,1.18-.37,1.22.17,0,.32-.46.67-.72.79a2,2,0,0,1-1.95-.24c-1.24-.89-.92-2.82.12-3.71a2.18,2.18,0,0,1,1.06-.53,1.85,1.85,0,0,1,1.43.33c.45.46-.43.85-.76.91a2.34,2.34,0,0,1-1.2-.13c-1.85-.7-2-2.93-1.12-4.45.1-.17-.09-.53-.26-.33Z" style="fill:#e0e0e0"></path><path d="M432.63,343.59a116.33,116.33,0,0,1-2.24-13.25,73.23,73.23,0,0,1,0-13.57c.83-9,3.18-17.58,5.81-26.16,3-9.66,4.66-19.63,3.3-29.74-.07-.55-.63-.53-.61.05a79,79,0,0,1-3.08,26.56c-2.53,8.56-5.18,17-6.29,25.9a81.45,81.45,0,0,0,1,25.83c1.71,8.88,4,17.59,4.53,26.66a97,97,0,0,1-.25,14.86c-.47,5-1.66,9.95-2.2,15,0,.27.28.53.42.2,1.74-4.06,2.28-8.63,2.76-13a96.85,96.85,0,0,0,.6-13.08C436.22,360.9,434.49,352.29,432.63,343.59Z" style="fill:#e0e0e0"></path><path d="M436.07,261.25h0c.25-1.36,3.77-4.59,4.31-4.49s2.4,4.23,2.14,5.68h0a1.66,1.66,0,0,1-1.19,1.15,5.11,5.11,0,0,1-4.56-.84,1.65,1.65,0,0,1-.7-1.5Z" style="fill:#EEE9D6"></path><path d="M436.07,261.25h0c.25-1.36,3.77-4.59,4.31-4.49s2.4,4.23,2.14,5.68h0a1.66,1.66,0,0,1-1.19,1.15,5.11,5.11,0,0,1-4.56-.84,1.65,1.65,0,0,1-.7-1.5Z" style="opacity:0.30000000000000004"></path><path d="M426,228.76c-1.93,10.44,3.82,25.13,14.07,29.62,11.33-1,21.8-12.18,23.74-22.62s-3-21.43-15.17-23.69S428,218.32,426,228.76Z" style="fill:#EEE9D6"></path><path d="M462,241.06s-4.67,9.5-17.21,8c-12.09-1.44-19.38-16.35-17.41-25a24.37,24.37,0,0,0-1.36,4.67c-1.93,10.44,3.82,25.13,14.07,29.62,9.39-.85,18.18-8.66,22-17.25Z" style="opacity:0.1"></path></g><g id="freepik--balloons--inject-51"><path d="M67.5,389.49c-.11-3.43-.53-6.84-1-10.25a112.87,112.87,0,0,1-1.18-21.1,89.5,89.5,0,0,1,1.18-10.46c.59-3.43,1.4-6.81,1.87-10.25a56,56,0,0,0-.85-20c-1.61-7-5-14-5-21.3,0-.35-.43-.59-.46-.13a23.94,23.94,0,0,0,0,4.4,38.65,38.65,0,0,0,.88,4.78c.76,3.18,1.85,6.26,2.7,9.42a56.71,56.71,0,0,1,1.68,20.71c-.36,3.44-1.12,6.82-1.76,10.22a91.12,91.12,0,0,0-1.35,10,99.54,99.54,0,0,0,.66,20.63c.49,3.84,1.05,7.67,1.28,11.54.06,1,.07,2,.09,2.94a6,6,0,0,0,.4,2.46c.53.93.86.35.91-.37A28.29,28.29,0,0,0,67.5,389.49Z" style="fill:#e0e0e0"></path><path d="M64.55,390.15c.17.29.33.6.5.9.29.54.94,2.11,1.68,2.1s.48-.73.31-1.14a16.2,16.2,0,0,0-1.88-3.11c-1.26-1.82-2.65-3.52-4-5.27-.64-.83-1.29-1.65-1.91-2.49a65.78,65.78,0,0,1-6-9.37,34.14,34.14,0,0,1-1.93-4.64c-.58-1.74-.82-3.57-1.37-5.31-.09-.29-.45-.51-.54-.09a10,10,0,0,0,.43,4.38,28,28,0,0,0,1.7,4.78,57.7,57.7,0,0,0,5.7,9.4c1.12,1.55,2.26,3.07,3.39,4.62,1.25,1.73,2.64,3.39,3.86,5.13Z" style="fill:#e0e0e0"></path><path d="M48.23,363.09a3.39,3.39,0,0,1-3.72,4.47c-.91-.17-2.38-1.14-1.48-2.19A1.74,1.74,0,0,1,44.6,365a2.53,2.53,0,0,1,1.55.85,3.05,3.05,0,0,1-1.91,5,2.46,2.46,0,0,1-2.53-1.33A1.13,1.13,0,0,1,43.23,368a2.39,2.39,0,0,1,1.34,2.92,2.47,2.47,0,0,1-2.85,1.57c-.28-.08,0-.53.22-.51a1.91,1.91,0,0,0,2-1,1.88,1.88,0,0,0-.38-2c-.23-.25-.69-.61-1-.48-.2.07-.21.05-.2.27a1.17,1.17,0,0,0,0,.26,1.25,1.25,0,0,0,.3.54,2.07,2.07,0,0,0,1.89.58c1.6-.3,2-2.37,1.27-3.62a2,2,0,0,0-2.07-1c-.61.13-.17.78.13,1a2.22,2.22,0,0,0,1.24.44c2,.12,3.06-1.9,2.81-3.68,0-.15.25-.47.33-.23Z" style="fill:#e0e0e0"></path><path d="M52.76,362.29h0c-.3-1.35-3.95-4.43-4.48-4.31s-2.24,4.32-1.91,5.76h0a1.63,1.63,0,0,0,1.23,1.11,5.11,5.11,0,0,0,4.52-1,1.65,1.65,0,0,0,.64-1.53Z" style="fill:#EEE9D6"></path><path d="M61.51,329.43c2.35,10.35-2.8,25.27-12.87,30.15C37.28,359,26.37,348.29,24,337.93s2.13-21.53,14.21-24.27S59.17,319.07,61.51,329.43Z" style="fill:#EEE9D6"></path><path d="M61.51,329.43c2.35,10.35-2.8,25.27-12.87,30.15C37.28,359,26.37,348.29,24,337.93s2.13-21.53,14.21-24.27S59.17,319.07,61.51,329.43Z" style="fill:#fff;opacity:0.30000000000000004"></path><path d="M51.56,325.34c1.1-.31,2.27-.22,3.36-.49.91-.22.64-.65.1-1.16a6.39,6.39,0,0,0-1.9-1.21c-.77-.34-.73-1.13-.68-1.84a12.29,12.29,0,0,0,.11-1.6c0-.89-.48-.83-1.19-.48-.91.47-1.91,1.81-3,1.35-.68-.28-1.36-.58-2.06-.83-.4-.15-1.05-.59-1.49-.56-.86.06,0,1.45.17,1.79.28.54.86,1.19.68,1.84-.23.84-1.33,1.45-1.89,2.06-.18.2-.61.64-.65.91-.15,1.09,2.49.46,3,.37s1.06-.43,1.41,0a12.71,12.71,0,0,1,1,1.9c.28.49,1.57,3.27,2.14,1.5A15,15,0,0,0,51,327C51.05,326.49,50.89,325.52,51.56,325.34ZM38,321.7c.21-.68-.17-.68-.72-.53a4.79,4.79,0,0,0-1.55.77c-.53.37-1,0-1.48-.29a9.59,9.59,0,0,0-1-.71c-.61-.32-.74,0-.79.59-.06.78.42,2-.33,2.53-.45.33-.92.66-1.36,1-.25.2-.81.45-1,.76-.31.58.95.58,1.24.6.46,0,1.12-.1,1.48.28s.42,1.45.6,2.06a2.08,2.08,0,0,0,.34.79c.66.53,1.29-1.45,1.43-1.8s.14-.87.56-.93a9,9,0,0,1,1.64.1c.44,0,2.78.27,1.84-.81-.56-.63-2-1.24-1.62-2.26a.16.16,0,0,0,0,.1C37.55,323.21,37.81,322.46,38,321.7Zm3.29,29.75c-.3.58,1,.58,1.24.6.46,0,1.12-.1,1.48.29s.42,1.44.6,2.05a2,2,0,0,0,.34.79c.66.53,1.3-1.45,1.43-1.8s.14-.87.56-.93a9,9,0,0,1,1.64.1c.44,0,2.78.27,1.84-.81-.56-.63-2-1.24-1.62-2.26a.16.16,0,0,0-.05.1c.24-.76.5-1.51.73-2.27s-.17-.68-.72-.53a4.79,4.79,0,0,0-1.55.77c-.53.37-1,0-1.48-.29a9.59,9.59,0,0,0-1-.71c-.61-.32-.74,0-.79.59-.06.79.42,2-.33,2.53-.45.33-.92.66-1.36,1C42,350.89,41.49,351.14,41.33,351.45Zm8.36-13.13c-.14.34-.47.73-.45,1.11s1.5-.2,1.76-.31a2.59,2.59,0,0,1,1-.31c.29,0,.49.43.68.62s1.7,1.78,1.65.6c0-.69-.63-1.81.13-2.27a.09.09,0,0,0-.08,0,9,9,0,0,1,1.21-.8c.18-.12.76-.35.62-.65s-.88-.35-1.18-.42a2.92,2.92,0,0,1-1-.41,1.53,1.53,0,0,1-.37-.74,6.57,6.57,0,0,0-.28-1c-.22-.52-.46-.39-.8,0a9.79,9.79,0,0,0-.63.91.92.92,0,0,1-.84.45c-.26,0-.52.12-.78.12a2.13,2.13,0,0,0-1.25.14c-.5.36.33.92.55,1.19s.53.47.45.87A4.56,4.56,0,0,1,49.69,338.32Zm-19.42,6.59c.12.79,2.33-.57,2.73-.79a4.14,4.14,0,0,1,1.55-.65c.46,0,.85.59,1.17.87s3,2.54,2.73.66c-.16-1.08-1.31-2.76-.18-3.62a.19.19,0,0,0-.12.07A15,15,0,0,1,39.94,340c.27-.23,1.15-.69.88-1.15s-1.46-.4-1.94-.46a4.55,4.55,0,0,1-1.7-.48,2.42,2.42,0,0,1-.71-1.11,12.88,12.88,0,0,0-.6-1.49c-.44-.78-.8-.54-1.28.1a13.54,13.54,0,0,0-.84,1.54,1.5,1.5,0,0,1-1.27.86c-.41.08-.8.27-1.22.32-.63.07-1.43,0-2,.43-.75.66.67,1.41,1.06,1.8s.92.66.86,1.3a7.76,7.76,0,0,1-.43,1.42C30.63,343.63,30.17,344.3,30.27,344.91Z" style="fill:#fff;opacity:0.30000000000000004"></path><path d="M26.06,343.16s5,9.3,17.51,7.31c12-1.93,18.71-17.12,16.4-25.65a24,24,0,0,1,1.54,4.61c2.35,10.35-2.8,25.27-12.87,30.15-9.42-.47-18.52-7.92-22.7-16.35Z" style="fill:#EEE9D6;opacity:0.4"></path><path d="M59.21,296.28a3.39,3.39,0,0,1-1.51,5.6c-.85.21-2.45.06-2.3-1.18s2-1.46,2.93-1.13a3,3,0,0,1,.65,5.3,2.64,2.64,0,0,1-2.81.09,1.13,1.13,0,0,1,.45-2.09,2.39,2.39,0,0,1,2.62,2.05,2.48,2.48,0,0,1-1.93,2.61c-.31.07-.23-.44,0-.52a1.82,1.82,0,0,0,.1-3.45c-.26-.1-1.19-.31-1.2.23,0,.33.49.66.75.76a2,2,0,0,0,1.94-.34c1.19-.95.78-2.86-.31-3.7a2.2,2.2,0,0,0-1.09-.48,1.89,1.89,0,0,0-1.41.41c-.42.47.48.83.81.87a2.32,2.32,0,0,0,1.19-.19c1.81-.79,1.85-3,.89-4.5-.1-.16.07-.54.25-.34Z" style="fill:#e0e0e0"></path><path d="M64.29,295.39h0c-.32-1.35-4-4.39-4.52-4.27s-2.2,4.35-1.86,5.78h0A1.64,1.64,0,0,0,59.16,298a5.09,5.09,0,0,0,4.51-1.07,1.61,1.61,0,0,0,.62-1.53Z" style="fill:#EEE9D6"></path><path d="M64.29,295.39h0c-.32-1.35-4-4.39-4.52-4.27s-2.2,4.35-1.86,5.78h0A1.64,1.64,0,0,0,59.16,298a5.09,5.09,0,0,0,4.51-1.07,1.61,1.61,0,0,0,.62-1.53Z" style="opacity:0.30000000000000004"></path><path d="M72.71,262.43c2.45,10.33-2.55,25.3-12.56,30.29-11.37-.45-22.39-11.07-24.85-21.4s1.91-21.55,14-24.42S70.25,252.1,72.71,262.43Z" style="fill:#EEE9D6"></path><path d="M37.39,276.53s5.14,9.25,17.59,7.12c12-2,18.54-17.3,16.14-25.81a24.65,24.65,0,0,1,1.59,4.59c2.45,10.33-2.55,25.3-12.56,30.29-9.43-.37-18.6-7.73-22.87-16.12Z" style="opacity:0.1"></path></g></g><g id="freepik--character-3--inject-51"><g id="freepik--Character--inject-51"><g id="freepik--Bottom--inject-51"><polygon points="357.22 410.46 350.97 408.08 353.04 403.86 356.87 407.46 357.22 410.46"></polygon><path d="M363.74,399.21s.23,4.07.28,5.35-5.44,5.25-6.8,5.9l-.35-3c-1.17,1.17-1.88,2.65-3.15,4.84-1.06,1.83-2.42,5.28-5.33,7.63-4.31,3.48-11,5.23-17.85,5.44s-10.74-1.48-12.68-3-2.54-3.23-2.05-5S363.74,399.21,363.74,399.21Z" style="fill:#263238"></path><path d="M345.53,385.22l-.07-2.36c-1.26-.05-1.43,3.37-3.28,6.37a60.75,60.75,0,0,1-9.68,12.25c-6.95,6.28-13.16,10.22-16.26,13-4.16,3.78,3.08,9.86,14.24,9.29,5.54-.29,15.38-3,18.16-6.28s4.5-8.35,6.72-10.72,7-4.74,8.38-7.61c.77-1.58.38-5.28-.05-8.43-.41-2.89-.47-7.31-2.1-7l-.12,1.49c-.67,1.25-2.22,3.33-6.69,4.06C352.55,389.74,345.9,389.9,345.53,385.22Z" style="fill:#37474f"></path><path d="M351.2,389.47c-2.13-.19-4.42-.91-5.3-2.83,0,0,0,0,0-.07a5.43,5.43,0,0,1-1.46,4.54c-2,2.33-14.68,18.72-14.68,18.72s11.79-13.52,14-16.06c3.34-3.77,4.4-4.2,7.44-4.29Z" style="opacity:0.15"></path><path d="M348.39,393.82a.69.69,0,0,0,.75.61.68.68,0,1,0-.75-.61Z" style="opacity:0.15"></path><path d="M345.08,397.44a.68.68,0,1,0,.61-.75A.7.7,0,0,0,345.08,397.44Z" style="opacity:0.15"></path><path d="M341.78,401.06a.68.68,0,1,0,1.35-.14.68.68,0,1,0-1.35.14Z" style="opacity:0.15"></path><path d="M338.47,404.69a.68.68,0,1,0,.6-.75A.68.68,0,0,0,338.47,404.69Z" style="opacity:0.15"></path><path d="M335.16,408.31a.68.68,0,1,0,.61-.75A.68.68,0,0,0,335.16,408.31Z" style="opacity:0.15"></path><path d="M349.09,394a.25.25,0,0,0,.18-.08.28.28,0,0,0,0-.39c-.13-.13-3.4-3.31-7.69-3.09h0a.26.26,0,0,0-.25.28.28.28,0,0,0,.29.26c4-.21,7.25,2.9,7.28,2.93A.26.26,0,0,0,349.09,394Z" style="fill:#263238"></path><path d="M345.78,397.63a.25.25,0,0,0,.18-.08.28.28,0,0,0,0-.39c-.13-.13-3.4-3.31-7.69-3.08h0a.26.26,0,0,0-.25.28.27.27,0,0,0,.29.26c4-.21,7.25,2.9,7.28,2.93A.26.26,0,0,0,345.78,397.63Z" style="fill:#263238"></path><path d="M342.48,401.27a.38.38,0,0,0,.17-.08.27.27,0,0,0,0-.39c-.14-.14-3.4-3.32-7.7-3.09h0a.28.28,0,1,0,0,.55c4-.22,7.25,2.9,7.28,2.93A.3.3,0,0,0,342.48,401.27Z" style="fill:#263238"></path><path d="M339.17,404.89a.3.3,0,0,0,.17-.08.27.27,0,0,0,0-.39c-.14-.14-3.4-3.32-7.7-3.09h0a.28.28,0,0,0-.26.29.28.28,0,0,0,.29.26c4.05-.22,7.25,2.9,7.28,2.93A.3.3,0,0,0,339.17,404.89Z" style="fill:#263238"></path><path d="M335.86,408.51a.25.25,0,0,0,.17-.08.27.27,0,0,0,0-.39c-.14-.13-3.4-3.31-7.7-3.09h0a.28.28,0,0,0-.25.29.26.26,0,0,0,.28.26c4.05-.21,7.25,2.9,7.28,2.93A.27.27,0,0,0,335.86,408.51Z" style="fill:#263238"></path><path d="M408.34,430.14c1,5.33,2.21,8.79,4.49,11.71s6.37,3.26,9.41,2.62c4.27-.9,8.47-3.86,10.11-10,1-3.68.3-7.89-1.11-12.77Z" style="fill:#263238"></path><path d="M420.21,389.2c1.51-.06,2.81,7.09,4.53,14.21,1.85,7.62,4.73,11.67,6.12,16.79,1.93,7.1,1.82,10.42-.2,15.1S418.15,445.7,413,440c-4.22-4.68-5-10.34-5.57-17.61a185.28,185.28,0,0,0-1.86-18.46c-.94-5.39-1.94-10.6-.71-11.36.2.78.41,1.78.61,2.55.16.59.66,3.51,1.5,3.44a11.92,11.92,0,0,0-.23-2.05,2.43,2.43,0,0,1,.21-1.8,2.9,2.9,0,0,1,1.57-.94c1.44-.46,2.9-.9,4.38-1.22.74-.15,1.48-.28,2.23-.36a25.11,25.11,0,0,1,3.95-.3,1.33,1.33,0,0,1,.9.64,2.27,2.27,0,0,1,.18.81,6.08,6.08,0,0,0,.36,1.47c.08.21.26.45.47.37s.21-.28.19-.46c-.1-.88-.28-1.5-.44-2.51-.08-.47-.23-1.1-.29-1.57S420.29,389.66,420.21,389.2Z" style="fill:#37474f"></path><path d="M425.58,422.65a.54.54,0,0,1-.4.63.53.53,0,0,1-.63-.41.54.54,0,0,1,.4-.63A.53.53,0,0,1,425.58,422.65Z" style="opacity:0.15"></path><path d="M424.48,417.7a.53.53,0,1,1-1,.23.54.54,0,0,1,.4-.63A.53.53,0,0,1,424.48,417.7Z" style="opacity:0.15"></path><path d="M423.45,413a.53.53,0,0,1-.4.63.53.53,0,0,1-.23-1A.54.54,0,0,1,423.45,413Z" style="opacity:0.15"></path><path d="M422.42,408.45a.52.52,0,0,1-.4.63.53.53,0,0,1-.23-1A.53.53,0,0,1,422.42,408.45Z" style="opacity:0.15"></path><path d="M410.65,410.6a.54.54,0,0,1-.4.63.53.53,0,0,1-.63-.4.51.51,0,0,1,.4-.63A.52.52,0,0,1,410.65,410.6Z" style="opacity:0.15"></path><path d="M411.68,415.23a.54.54,0,0,1-.41.63.53.53,0,0,1-.22-1A.54.54,0,0,1,411.68,415.23Z" style="opacity:0.15"></path><path d="M412.71,419.89a.52.52,0,0,1-.4.63.53.53,0,0,1-.23-1A.52.52,0,0,1,412.71,419.89Z" style="opacity:0.15"></path><path d="M413.81,424.83a.53.53,0,0,1-.4.63.52.52,0,0,1-.63-.4.54.54,0,0,1,.4-.63A.53.53,0,0,1,413.81,424.83Z" style="opacity:0.15"></path><polygon points="418.5 426.67 410.32 392.25 412.25 391.98 418.5 426.67" style="opacity:0.15"></polygon><path d="M425.12,423H425c-3.56-.36-9.43.7-11.61,2.11a.27.27,0,1,1-.29-.45c2.31-1.49,8.23-2.57,11.95-2.2a.27.27,0,0,1,.24.3A.26.26,0,0,1,425.12,423Z" style="fill:#263238"></path><path d="M424,418.08a.23.23,0,0,1-.14,0c-2.79-.93-9.05.52-11.55,2.13a.27.27,0,0,1-.37-.08.27.27,0,0,1,.08-.37c2.6-1.68,9.07-3.17,12-2.18a.25.25,0,0,1,.17.33A.26.26,0,0,1,424,418.08Z" style="fill:#263238"></path><path d="M423,413.42a.22.22,0,0,1-.14,0c-2.8-.93-9.06.52-11.55,2.12a.26.26,0,0,1-.37-.07.27.27,0,0,1,.08-.38c2.59-1.67,9.06-3.17,12-2.18a.26.26,0,0,1,.16.34A.25.25,0,0,1,423,413.42Z" style="fill:#263238"></path><path d="M422,408.82a.23.23,0,0,1-.14,0c-2.79-.93-9.05.52-11.54,2.13a.27.27,0,0,1-.37-.08.26.26,0,0,1,.08-.37c2.59-1.68,9.06-3.17,12-2.18a.25.25,0,0,1,.17.33A.26.26,0,0,1,422,408.82Z" style="fill:#263238"></path><path d="M410.79,213c3.49,44.35,6.94,105.48,6.94,105.48.31,3.37,3.55,17.74,5.18,34.35,1.71,17.53,3.8,50.25,3.8,50.25s-12.95,6.7-22.88,3.38c0,0-10.65-55.28-15.74-75.93-4.82-19.55-12.36-56.6-12.36-56.6l-5.14,36.66s.69,12.64.31,21.48c-.44,10.29-7,59.72-7,59.72s-13.33,7.86-23.65,0c0,0-1.78-68.18-2.07-80.56-.57-24.27,2.27-71.32,3.15-102.65Z" style="fill:#263238"></path><path d="M394.05,264.79q1.4,15.93,3.1,31.85.84,8,1.75,15.91l.9,7.95.46,4c.15,1.33.42,2.64.62,3.95,1.75,10.53,4.44,29.64,6.35,40.13s3.94,21,6.11,31.42q-2.07-15.87-4.55-31.66c-1.64-10.53-4.21-29.65-6-40.16-.21-1.32-.49-2.62-.64-3.95l-.48-4-1-7.93c-.67-5.29-1.35-10.58-2.07-15.86Q396.47,280.61,394.05,264.79Z"></path><path d="M344.94,261.77c-1.12,9.92-1.7,19.89-2.13,29.85s-.82,20-.44,29.93.5,26.67.87,36.64.82,19.93,1.42,29.88q.24-15,.09-29.9c-.06-10-.24-26.67-.45-36.64l-.18-7.47-.05-1.87,0-1.85,0-3.73.19-14.95.24-14.94C344.62,271.74,344.78,266.76,344.94,261.77Z"></path><path d="M375.73,273.93l-4.33-24.29s-12-1.75-18.21-7.29c0,0,4,7.32,15.33,10.19L372.83,274l-2.24,36.59Z"></path></g><g id="freepik--Top--inject-51"><g id="freepik--Arm--inject-51"><path d="M341.77,185.58c-5.23,2.11-27.95,9.82-27.95,9.82L318,210.81s20.89-3.14,31.88-5.67c12.17-2.81,14.72-5.11,12.26-20.31Z" style="fill:#c8856a"></path><path d="M351.27,129.73c-11.89,3.86-14.15,10.31-13,24.36.85,10.66,3.54,31.49,3.54,31.49,9.4,5.39,15,7.46,21.83,6.78Z" style="fill:#f0f0f0"></path><g id="freepik--Beer--inject-51"><g id="freepik--Beers--inject-51"><g id="freepik--beer-bottle--inject-51"><path d="M305.49,222.54c0-.2-3.6-30.26-3.85-32.37s1.75-5.26,2.42-6.61c.9-1.81.61-4.14.52-7-.12-4.16,1-8,.95-11a1.12,1.12,0,0,1-.5-1c.07-.7.79-1,.77-1.22a6.12,6.12,0,0,1,6-.72c0,.17.81.34,1,1a.79.79,0,0,1,.06.22,1.2,1.2,0,0,1-.31.89c.63,3,2.66,6.44,3.52,10.51.59,2.81.85,5.15,2.15,6.69,1,1.16,3.65,3.74,3.9,5.86S326,220.1,326,220.1h0c.15,1.28-.7,2.68-2.59,3.89a18.91,18.91,0,0,1-14.53,1.73C306.8,225,305.64,223.82,305.49,222.54Z" style="fill:#37474f"></path><path d="M306.54,164.87c-.72-.25-1.12-.65-1.16-1.08v0c.21-.25.44-.4.43-.5a6.12,6.12,0,0,1,6-.72c0,.1.27.2.54.39v0c.05.44-.24.91-.88,1.32A6.43,6.43,0,0,1,306.54,164.87Z" style="fill:#263238"></path><path d="M305.51,166.73c0-.42,0-.83,0-1.22a3.06,3.06,0,0,0,.81.42,7.27,7.27,0,0,0,5.59-.67,2.61,2.61,0,0,0,.69-.6,10.92,10.92,0,0,0,.32,1.18.56.56,0,0,1-.05.08,2.47,2.47,0,0,1-.79.74,7.28,7.28,0,0,1-5.59.67A2.55,2.55,0,0,1,305.51,166.73Z" style="fill:#263238"></path><path d="M305.32,163.31a3.31,3.31,0,0,1,.25-2.29l0-.05a.94.94,0,0,1,.09-.12l.22-.22h0l.29-.21a5.88,5.88,0,0,1,4.53-.54l.34.14h0l0,0a2.26,2.26,0,0,1,.26.16l.12.1,0,0a3.43,3.43,0,0,1,.79,2.19c.05.43-.24.91-.89,1.32a6.41,6.41,0,0,1-4.94.59C305.76,164.15,305.37,163.75,305.32,163.31Z" style="fill:#37474f"></path><path d="M311,162.06c1.18-.76,1.06-1.74-.26-2.2a5.88,5.88,0,0,0-4.53.54c-1.17.75-1.06,1.74.27,2.2A5.94,5.94,0,0,0,311,162.06Z" style="fill:#455a64"></path><path d="M310.32,161.82c.84-.54.76-1.24-.18-1.57a4.23,4.23,0,0,0-3.23.38c-.84.54-.75,1.24.19,1.57A4.17,4.17,0,0,0,310.32,161.82Z" style="fill:#263238"></path><path d="M302.81,190l3.81,32.05c.11,1,1.09,1.82,2.75,2.39a17.5,17.5,0,0,0,13.36-1.59c1.47-.95,2.22-2,2.11-3,0,0-3.43-28.82-3.82-32-.17-1.48-2-3.48-3-4.66-.25-.28-.48-.53-.65-.74-1.18-1.41-1.52-2.73-2-5.27-.11-.62-.23-1.24-.35-1.81,0,0,0-.06,0-.09a3.59,3.59,0,0,0-.08-.35,2.28,2.28,0,0,0-1.46-1.13,8.5,8.5,0,0,0-6.51.77,2.25,2.25,0,0,0-1.16,1.47v.43c0,.58.05,1.2.09,1.84.13,2.58.12,4-.7,5.59-.12.24-.28.54-.46.87C303.91,186.19,302.63,188.54,302.81,190Z" style="fill:#EEE9D6"></path><path d="M302.81,190l3.81,32.05c.11,1,1.09,1.82,2.75,2.39a17.5,17.5,0,0,0,13.36-1.59c1.47-.95,2.22-2,2.11-3,0,0-3.43-28.82-3.82-32-.17-1.48-2-3.48-3-4.66-.25-.28-.48-.53-.65-.74-1.18-1.41-1.52-2.73-2-5.27-.11-.62-.23-1.24-.35-1.81,0,0,0-.06,0-.09a3.59,3.59,0,0,0-.08-.35,2.28,2.28,0,0,0-1.46-1.13,8.5,8.5,0,0,0-6.51.77,2.25,2.25,0,0,0-1.16,1.47v.43c0,.58.05,1.2.09,1.84.13,2.58.12,4-.7,5.59-.12.24-.28.54-.46.87C303.91,186.19,302.63,188.54,302.81,190Z" style="opacity:0.2"></path><path d="M322.32,222.82c3.27-2.1,2.95-4.83-.73-6.1A16.33,16.33,0,0,0,309,218.21c-3.27,2.1-2.94,4.84.73,6.11A16.38,16.38,0,0,0,322.32,222.82Z" style="opacity:0.1"></path><path d="M305.75,176.36c.08.56.6,1.06,1.53,1.39a8.46,8.46,0,0,0,6.51-.78c.83-.53,1.21-1.13,1.17-1.68a1.47,1.47,0,0,0-.08-.35,2.28,2.28,0,0,0-1.46-1.13,8.5,8.5,0,0,0-6.51.77,2.25,2.25,0,0,0-1.16,1.47A1.6,1.6,0,0,0,305.75,176.36Z" style="fill:#EEE9D6"></path><path d="M305.75,176.36c.08.56.6,1.06,1.53,1.39a8.46,8.46,0,0,0,6.51-.78c.83-.53,1.21-1.13,1.17-1.68a1.47,1.47,0,0,0-.08-.35,2.28,2.28,0,0,0-1.46-1.13,8.5,8.5,0,0,0-6.51.77,2.25,2.25,0,0,0-1.16,1.47A1.6,1.6,0,0,0,305.75,176.36Z" style="opacity:0.4"></path><path d="M314.6,226.45a19.48,19.48,0,0,0,2.71-.88,10.51,10.51,0,0,0,3.7-2.39,3.33,3.33,0,0,0,1-2.6s-3.6-30.26-3.85-32.38-2.23-4.72-3.05-6c-1.39-2.08-1-4.5-1.64-7.32-.75-3.59-1.76-6.56-2.42-9.23a.67.67,0,0,0-.25-1.06,1.93,1.93,0,0,0-.76-.23,1.17,1.17,0,0,0-.22-1.83c2.31-1.08,2-2.84-.9-2.93a5,5,0,0,1,1.81.22l.34.14h0l0,0a2.26,2.26,0,0,1,.26.16l.12.1,0,0a3.43,3.43,0,0,1,.79,2.19,1,1,0,0,1,0,.37,1.36,1.36,0,0,1,.59.69.79.79,0,0,1,.06.22,1.2,1.2,0,0,1-.31.89c.63,3,2.66,6.44,3.52,10.51.59,2.81.85,5.15,2.15,6.69,1,1.16,3.65,3.74,3.9,5.86S326,220.1,326,220.1h0c.15,1.28-.7,2.68-2.59,3.89A18.28,18.28,0,0,1,314.6,226.45Z" style="opacity:0.2"></path><path d="M305.19,164.32c.07-.18.42.68,1.43,1.05a8.43,8.43,0,0,0,4.19.25,8.68,8.68,0,0,1-4,.18C305.19,165.32,305.07,164.67,305.19,164.32Z" style="fill:#fafafa;opacity:0.1"></path><path d="M305.92,160.74a2,2,0,0,0-.49,1.52,2.68,2.68,0,0,0,.23,1.42c.2.29,1.37,1,3.56.75-1.61-.31-2.76-.57-3.17-1.2A2.49,2.49,0,0,1,305.92,160.74Z" style="fill:#fafafa;opacity:0.1"></path><path d="M303.59,189.94l3.85,32.37c.08.72.92,1.4,2.29,1.87a15.09,15.09,0,0,0,6.44.5c-6.56.1-6.61-2.76-7-5.72l-3.06-25.76c-.73-6.1,1.45-6.86,2.32-9.5s-.69-6.63-.51-10.48c.11-2.57.39-4.05.44-5.61a6.67,6.67,0,0,1-1-.07c-.08.87-.21,1.77-.34,2.7a36.66,36.66,0,0,0-.52,6.19c0,.48,0,.93.06,1.38.1,2.41.19,4.48-.73,6.34-.12.24-.29.54-.47.88C304.7,186.29,303.43,188.63,303.59,189.94Z" style="fill:#fafafa;opacity:0.2"></path></g></g></g><g id="freepik--Fingers--inject-51"><path d="M301.74,188.73c-1.73,1-4.18,5.24-3.8,7.29l4.47.06s-.68-5.23-.74-5.72A9.29,9.29,0,0,1,301.74,188.73Z" style="fill:#af6152"></path><path d="M300.92,192.87c-2.19-1.18-4.46,2.75-1.77,6-1.7.27-1.14,3.39.69,5.26-1.59.56-.47,4,1.5,5.57-1.33.17-.77,3.21,2.36,4.57,1.68.72,4.11-.83.33-4.18,3.16.58,1.77-4.52-1-5.21,4.13.63,1.56-4.49.14-5.25C305.63,198.44,305.33,195.25,300.92,192.87Z" style="fill:#c8856a"></path></g></g><g id="freepik--Chest--inject-51"><path d="M376,237.34c-2.75,0-5.59-.11-8.46-.33-23.44-1.76-26.8-10.37-26.83-10.45,0-.32.46-40,1.07-57.44.82-23.34,3.2-34.46,8.22-38.39,3.25-2.55,18-5.21,18.12-5.23l22.82.41,1.73.36a109.23,109.23,0,0,1,12.83,3.15,101.06,101.06,0,0,1,15.38,7.18,264.27,264.27,0,0,1-5,37.74c-.17.79-.41,1.83-.7,3.06-1.32,5.64-3.52,15.07-4,22.67-.73,12.21-.37,17.62.76,28.78C410.81,229.69,399.07,237.34,376,237.34Z" style="fill:#fafafa"></path><path d="M368.13,125.73l22.78.41,1.73.35a108.25,108.25,0,0,1,12.8,3.15,100.76,100.76,0,0,1,15.22,7.09,264.43,264.43,0,0,1-5,37.56c-.17.79-.41,1.83-.7,3.06-1.31,5.64-3.52,15.08-4,22.71-.73,12.18-.38,17.6.74,28.67-1.68,1.13-13.35,8.38-35.76,8.38-2.74,0-5.58-.11-8.44-.33-22.17-1.67-26.25-9.45-26.6-10.23,0-2.18.45-40.4,1-57.42.82-23.26,3.18-34.34,8.13-38.22,3.12-2.45,17.08-5,18-5.18m0-.46s-14.87,2.66-18.22,5.28c-5.16,4-7.48,15.4-8.3,38.57-.62,17.64-1.06,57.52-1.06,57.52s3.11,8.8,27,10.6c3,.23,5.81.33,8.48.33,24.64,0,36.25-8.61,36.25-8.61-1.1-10.8-1.52-16.38-.77-28.87.55-9.27,3.72-21.33,4.67-25.71a263.36,263.36,0,0,0,5-37.91,100.49,100.49,0,0,0-15.55-7.26A124.26,124.26,0,0,0,391,125.68l-22.87-.41Z" style="fill:#e0e0e0"></path></g><g id="freepik--arm--inject-51"><g id="freepik--character--inject-51"><g id="freepik--top--inject-51"><path d="M436.92,106.39s.4-6.2.64-9.11c.4-4.75,2-22,2.07-29.59a13.15,13.15,0,0,0-2.42-6.49c-3.33-3.42-4.61-4.25-6.93-7.52-1.82-2.56-3.57-3.39-3.18-4.07.5-.86,2.25-2.13,4.76-.94a15.25,15.25,0,0,1,4.5,2.64c-.34-1.07-.74-2.16-1.1-3.14-.55-1.47-1.11-3-1.8-4.4-1-2-1.37-2.85-1.8-3.82a22.81,22.81,0,0,1-2.26-10.27c0-.85.21-1.86,1-2.17a1.55,1.55,0,0,1,1.54.41c.5.48.75,1.13,1.23,1.62.64.65,1.41,1.2,2.1,1.79a4.94,4.94,0,0,0,1.74,1.1c1.12.33,2.39-.14,3.46.31s1.55,1.5,2.5,2a9.53,9.53,0,0,0,2.07.53c2.26.6,3.68,2.78,4.78,4.84a67.92,67.92,0,0,1,3,6.35,36.82,36.82,0,0,1,1.81,7.45,147.54,147.54,0,0,1,1.71,16.38c.83,12.62,1.06,24.76,1.22,35.46.07,5,.93,6.83-3.07,12.74a282.81,282.81,0,0,1-22,26.63c-6.38,6.85-11.85,12.11-14.13,18.23-16.6-10.42-10.06-31.62-10.06-31.62s25.84-20.78,28.67-25.32" style="fill:#c8856a"></path><path d="M440,51.73c4,1.49,7.12,4.11,7.93,7.7C448.05,55.25,444.55,51.15,440,51.73Z" style="fill:#af6152"></path><path d="M457,74.06a2.87,2.87,0,0,0-.43-.31l.11,1.58c.54.64.91,1.42.42,2.14-1.13,1.66-6.13,2.37-11.7-.26-4.85-2.29-6.58-4.92-6.59-6.47a1.69,1.69,0,0,1,.81-1.49l0-1.23-.23.08h0a2.78,2.78,0,0,0-1.69,2.63c0,2,1.91,5,7.23,7.47A17.1,17.1,0,0,0,454.14,80,5.41,5.41,0,0,0,458,78.09C458.39,77.53,459.06,76,457,74.06Z" style="fill:#263238"></path></g></g><path d="M458.12,105.55s-2.52,2.84-13.43-.11a15.44,15.44,0,0,1-7.73-5.12l-1.14,5.45s-7.9,8.53-12.41,12.36-7.19,6.31-10.33,8.24-5.36,2-7.49,2.84c-2.22,3.44-4.5,10.55.09,23.37,3.29,9.16,12,14,12,14,1.66-6,6.07-11.46,10.31-16.07s13.55-15,19.24-21.47,10.34-12.41,10.75-15.28A59.68,59.68,0,0,0,458.12,105.55Z" style="fill:#f0f0f0"></path></g><g id="freepik--chest--inject-51"><g id="freepik--Head--inject-51"><path d="M390.39,117.07c1.38-5.17,7.1-10.16,9.88-14.52,2.67-4.2,4.33-7.49,4.46-11.66.08-2.47-1.16-5.94-2.92-6.81,2.95-8.93-3.51-13.8-7.07-15a39.22,39.22,0,0,1-4.9-1.87c-1.9-1-2.2-2.64-3.67-4.14-2.53-2.58-7.14-3.06-9.23.3-1.61-2.53-4.09-2.7-7-2.23a4.89,4.89,0,0,0-4.26,5.17c-3.63-2.49-7.39-.11-8,2.11-.41,1.63-.19,3.06-1.41,4.45-1.38,1.56-3.69,1.32-4.27-.1-.61,2.33.14,4.21,2.71,4.31a5.39,5.39,0,0,0-1.08,4.44,4.9,4.9,0,0,0,4.11,3.78,7.55,7.55,0,0,0,3.56,6.7c3.71,2.2,7.93,3.2,12,4.44l4.86,1.49c.28.08,1.77.31,1.92.58Z" style="fill:#263238"></path><path d="M398.26,111a5,5,0,0,1-6.18-1l-1.7,16.19S376.66,138,369.25,143.35c-5.27-12.16-2.57-15.3-2-17.2l.27-6.21a24.51,24.51,0,0,1-4.84-.58,10.93,10.93,0,0,1-8-9.08,47.49,47.49,0,0,1,1.09-17.89,15.37,15.37,0,0,0,.62-4.3c0-3.87.86-6,2.14-9.15,4.86-3.23,15.86-3.35,25.07,3.48-1.66,5.7.17,10.52,4.19,13.12-.34,1.55-.9,5.49,1.69,5.66,1.86.12,2.2-2.2,4.29-4.08s6.6-2,8,1.17C403.82,102.74,402.52,109,398.26,111Z" style="fill:#c8856a"></path><path d="M367.51,119.94c6.59-.16,13-.15,16.82-4.56A40.91,40.91,0,0,0,389,108s-1.2,5.72-3.69,9.43c-1.92,2.87-7.56,4.74-17.87,4.68Z" style="fill:#af6152"></path><path d="M373.67,95a1.85,1.85,0,1,0,2-1.77A1.89,1.89,0,0,0,373.67,95Z" style="fill:#263238"></path><path d="M375.44,89.34,379.1,92a2.36,2.36,0,0,0-.54-3.22A2.2,2.2,0,0,0,375.44,89.34Z" style="fill:#263238"></path><path d="M358.35,88.54l4.47-.8a2.18,2.18,0,0,0-2.55-1.87A2.39,2.39,0,0,0,358.35,88.54Z" style="fill:#263238"></path><path d="M358.62,93a1.84,1.84,0,1,0,2-1.77A1.87,1.87,0,0,0,358.62,93Z" style="fill:#263238"></path><path d="M360.36,99.94l6.12,3.43L369.61,91C367.31,90,363.73,95.43,360.36,99.94Z" style="fill:#af6152"></path><path d="M373.32,107l-7.83.93a3.87,3.87,0,0,0,4.29,3.57A4.14,4.14,0,0,0,373.32,107Z" style="fill:#af6152"></path><path d="M372.27,108.13a4.85,4.85,0,0,1,1,.1,4.08,4.08,0,0,1-3.44,3.24,3.84,3.84,0,0,1-1.27-.08A3.62,3.62,0,0,1,372.27,108.13Z" style="fill:#ffa8a7"></path></g></g><path d="M370.8,145.55c5.29-3.06,18.46-15.18,20-21.44l2.12,2.3s-3.08,13.4-21.52,22.69Z" style="fill:#37474f"></path><path d="M366.06,144.71c-1.28-2.08-1.72-13.9.71-19.1h-3.21c-2.82,8.65-1.42,18.78.86,22.92Z" style="fill:#37474f"></path><path d="M365.5,152.65s-6.42,41.35-6.71,45.4,6,14,6.83,14.55,6.71-9,6.82-12.25-3.52-47.7-3.52-47.7Z" style="fill:#37474f"></path><path d="M366.06,144.71a8.9,8.9,0,0,1,4.74.84c.77,1.68.87,4.2.08,5.32s-2.28,2.82-3.89,2.61-2.81-2.39-2.86-4.37C364.09,147,366.06,144.71,366.06,144.71Z" style="fill:#455a64"></path><path d="M369.25,143.35c3.14-3,3.69-7.65,5.95-9.13s13.84-5.32,15.44-10.63l.32-3,7.25,6.8s-.73,4.49-6.27,10a37.85,37.85,0,0,1-12.68,8s-1.84-5.12-2.82-5.51S372.78,142.46,369.25,143.35Z" style="fill:#f0f0f0"></path><path d="M369.25,143.35c-1.32-2.81-1.06-8.81-1.73-10.19s-1.39-2.79-.28-7l.18-5.06-3.34,3.07c-5.36,4.75-5.1,14.62-3.94,17.66,1.73-3,5.18-7.35,5.74-6.49S366.72,141.83,369.25,143.35Z" style="fill:#f0f0f0"></path></g></g></g><g id="freepik--character-1--inject-51"><g id="freepik--character--inject-51"><g id="freepik--bottom--inject-51"><path d="M131,386.85l-2-18.32,21.42,1.38s-.33,9.94-.63,15.57c-.17,3.33,4.41,9.5,4.41,9.5s-10.07,5.28-15.46,3.43-8.24-8.41-8.17-9.84S131,386.85,131,386.85Z" style="fill:#ffbda7"></path><path d="M182.59,415.46c.33,0,.9,3.4-.91,4.88-2.09,1.71-8.27,4.56-16.51,3.72s-12.72-3.09-16.06-5.56-8-5.94-11.73-6.63c-3.46-.64-7.24-2-8.36-3s-1-5.31-1-5.31Z" style="fill:#263238"></path><path d="M131,386.81a1.31,1.31,0,0,0-1.23,1c-.23,1.2-.45,4.69-1,6.66-.71,2.75-1.12,8.36-.63,10.58s6.15,3.67,9.77,4.87a46.86,46.86,0,0,1,11.77,6.54c3.91,2.85,12.08,5.75,17.44,5.63,6.34-.15,13.45-2.15,15-4.87,2-3.36,3.38-7.26-6.09-11.09-1.79-.72-8.1-4-10.25-5.2-5.82-3.22-9.92-6.2-12.67-12a3.3,3.3,0,0,0-1.38-1.77A3.25,3.25,0,0,0,150,387c-1.56.23-7.8,1.12-9.21,1.77-1.26.57-3,1.24-3,2.72a4.15,4.15,0,0,0,.38,1.49c.11.3.21.71-.08.89s-.63,0-.88-.21a22.26,22.26,0,0,1-2.58-2.74,9,9,0,0,0-1.51-1.37,16,16,0,0,1-1.63-.92C130.89,388.15,131,387.51,131,386.81Z" style="fill:#455a64"></path><path d="M149.7,416.5c-1.66-1.21-3.42-2.38-5.19-3.42h0s11.16,6,15.58,3.1c2.84-1.85,1.44-4,1.36-4.71s10-5.8,12.79-6.15h0c.78.38,1.44.69,1.85.85,9.47,3.83,8.06,7.73,6.09,11.09-1.59,2.72-6.73,4.91-14.92,5C161.9,422.39,153.61,419.35,149.7,416.5Z" style="fill:#37474f"></path><path d="M160.64,409.44c5.88,2.05,3.41,3.09,1.77,3.33s-11.56-4.86-17.63-9.1c-6.33-4.43-10.36-9.32-12.71-10.95-.88-.6-1.83-1.35-2.67-2.05.14-1.18.24-2.25.35-2.82a1.31,1.31,0,0,1,1.23-1c0,.7-.09,1.34.49,1.86a16,16,0,0,0,1.63.92,9,9,0,0,1,1.51,1.37,22.26,22.26,0,0,0,2.58,2.74C142.39,399.54,154.76,407.4,160.64,409.44Z" style="fill:#37474f"></path><path d="M162,412a.66.66,0,0,1-.36-.11.51.51,0,0,1-.1-.75c1.62-1.88,9.37-6.39,13.67-6a.54.54,0,0,1,.53.57.56.56,0,0,1-.63.48c-4-.33-11.38,4.15-12.66,5.64A.59.59,0,0,1,162,412Z" style="fill:#263238"></path><path d="M156.84,409.2a.62.62,0,0,1-.37-.11.5.5,0,0,1-.09-.75c1.61-1.87,9.36-6.39,13.67-6a.54.54,0,0,1,.52.57.56.56,0,0,1-.63.48c-4-.32-11.37,4.15-12.66,5.64A.57.57,0,0,1,156.84,409.2Z" style="fill:#263238"></path><path d="M151.69,406.57a.63.63,0,0,1-.37-.12.49.49,0,0,1-.09-.74c1.62-1.88,9.37-6.4,13.67-6a.56.56,0,0,1,.53.58.57.57,0,0,1-.63.48c-4-.33-11.38,4.15-12.66,5.63A.64.64,0,0,1,151.69,406.57Z" style="fill:#263238"></path><path d="M146.92,403.54a.63.63,0,0,1-.37-.12.5.5,0,0,1-.1-.74c1.62-1.88,9.39-6.4,13.68-6a.53.53,0,0,1,.52.57.57.57,0,0,1-.63.48c-4-.32-11.38,4.15-12.66,5.64A.62.62,0,0,1,146.92,403.54Z" style="fill:#263238"></path><path d="M142.23,400.51a.69.69,0,0,1-.36-.11.5.5,0,0,1-.1-.74c2.22-2.66,10.35-6.47,14.65-6.11a.56.56,0,0,1,.53.58.58.58,0,0,1-.63.48c-3.88-.32-11.66,3.33-13.64,5.69A.64.64,0,0,1,142.23,400.51Z" style="fill:#263238"></path><path d="M88.8,394.62l4.71-15.87-21-3-1,15.36s-2.23,5.48-1,7.5,15.25,4.31,16.55,3S88.8,394.62,88.8,394.62Z" style="fill:#ffbda7"></path><path d="M86.64,429.24c-.68,4.92-1.84,8.09-4.17,10.73s-6.42,3-10.44,1.67-9.1-4.31-10-8.74-.45-7.33.79-11.82Z" style="fill:#263238"></path><path d="M71.56,391.09c-1.68-.1-1.35,6.65-2.77,13.2-1.52,7-4.31,9.65-5.64,15.39-1.51,6.57-1.29,9.61,1.29,14s12.37,9.67,17.73,4.5c4.37-4.22,4.89-9.44,5-16.18.09-7,.08-11.87.78-17.07.67-5,2.29-9.39.87-10.13-.16.72-.33,1.64-.5,2.35-.13.54-.48,3.24-1.43,3.15a9.29,9.29,0,0,1,.11-1.9,2,2,0,0,0-.35-1.67,7.91,7.91,0,0,0-2.7-1.32c-1.63-.48-4.56-1.09-6.23-1.43-.83-.17-1.67-.31-2.51-.4a7.75,7.75,0,0,0-2.15,0,1.31,1.31,0,0,0-1,.56,1.76,1.76,0,0,0-.14.75,4.41,4.41,0,0,1-.3,1.35c-.08.19-.26.41-.5.33a.41.41,0,0,1-.24-.44c0-.8.21-1.38.32-2.31,0-.43.17-1,.21-1.45S71.5,391.51,71.56,391.09Z" style="fill:#455a64"></path><path d="M63.66,417.83c-.23.94-1.65,7.21.38,8.63,2.21,1.54,3.8-3.33,3.8-3.33s5.46-.67,13.07,3.13c-.47,1,.5,4.57,2.69,4.12s3.51-7.68,3.53-7.78c-.11,6.46-.72,11.5-5,15.6-5.36,5.17-15.16-.08-17.73-4.5s-2.8-7.45-1.29-14C63.31,419,63.48,418.41,63.66,417.83Z" style="fill:#37474f"></path><path d="M68.42,423.64c-.19,2.42-3,1.23-2.93-2.21s2.92-11.26,3.3-17.14c.61-8.08,1.09-13.3,2.77-13.2,0,.08,0,.16,0,.25l-.45,3.36a12.66,12.66,0,0,0-.19,1.43c-.38,4.94-.59,14.53-1.41,19A65.77,65.77,0,0,0,68.42,423.64Z" style="fill:#37474f"></path><path d="M80,426.08a63.15,63.15,0,0,0,2.17-8.29c.89-4.4,3.86-13.2,5.34-17.94a10.63,10.63,0,0,0,.77-2.68c.15-.66.31-1.5.47-2.2,0-.05,0-.09,0-.14,1,.55.61,4.37,0,6.34s-1.28,4.09-2,6.93c-1.83,5.58-2.12,14-3.29,17.19S79.3,428.39,80,426.08Z" style="fill:#37474f"></path><path d="M81.06,426.48a.65.65,0,0,1-.22-.08A24.42,24.42,0,0,0,68,423.65a.7.7,0,0,1-.74-.46c-.07-.29.15-.54.49-.58a25.63,25.63,0,0,1,13.76,2.95.5.5,0,0,1,.21.73A.63.63,0,0,1,81.06,426.48Z" style="fill:#263238"></path><path d="M82.82,421.4a.48.48,0,0,1-.2-.07,30.33,30.33,0,0,0-14.41-3.07.71.71,0,0,1-.73-.48.49.49,0,0,1,.51-.56,31.41,31.41,0,0,1,15.23,3.25.51.51,0,0,1,.25.72A.62.62,0,0,1,82.82,421.4Z" style="fill:#263238"></path><path d="M69,413.32a.66.66,0,0,1-.5-.42.47.47,0,0,1,.43-.6c7.68-1.15,14.91,3,15.21,3.13a.49.49,0,0,1,.22.73.7.7,0,0,1-.86.11c-.07,0-7.09-4-14.23-2.94A.82.82,0,0,1,69,413.32Z" style="fill:#263238"></path><path d="M69.7,408.66a.65.65,0,0,1-.5-.4.47.47,0,0,1,.42-.61,23.67,23.67,0,0,1,15.52,3.13.47.47,0,0,1,.16.73.69.69,0,0,1-.86.07A22.57,22.57,0,0,0,70,408.67.66.66,0,0,1,69.7,408.66Z" style="fill:#263238"></path><path d="M70.57,403.44a.67.67,0,0,1-.5-.4.46.46,0,0,1,.41-.61c7.93-1.41,15.31,3.09,15.62,3.29a.48.48,0,0,1,.18.73.68.68,0,0,1-.86.08c-.07,0-7.21-4.4-14.57-3.08A.88.88,0,0,1,70.57,403.44Z" style="fill:#263238"></path><path d="M87.29,213.57c-4.1,42.56-7.19,100.54-7.19,100.54-.35,3.24-2.73,8.74-4.57,24.68-1.94,16.81-3.76,40.93-3.76,40.93s11.17,6.49,20.73,3.48c0,0,9.5-37.24,14.73-57,4.94-18.7,11.91-47.2,11.91-47.2l5.16,28.34s-.87,12.14-.66,20.64c.24,9.89,5.9,47.82,5.9,47.82s11.26,7.41,21.27,0c0,0,3-55.44,3.46-67.33,1-23.31-1-68.57-1.26-98.69Z" style="fill:#37474f"></path><path d="M119.14,279l5.43-30.24s11.55-1.48,17.54-6.7c0,0-3.93,7-14.84,9.54l-5.35,27.51,2.38,28.23Z" style="fill:#263238"></path><path d="M71.5,380.18c2.33,3.21,12.58,6.56,21.15,3.81l1.59-6.53c-6.47,1.93-17.3,0-22.47-4.22Z" style="fill:#455a64"></path><path d="M129.47,376.8c2.84,2.76,13.52,4.27,21.48.08l.44-6.71c-6,3-17,3-22.85-.26Z" style="fill:#455a64"></path></g><g id="freepik--top--inject-51"><g id="freepik--arm--inject-51"><path d="M178.18,166.64s22.26-12.72,25.17-14.65a24.76,24.76,0,0,0,2.83-2.69c4.3-4.55,10.29-6.85,16.15-8.64,1-.31,2-.6,3-.89a12.26,12.26,0,0,0,1.45-.47c.44-.19.82-.34,1.21.13a1.73,1.73,0,0,1,.32,1.21,5.09,5.09,0,0,1-2.08,3.59,25,25,0,0,1-3.67,2.18c-1,.53.18,1.05.75,1.21,2.81.8,7.27-.45,10-1.2a36.36,36.36,0,0,1,5.42-1.53,5.67,5.67,0,0,1,3.4.53c.7.38,1.21,1,.65,1.78a3.93,3.93,0,0,1-1.47,1.09c-1.11.62-2.09,1.18-2.46,2.48a10,10,0,0,1-.75,2.42c-.55.93-1.59,1.46-2.24,2.32A23.21,23.21,0,0,0,234.8,158a7.92,7.92,0,0,1-2.65,2,25.84,25.84,0,0,1-6.26,2.67,50.25,50.25,0,0,1-10.21,1.59,13.7,13.7,0,0,0-5.6,1.15c-1.73.93-4.65,3.6-6.52,5.13-20.1,16.7-25.34,18.34-29.67,18.53-3.06.13-5.84-1.15-12.49-8.29-8-8.64-21.55-26-21.55-26l-2.16-26.86c12,.23,15.59,6.74,23.59,16.5C167.71,152.23,178.18,166.64,178.18,166.64Z" style="fill:#ffbda7"></path><path d="M219.56,149.47c-1.95,2.95-6.08,5.84-8.22,6.45a11,11,0,0,0,5.32-1.95C219,152.1,219.42,150.81,219.56,149.47Z" style="fill:#f0997a"></path><path d="M137.68,127.23c4.45.15,9.78.46,14.92,5.78s26,33,26,33l7.7-4s-1.22,6.24,1.11,10.73,7.6,4.73,7.6,4.73a81.71,81.71,0,0,1-11.26,8.44c-6.64,4.14-10.93,3.94-12.83,3.24s-6-3-16.52-15.51-15.93-18.57-15.93-18.57Z" style="fill:#EEE9D6"></path><path d="M137.68,127.23c4.45.15,9.78.46,14.92,5.78s26,33,26,33l7.7-4s-1.22,6.24,1.11,10.73,7.6,4.73,7.6,4.73a81.71,81.71,0,0,1-11.26,8.44c-6.64,4.14-10.93,3.94-12.83,3.24s-6-3-16.52-15.51-15.93-18.57-15.93-18.57Z" style="fill:#fff;opacity:0.4"></path><path d="M178.56,166c-6.1,3.78-6.72,13.24-6.72,13.24S169.06,169.71,177,164Z" style="fill:#EEE9D6"></path></g><path d="M85.55,134.25s-3.12,4.47-4.35,13c-.39,2.73-1.46,9.13-.18,21.13,1.51,14.19,2.79,21.41,3,28.81.11,5-.45,18.66-.28,26.51,8.71,9.65,55.44,12.92,69.89-3.25-.13-4.79-.33-9.47-.5-17.39-.37-17.48-.91-31.79-2.18-45.92-1.61-18-9.21-26.51-13.23-29.92a123.67,123.67,0,0,0-15.86.18c-8,.85-15.37,1.33-17.28,1.76C99.21,130.37,85.55,134.25,85.55,134.25Z" style="fill:#EEE9D6"></path><g style="opacity:0.6000000000000001"><path d="M85.55,134.25s-3.12,4.47-4.35,13c-.39,2.73-1.46,9.13-.18,21.13,1.51,14.19,2.79,21.41,3,28.81.11,5-.45,18.66-.28,26.51,8.71,9.65,55.44,12.92,69.89-3.25-.13-4.79-.33-9.47-.5-17.39-.37-17.48-.91-31.79-2.18-45.92-1.61-18-9.21-26.51-13.23-29.92a123.67,123.67,0,0,0-15.86.18c-8,.85-15.37,1.33-17.28,1.76C99.21,130.37,85.55,134.25,85.55,134.25Z" style="fill:#fff"></path></g><path d="M117.64,67.44c-15.42-1-24.45,9.5-25.83,19-2.15,14.7,10.51,24.88,13.71,32.49l32.66-33.61C138,79.44,133.06,68.47,117.64,67.44Z" style="fill:#263238"></path><g id="freepik--head--inject-51"><path d="M140.15,112.56a12.45,12.45,0,0,1-9.25,8.68,38.6,38.6,0,0,1-4.19.14l.56,5.68c2.07,3.3,2,5.6,1,10.2-.28,1.39-1.27,5.67-2,6.39-2.64-1.63-4.92-4.58-6.75-5.26-10.11-3.72-14.2-8.66-14.2-8.66L104,110.51s-2.34,3-6.7.61c-3-1.67-5.88-6.59-3.59-10.94s6.9-2.93,8.26-1.7,2.15,3.58,3.19,3.16a3.86,3.86,0,0,0,2.39-2.8,23.4,23.4,0,0,0,.77-8.54,6.66,6.66,0,0,0,2.52-3.19c1.54-3.68,2.91-6.19,2.91-6.19,8.74-3.41,17.1-5.32,23-.18,2.4,3.62,3.07,12.37,3.77,17.38C141.34,103.57,141.46,108.13,140.15,112.56Z" style="fill:#ffbda7"></path><path d="M126.71,121.38c-4.59.05-13.93-1.45-16.56-3.84s-4-7.53-4-7.53.82,6.57,2.91,9.35,7,3.72,9.92,4.25a72.55,72.55,0,0,0,8,.66Z" style="fill:#f0997a"></path><polygon points="125.53 92.72 127.8 105.29 133.84 102.47 125.53 92.72" style="fill:#f0997a"></polygon><path d="M121.16,107.53l6.65,2a3.42,3.42,0,0,1-4.28,2.43A3.65,3.65,0,0,1,121.16,107.53Z" style="fill:#b16668"></path><path d="M123.53,112c.14,0,.28.05.42.08a3.17,3.17,0,0,0-2.9-3.32A3.59,3.59,0,0,0,123.53,112Z" style="fill:#f28f8f"></path><path d="M136.18,95.07c.42,1-.26,1.36-1.2,1.76s-1.79.66-2.21-.31a1.85,1.85,0,1,1,3.41-1.45Z" style="fill:#263238"></path><path d="M132.83,94.45a5.14,5.14,0,0,1,1.36-.59,4.05,4.05,0,0,1,1.42-.18,4.35,4.35,0,0,1,1.49.33s.08.12,0,.12a12.77,12.77,0,0,0-1.32,0,7.2,7.2,0,0,0-1.59.3,7,7,0,0,0-1.77.81c-.18.1-.53.33-.57.36s-.1-.1-.08-.14A3.22,3.22,0,0,1,132.83,94.45Z" style="fill:#263238"></path><path d="M132.13,88.77l4.28,1.47A2.37,2.37,0,0,0,135,87.29,2.22,2.22,0,0,0,132.13,88.77Z" style="fill:#263238"></path><path d="M117.08,96.93c-.28,1,.44,1.31,1.43,1.57s1.87.42,2.15-.6a1.86,1.86,0,1,0-3.58-1Z" style="fill:#263238"></path><path d="M120.32,95.86a4.76,4.76,0,0,0-1.43-.4,3.62,3.62,0,0,0-1.43,0A4.43,4.43,0,0,0,116,96s-.06.13,0,.12c.39-.07.73-.16,1.29-.22a7.31,7.31,0,0,1,1.62.09,6.94,6.94,0,0,1,1.87.55c.19.09.57.26.61.29s.09-.11.06-.16A3.38,3.38,0,0,0,120.32,95.86Z" style="fill:#263238"></path><path d="M119.08,90.44l-4,2a2.35,2.35,0,0,1,1-3.11A2.21,2.21,0,0,1,119.08,90.44Z" style="fill:#263238"></path></g><path d="M137.16,83.47c-2.84-4.8-9-8-11.33,0-5.57-5.83-13.54-3.84-14.14,4.59a27.74,27.74,0,0,0,2.47,13.83,11,11,0,0,1-6.79-8.83s-.09,5.25.82,7.2c0,0-11.91,1.4-16.52-3.49,0,0-3.51-13.58,3.45-17.94-.1-6.18,8.38-15.17,25.25-13.48s20.43,9.75,20.43,9.75a21.57,21.57,0,0,0-5.44-1.77,16.86,16.86,0,0,1,6.78,10.25,13.51,13.51,0,0,1-2.95,11.62S140,88.26,137.16,83.47Z" style="fill:#37474f"></path><path d="M94.94,79.93l-5.67-3.05a3.49,3.49,0,0,1,4.55-1.25A3,3,0,0,1,94.94,79.93Z" style="fill:#37474f"></path><path d="M95.61,79.5l-5.74,3a3.26,3.26,0,0,1,1.39-4.38A3.22,3.22,0,0,1,95.61,79.5Z" style="fill:#37474f"></path><path d="M122.62,78.88a.25.25,0,0,0,.15-.08.24.24,0,0,0,0-.34c-6.48-6-21.36-4.63-26.67-.44a.24.24,0,0,0,0,.35.25.25,0,0,0,.35,0c5.06-4,19.81-5.29,26,.41A.24.24,0,0,0,122.62,78.88Z" style="fill:#263238"></path><path d="M125,147.38c-5.34-2.71-18.88-13.87-20.73-19.91l-2,2.36s3.73,12.95,22.28,21.06Z" style="fill:#37474f"></path><path d="M129.63,146.31c1.14-2.11.94-13.7-1.71-18.66l3.14-.17c3.22,8.32,2.39,18.31.38,22.48Z" style="fill:#37474f"></path><path d="M130.6,154.05s8.58,31.72,9.08,35.68-5.09,14.07-5.91,14.6-7.05-8.47-7.33-11.62.82-38.48.82-38.48Z" style="fill:#37474f"></path><path d="M129.63,146.31a8.72,8.72,0,0,0-4.59,1.07c-.66,1.69-.63,4.16.2,5.21s2.39,2.64,4,2.35,2.62-2.49,2.56-4.43C131.68,148.4,129.63,146.31,129.63,146.31Z" style="fill:#455a64"></path><path d="M126.3,143.65c-4-2.42-3.89-5.8-6.18-7.12s-13.13-4.78-15-9.89l-.16-3-7.74,7.39s1,4.36,6.67,9.45a37.17,37.17,0,0,0,12.84,7.14s1.87-6.78,2.81-7.22S122.8,143,126.3,143.65Z" style="fill:#EEE9D6"></path><path d="M126.3,143.65c1.14-2.81.7-7.19,1.28-8.57s1-3.94-.31-8l-.41-4.2,3.61,3.23c5.5,4.36,5.77,14,4.8,17.07-1.85-2.84-5.46-6.91-6-6S128.69,142,126.3,143.65Z" style="fill:#EEE9D6"></path><path d="M126.3,143.65c-4-2.42-3.89-5.8-6.18-7.12s-13.13-4.78-15-9.89l-.16-3-7.74,7.39s1,4.36,6.67,9.45a37.17,37.17,0,0,0,12.84,7.14s1.87-6.78,2.81-7.22S122.8,143,126.3,143.65Z" style="fill:#fff;opacity:0.4"></path><path d="M126.3,143.65c1.14-2.81.7-7.19,1.28-8.57s1-3.94-.31-8l-.41-4.2,3.61,3.23c5.5,4.36,5.77,14,4.8,17.07-1.85-2.84-5.46-6.91-6-6S128.69,142,126.3,143.65Z" style="fill:#fff;opacity:0.4"></path><g id="freepik--arm--inject-51"><path d="M87.15,134.17C78,136.83,75,137.16,67.7,151c-6.51,12.29-13.53,24.62-17.9,38.31-2.45,7.68-3.88,8.87,3.2,15.38,12.49,11.48,20.91,17,25.62,21.88a18.93,18.93,0,0,1,4.49,7.32s9.36-25.11,3.23-22.82c-3.23,1.2-13.77-13.92-16.5-17.17l17.6-25.56C90.5,164,94.68,148.91,87.15,134.17Z" style="fill:#ffbda7"></path><path d="M87.43,133.72c-7.72,2-12.13,3.06-15.78,9.48-4.91,8.66-10.12,17.75-13.39,23.54a166.48,166.48,0,0,0-9.78,22.74c-1.5,4.81-2.67,8.27-.28,11.18s13.5,11.68,13.5,11.68-.08-4.41,4.79-8.74,8.72-2.76,8.72-2.76L70.27,194s11.9-17.52,15.34-21.67,7-12.31,6.86-22.16A30.94,30.94,0,0,0,87.43,133.72Z" style="fill:#EEE9D6"></path><path d="M87.43,133.72c-7.72,2-12.13,3.06-15.78,9.48-4.91,8.66-10.12,17.75-13.39,23.54a166.48,166.48,0,0,0-9.78,22.74c-1.5,4.81-2.67,8.27-.28,11.18s13.5,11.68,13.5,11.68-.08-4.41,4.79-8.74,8.72-2.76,8.72-2.76L70.27,194s11.9-17.52,15.34-21.67,7-12.31,6.86-22.16A30.94,30.94,0,0,0,87.43,133.72Z" style="fill:#fff;opacity:0.4"></path><g id="freepik--beer--inject-51"><g id="freepik--beers--inject-51"><g id="freepik--beer-bottle--inject-51"><path d="M107.1,243.71c0-.22.81-32.14.87-34.38s-2.28-5.37-3.1-6.72c-1.1-1.82-1-4.3-1.2-7.33-.27-4.38-1.81-8.34-2-11.51a1.2,1.2,0,0,0,.42-1.13c-.13-.72-.91-1-.91-1.2a6.15,6.15,0,0,0-6.22-.19c0,.18-.8.43-1,1.15a2,2,0,0,0,0,.24,1.33,1.33,0,0,0,.4.91c-.37,3.16-2.11,7-2.59,11.37-.34,3-.38,5.49-1.57,7.24-.88,1.31-3.37,4.27-3.43,6.52s-.86,34.39-.86,34.39h0c0,1.36,1,2.75,3,3.84a18.93,18.93,0,0,0,15,.46C106,246.39,107.07,245.07,107.1,243.71Z" style="fill:#37474f"></path><path d="M100.56,183.2c.72-.33,1.08-.78,1.09-1.25v0c-.24-.23-.49-.38-.49-.48a6.15,6.15,0,0,0-6.22-.19c0,.1-.26.23-.51.45v0c0,.46.33.93,1,1.31A6.4,6.4,0,0,0,100.56,183.2Z" style="fill:#263238"></path><path d="M101.8,185.05c-.07-.43-.12-.86-.15-1.27a2.64,2.64,0,0,1-.78.51,7.31,7.31,0,0,1-5.78-.17,3,3,0,0,1-.76-.57c0,.41-.12.84-.21,1.27l.06.08a2.61,2.61,0,0,0,.88.7,7.24,7.24,0,0,0,5.77.18A2.65,2.65,0,0,0,101.8,185.05Z" style="fill:#263238"></path><path d="M101.66,181.45a3.58,3.58,0,0,0-.47-2.39l0,0-.11-.12-.24-.21s0,0,0,0h0a2,2,0,0,0-.32-.2,5.84,5.84,0,0,0-4.67-.14,2.57,2.57,0,0,0-.33.18h0s0,0,0,0a1.64,1.64,0,0,0-.25.19l-.12.12,0,0a3.62,3.62,0,0,0-.59,2.36c0,.47.33.94,1,1.31a6.44,6.44,0,0,0,5.11.16C101.29,182.37,101.66,181.91,101.66,181.45Z" style="fill:#37474f"></path><path d="M95.73,180.66c-1.28-.68-1.25-1.73.06-2.33a5.84,5.84,0,0,1,4.67.14c1.28.68,1.25,1.73-.06,2.33A5.84,5.84,0,0,1,95.73,180.66Z" style="fill:#455a64"></path><path d="M96.41,180.35c-.91-.49-.89-1.24,0-1.67a4.24,4.24,0,0,1,3.33.1c.91.49.89,1.24,0,1.67A4.24,4.24,0,0,1,96.41,180.35Z" style="fill:#263238"></path><path d="M106.76,209.29l-.86,34c0,1-.94,2-2.57,2.78a17.62,17.62,0,0,1-13.81-.42c-1.59-.86-2.46-1.89-2.43-2.92,0,0,.77-30.61.86-34,0-1.58,1.69-3.84,2.67-5.19.24-.32.44-.6.59-.83,1.08-1.59,1.3-3,1.54-5.73.06-.67.12-1.32.19-1.94a.28.28,0,0,1,0-.09c0-.13,0-.25,0-.37a2.33,2.33,0,0,1,1.39-1.33,8.49,8.49,0,0,1,6.72.2,2.38,2.38,0,0,1,1.32,1.44l0,.32v.12c0,.62.06,1.28.09,1.94.1,2.73.24,4.17,1.24,5.82l.55.86C105.27,205.35,106.8,207.71,106.76,209.29Z" style="fill:#EEE9D6"></path><path d="M106.76,209.29l-.86,34c0,1-.94,2-2.57,2.78a17.62,17.62,0,0,1-13.81-.42c-1.59-.86-2.46-1.89-2.43-2.92,0,0,.77-30.61.86-34,0-1.58,1.69-3.84,2.67-5.19.24-.32.44-.6.59-.83,1.08-1.59,1.3-3,1.54-5.73.06-.67.12-1.32.19-1.94a.28.28,0,0,1,0-.09c0-.13,0-.25,0-.37a2.33,2.33,0,0,1,1.39-1.33,8.49,8.49,0,0,1,6.72.2,2.38,2.38,0,0,1,1.32,1.44l0,.32v.12c0,.62.06,1.28.09,1.94.1,2.73.24,4.17,1.24,5.82l.55.86C105.27,205.35,106.8,207.71,106.76,209.29Z" style="opacity:0.2"></path><path d="M89.94,245.58c-3.54-1.9-3.47-4.8.16-6.48a16.33,16.33,0,0,1,13,.39c3.54,1.9,3.47,4.8-.16,6.49A16.37,16.37,0,0,1,89.94,245.58Z" style="opacity:0.1"></path><path d="M102.46,195.2c0,.59-.51,1.17-1.43,1.6a8.51,8.51,0,0,1-6.73-.2c-.89-.48-1.34-1.08-1.35-1.66a1.5,1.5,0,0,1,0-.37,2.33,2.33,0,0,1,1.39-1.33,8.49,8.49,0,0,1,6.72.2,2.38,2.38,0,0,1,1.32,1.44A1.66,1.66,0,0,1,102.46,195.2Z" style="fill:#EEE9D6"></path><path d="M102.46,195.2c0,.59-.51,1.17-1.43,1.6a8.51,8.51,0,0,1-6.73-.2c-.89-.48-1.34-1.08-1.35-1.66a1.5,1.5,0,0,1,0-.37,2.33,2.33,0,0,1,1.39-1.33,8.49,8.49,0,0,1,6.72.2,2.38,2.38,0,0,1,1.32,1.44A1.66,1.66,0,0,1,102.46,195.2Z" style="opacity:0.4"></path><path d="M98.16,248.67a18.62,18.62,0,0,1-2.84-.68,10.6,10.6,0,0,1-4-2.16A3.56,3.56,0,0,1,90,243.19s.81-32.13.87-34.38,1.82-5.17,2.55-6.55c1.22-2.31.63-4.83,1-7.85.44-3.84,1.18-7,1.61-9.92a.72.72,0,0,1,.15-1.14,2,2,0,0,1,.76-.32,1.25,1.25,0,0,1,0-1.94c-2.47-.91-2.34-2.79.64-3.17a5,5,0,0,0-1.83.41,2.57,2.57,0,0,0-.33.18h0s0,0,0,0a1.64,1.64,0,0,0-.25.19l-.12.12,0,0a3.62,3.62,0,0,0-.59,2.36.87.87,0,0,0,.07.39,1.52,1.52,0,0,0-.54.78,2,2,0,0,0,0,.24,1.33,1.33,0,0,0,.4.91c-.37,3.16-2.11,7-2.59,11.37-.34,3-.38,5.49-1.57,7.24-.88,1.31-3.37,4.27-3.43,6.52s-.86,34.39-.86,34.39h0c0,1.36,1,2.75,3,3.84A18.28,18.28,0,0,0,98.16,248.67Z" style="opacity:0.2"></path><path d="M101.89,182.49c-.09-.18-.37.76-1.36,1.24a8.34,8.34,0,0,1-4.26.66,8.67,8.67,0,0,0,4.07-.18C102,183.55,102.05,182.85,101.89,182.49Z" style="fill:#fafafa;opacity:0.1"></path><path d="M100.81,178.8a2.18,2.18,0,0,1,.64,1.55,2.9,2.9,0,0,1-.1,1.52c-.17.32-1.3,1.14-3.57,1.12,1.62-.48,2.77-.86,3.13-1.56A2.69,2.69,0,0,0,100.81,178.8Z" style="fill:#fafafa;opacity:0.1"></path><path d="M106,209.27l-.87,34.38c0,.76-.8,1.55-2.16,2.18A15,15,0,0,1,96.4,247c6.71-.51,6.48-3.51,6.56-6.66l.69-27.35c.17-6.49-2.13-7.07-3.28-9.77s.09-7-.46-11.07c-.36-2.69-.78-4.22-1-5.84a6.45,6.45,0,0,0,1-.18c.17.91.39,1.85.61,2.82a38.75,38.75,0,0,1,1.12,6.45c0,.5,0,1,.07,1.45.12,2.54.23,4.73,1.35,6.59.14.25.34.55.56.89C104.47,205.54,106,207.88,106,209.27Z" style="fill:#fafafa;opacity:0.2"></path></g></g></g><path d="M81.26,220.57a11.3,11.3,0,0,1,1.3-5c.71-1.47.82,7.59.82,7.59l-.7,9.45,0,.06a17.51,17.51,0,0,0-3-5,6.54,6.54,0,0,1,.61-3.06A8,8,0,0,0,81.26,220.57Z" style="fill:#f0997a"></path><path d="M81.19,226.22a16.3,16.3,0,0,1,.67-1.93c.54-1.51.14-3.31.12-4.89a10.63,10.63,0,0,1,.94-4.7c.57-1.27,2.29-2,3.45-2.58l0,.4s0,5.26,0,5.7c1.77,5,7,6.17,10,9,2.82,2.65,1.68,5.26.09,5.12a25,25,0,0,1-4-.88,16.55,16.55,0,0,1,5.06,3.16c3.21,2.63,2,4.65.74,4.58-.8,0-7.71-1.81-7.71-1.81A21.29,21.29,0,0,1,94.78,240c1.49,1.36,1.31,3.5-.42,3.2a50.85,50.85,0,0,1-8.84-3,3.31,3.31,0,0,1-1.12-1,27.93,27.93,0,0,1-2.52-4.33,6.43,6.43,0,0,1-.87-2.13,14.79,14.79,0,0,1,.29-2.29c.13-1.38-.38-2.77-.14-4.13Z" style="fill:#ffbda7"></path><path d="M92.52,231.47a25.48,25.48,0,0,0-2.7-1.27,8.82,8.82,0,0,1-2.49-1.27c-.68-.64-1.36-1.39-2-2.1s-1.42-1.4-2.1-2.14a12.71,12.71,0,0,0,1.58,2.6,16.81,16.81,0,0,0,2,2.31,6.94,6.94,0,0,0,2.85,1.24C90.58,231.09,91.54,231.3,92.52,231.47Z" style="fill:#f0997a"></path><path d="M90.61,237.4c-.84-.39-1.69-.73-2.53-1a11.38,11.38,0,0,1-2.36-1.06,3.63,3.63,0,0,1-.75-.94l-.74-1.15q-.74-1.16-1.59-2.28a18.38,18.38,0,0,0,1,2.62c.2.43.42.84.64,1.25a4,4,0,0,0,1,1.22,7.75,7.75,0,0,0,2.66,1A16.64,16.64,0,0,0,90.61,237.4Z" style="fill:#f0997a"></path><path d="M70.27,194c-3.44-4.08-10.16-4.74-13.42-2.2,5.13-1.88,12.11,2.33,16,5.77Z" style="fill:#EEE9D6"></path></g></g></g></g><g id="freepik--character-2--inject-51"><g id="freepik--Chair--inject-51"><path d="M251.9,394.36h0V277.66h-4.73v116.7h0a1.11,1.11,0,0,0,.67,1.09,3.73,3.73,0,0,0,3.35,0A1.11,1.11,0,0,0,251.9,394.36Z" style="fill:#37474f"></path><path d="M285.46,378.21h0V267.48h-4.73V378.21h0a1.09,1.09,0,0,0,.67,1.08,3.67,3.67,0,0,0,3.35,0A1.09,1.09,0,0,0,285.46,378.21Z" style="fill:#37474f"></path><path d="M213.46,378.21h0V267.48h4.73V378.21h0a1.09,1.09,0,0,1-.67,1.08,3.67,3.67,0,0,1-3.35,0A1.09,1.09,0,0,1,213.46,378.21Z" style="fill:#37474f"></path><path d="M280.71,235.17c-17-9.79-44.45-9.79-61.41,0-8.48,4.89-12.71,11.31-12.71,17.73,0,1.31,0,6.56,0,7.87,0,6.42,4.23,12.84,12.71,17.73,17,9.79,44.45,9.79,61.41,0,8.48-4.89,12.71-11.31,12.71-17.72V252.9C293.42,246.48,289.19,240.06,280.71,235.17Z" style="fill:#455a64"></path><path d="M280.71,231.34c-17-9.79-44.45-9.79-61.41,0-8.48,4.9-12.71,11.31-12.71,17.73,0,1.32,0,6.56,0,7.88,0,6.41,4.23,12.83,12.71,17.73,17,9.79,44.45,9.79,61.41,0,8.48-4.9,12.71-11.32,12.71-17.73v-7.88C293.42,242.65,289.19,236.24,280.71,231.34Z" style="fill:#EEE9D6"></path><path d="M280.71,231.34c-17-9.79-44.45-9.79-61.41,0-8.48,4.9-12.71,11.31-12.71,17.73,0,1.32,0,6.56,0,7.88,0,6.41,4.23,12.83,12.71,17.73,17,9.79,44.45,9.79,61.41,0,8.48-4.9,12.71-11.32,12.71-17.73v-7.88C293.42,242.65,289.19,236.24,280.71,231.34Z" style="opacity:0.4"></path><path d="M219.3,266.8c-17-9.79-17-25.67,0-35.46s44.45-9.79,61.41,0,17,25.67,0,35.46S236.26,276.59,219.3,266.8Z" style="fill:#EEE9D6;opacity:0.5"></path><path d="M249.54,364c-10.43,0-20.87-2.29-28.81-6.88s-12.26-10.7-12.26-17.28,4.35-12.72,12.26-17.28c15.89-9.18,41.74-9.18,57.63,0,7.91,4.56,12.26,10.7,12.26,17.28s-4.35,12.72-12.26,17.28S260,364,249.54,364Zm0-46.12c-10,0-20.06,2.21-27.69,6.62-7.19,4.14-11.15,9.59-11.15,15.34s4,11.2,11.15,15.34c15.27,8.82,40.12,8.82,55.39,0,7.19-4.14,11.15-9.59,11.14-15.34s-3.95-11.2-11.14-15.34C269.6,320.05,259.57,317.84,249.54,317.84Z" style="fill:#37474f"></path></g><g id="freepik--character--inject-51"><g id="freepik--bottom--inject-51"><g id="freepik--Leg--inject-51"><path d="M300.42,302.61a108.8,108.8,0,0,0-10.91,10.09c-3,3.11-3.12,7.79-3.33,10.41-.56,7.13-2.35,9.45-1.34,17.25.22,1.7,1,5.12,1.2,6.5a2,2,0,0,1-1.9,2.48c-3.12.56-8.11-5.4-10.4-11.8a187.92,187.92,0,0,1-5.54-22.49c-.17-1.66.37-2,1-3.32a18.56,18.56,0,0,1,2.24-3.44c2.73-4.23,3.67-5.87,7.25-12.34Z" style="fill:#ffa8a7"></path><path d="M262,321.4a7.29,7.29,0,0,0-.89,2.32c-.11,1.42,3,6.2,4.2,7.94a11.41,11.41,0,0,1,2.11,8.18c-.3,4.56,1.59,9,4.44,12.84a31.34,31.34,0,0,0,15.31,10.6c7.46,2.52,10.22-1.18,10.22-1.18s2.42-3.57,1.06-5.1S262,321.4,262,321.4Z" style="fill:#263238"></path><path d="M272.12,307.29a2.27,2.27,0,0,0-2.56.84c-.2.28-1.69,3.61-2.88,5.35s-4.26,5-4.72,7.92c1.6,5.62,6.73,9.64,7.38,14.93s.57,11.4,8.49,18.05,16.23,7.55,19.27,5.92,2.84-4.84-1.17-11.05c-4.25-6.6-6.86-20.71-6.86-20.71a48.28,48.28,0,0,1-.63-6c-.1-1.93.52-4,.72-5.89a4.46,4.46,0,0,0-.31-2.69,4.52,4.52,0,0,0-2.19-1.6,19.61,19.61,0,0,0-4.12-1.52,6.65,6.65,0,0,0-4.29.41,31.82,31.82,0,0,1-2.73,1.64,3.81,3.81,0,0,1-3.95-.82c-1.5-1.46-.35-2.84-.09-3.79A11.35,11.35,0,0,1,272.12,307.29Z" style="fill:#37474f"></path><path d="M273.24,349.09s3.3-6.29,11.89-6,11.46,4.71,12.7,7.31c1.47,3.11,2.95,8.7-.64,10.2-3.88,1.62-8.3,1-15.19-2.71S273.24,349.09,273.24,349.09Z" style="fill:#fafafa"></path><path d="M275.49,323.25a.89.89,0,0,0,.78,0c1.35-.64,8.41-1.93,12.4,2,.54-.41.45-1.19-.2-2.3-4.71-3.16-11.39-2-13-1.21a.83.83,0,0,0-.37,1.14A.87.87,0,0,0,275.49,323.25Z" style="fill:#fafafa"></path><path d="M289.42,330.28a2.68,2.68,0,0,0-.43-2.38c-4.66-2.68-10.87-1.57-12.43-.82a.82.82,0,0,0-.36,1.13.89.89,0,0,0,.39.38.88.88,0,0,0,.79,0C278.68,328,285.38,326.78,289.42,330.28Z" style="fill:#fafafa"></path><path d="M292.62,342a4.94,4.94,0,0,0-1-3.14c-4.69-3-11.22-1.84-12.82-1.08a.82.82,0,0,0-.37,1.13.84.84,0,0,0,.4.39.89.89,0,0,0,.78,0C281,338.62,288.8,337.23,292.62,342Z" style="fill:#fafafa"></path><path d="M277.7,333.94a.89.89,0,0,0,.78,0c1.33-.63,8.25-1.88,12.26,1.86a3,3,0,0,0-.65-2.57c-4.65-2.68-10.86-1.56-12.42-.82a.81.81,0,0,0-.36,1.13A1,1,0,0,0,277.7,333.94Z" style="fill:#fafafa"></path><path d="M330.45,248.78C319.45,237,279,214.84,279,214.84s-32.66,7-16.76,42.79c0,0,21.74,7.08,32.85,11.42-4.43,4.29-7.69,8-12.26,16.94-6.21,12.11-8,14.81-8,14.81,1.22,5,12.65,10.65,16.81,10.68,0,0,31.29-27.67,37.54-35.51C333.93,270,339.21,258.18,330.45,248.78Z" style="fill:#455a64"></path><path d="M262.23,257.63l14.29-20.79a37.57,37.57,0,0,1-4.68,18l2.07,3.9,21.17,10.33Z" style="fill:#37474f"></path><path d="M282.82,286c-.63,1.23-1.25,2.41-1.85,3.56h0s8.24-10.09,11.6-13.31c4.06-3.9,12.19-4.48,12.19-4.48s-2.27-.62-9.68-2.72C290.65,273.34,287.39,277.08,282.82,286Z" style="fill:#37474f"></path></g><g id="freepik--leg--inject-51"><path d="M288,354.26s-6.35,22.07-4.92,31.06,3.27,13.93,6.68,21.42c.74,1.63,2.6,4.8,3.21,6.12a2.13,2.13,0,0,1-1.14,3.08c-2.94,1.52-12.83-.82-17.09-6.51s-6.67-15.87-9-20.12c-.86-1.6-1.64-3.2-2.34-4.87s0-2.75.31-4.22c.16-.72.56-4.52.56-4.52.19-3.91.08-7.7,0-11.35Z" style="fill:#ffa8a7"></path><path d="M258.26,390.67a7,7,0,0,0-.45,2.4c.14,1.39,4,5.46,5.46,6.92a11.23,11.23,0,0,1,3.49,7.53c.52,4.45,3.14,8.41,6.57,11.61A30.79,30.79,0,0,0,290,426.65c7.65,1.1,9.66-3,9.66-3s1.71-3.88.12-5.11S258.26,390.67,258.26,390.67Z" style="fill:#263238"></path><path d="M264.33,375.7c-.23,0-.63,0-1.09.8-.18.3-1,3.79-1.83,5.69s-3.22,5.62-3.15,8.48c2.53,5.15,8.2,8.12,9.77,13.11s2.58,10.91,11.41,15.93,17,4.4,19.65,2.29,1.89-5.18-3.08-10.46c-5.28-5.62-10.31-18.78-10.31-18.79a46.63,46.63,0,0,1-1.67-5.67c-.44-1.84-.2-3.92-.35-5.82a4.29,4.29,0,0,0-.78-2.54,4.47,4.47,0,0,0-2.39-1.15,19.92,19.92,0,0,0-4.25-.74,6.52,6.52,0,0,0-4.08,1.16,30.24,30.24,0,0,1-2.34,2.06,3.75,3.75,0,0,1-4-.08,3.23,3.23,0,0,1-1.6-3.38A8.37,8.37,0,0,1,264.33,375.7Z" style="fill:#37474f"></path><path d="M274.07,415.42s2.07-6.67,10.41-7.94,11.9,2.51,13.56,4.81c2,2.73,4.39,7.87,1.19,10-3.45,2.25-7.84,2.41-15.14.08S274.07,415.42,274.07,415.42Z" style="fill:#fafafa"></path><path d="M271.65,390.06a.9.9,0,0,0,.76-.12c1.18-.86,7.77-3.36,12.32-.3.45-.49.23-1.23-.6-2.19-5.11-2.22-11.35.11-12.78,1.15a.8.8,0,0,0-.15,1.16A.86.86,0,0,0,271.65,390.06Z" style="fill:#fafafa"></path><path d="M286.35,394.37a2.64,2.64,0,0,0-.84-2.22c-5-1.77-10.77.42-12.14,1.41a.8.8,0,0,0-.15,1.16.83.83,0,0,0,.44.3.86.86,0,0,0,.76-.12C275.57,394.06,281.83,391.71,286.35,394.37Z" style="fill:#fafafa"></path><path d="M291.52,405.1a4.85,4.85,0,0,0-1.54-2.85c-5.07-2.06-11.17.21-12.58,1.24a.81.81,0,0,0-.15,1.16.9.9,0,0,0,.45.3.87.87,0,0,0,.76-.13C279.71,403.92,287,401.2,291.52,405.1Z" style="fill:#fafafa"></path><path d="M275.68,400a.86.86,0,0,0,.76-.12c1.17-.85,7.63-3.28,12.17-.38a3,3,0,0,0-1.08-2.36c-5-1.77-10.78.41-12.15,1.4a.81.81,0,0,0-.15,1.16A.9.9,0,0,0,275.68,400Z" style="fill:#fafafa"></path><path d="M291.52,287.07c-7.69-11.43-24.34-32.93-24.34-32.93a27.62,27.62,0,0,0,5.92-7.68c3-5.56,6.85-22,5.2-31.89l-68.52,7.61c0,13,.29,19.49,2.6,26.85,3.58,11.38,7.52,18.41,22.76,33.14,13.8,13.34,20.61,20,27.63,26.57-3.39,10.64-2.15,18.5-1.7,30.69.29,8.08,1.81,29.11,1.81,29.11A36.17,36.17,0,0,0,286.74,370s5.75-39,7.38-48.89C297.08,303,298.52,297.46,291.52,287.07Z" style="fill:#455a64"></path><path d="M286.74,370c1.36-10.39,2.83-20.76,4.31-31.13l2.27-15.55c.75-5.18,1.74-10.34,2.35-15.51A41.14,41.14,0,0,0,296,300a21.43,21.43,0,0,0-1.85-7.42,41.46,41.46,0,0,0-3.94-6.69c-1.48-2.16-3-4.3-4.49-6.44-3-4.27-6.12-8.5-9.22-12.71l-9.33-12.64Q277,266.4,286.35,279c1.56,2.11,3.1,4.23,4.58,6.4a41.52,41.52,0,0,1,4.06,6.81,22.21,22.21,0,0,1,2,7.72,41.92,41.92,0,0,1-.3,7.93c-.65,5.23-1.66,10.37-2.44,15.55L291.81,339C290.17,349.31,288.51,359.65,286.74,370Z" style="fill:#37474f"></path><path d="M267.18,254.14a22.12,22.12,0,0,0,2-2.07s-2.89-3.6-11.15-5.66a24.34,24.34,0,0,0-12.42,0A25.1,25.1,0,0,1,267.18,254.14Z" style="fill:#37474f"></path></g></g><g id="freepik--top--inject-51"><path d="M299.89,50.43a2,2,0,0,0-2.66-.09A2.47,2.47,0,0,0,293,47.93s.69-2.77-1.67-3.61A2.47,2.47,0,0,0,288,45.48a2.92,2.92,0,0,0-2.38-3.34c-1.54-.4-3.13.41-4.4,5.33,0,0-2.34.85-3.06,2.24-.46.89-.92,2.28-1.1,5.74-.09,1.68,1.14,6.3,2.5,9s2.5,4.7,3,7.88c1,8.1.08,29.88-.17,36.56a7.88,7.88,0,0,1-.76,3.4c-.49,1.15-14.73,26.75-14.73,26.75s-1.28,25.93,10.56,29.6c1.07-4.57,19.48-44.33,21.16-48.41a22.06,22.06,0,0,0,1.79-11.29c-.47-7.58-.92-25.43-2.51-36.37h0a15.2,15.2,0,0,1,1.19-6.89,14.59,14.59,0,0,0,1.42-5.38c.33-3.19.49-5.83.49-5.83S301.18,51.47,299.89,50.43Z" style="fill:#ffa8a7"></path><path d="M260.5,138.8c3.33-.73,6.76-4.08,9.15-7.68s10.53-20.76,10.53-20.76l2.68-34.82a16.54,16.54,0,0,0,8.39,5.28c5.56,1.52,8.34,0,8.34,0s1.18,21.41,1.58,26.17,1.21,7.48-1.44,14.14-25.45,56-25.45,56S250.43,166,260.5,138.8Z" style="fill:#455a64"></path><path d="M298.41,59.29l-.2.22a2.22,2.22,0,0,1-1.86.8c-.53-.15-.81-.73-1-1.2a7.56,7.56,0,0,1-.16-2.47.18.18,0,0,0,0-.1c-.05-.06-.16,0-.22.07-.3.4-.49.86-.76,1.28a2.05,2.05,0,0,1-1.63.94c-1.37.08-1.83-1.55-1.87-2.64,0-.36,0-.72,0-1.09,0-.05,0-.11-.08-.11l0,0a1.66,1.66,0,0,0-.41.57,3.07,3.07,0,0,1-.45.62,1.71,1.71,0,0,1-.82.54c-.71.17-1.07-.46-1.36-1a5.61,5.61,0,0,1-.65-2.87s0-.06,0-.09l.26,0c2.66.14,3.38-2.49,2.48-3.09s-4.11-3.47-4.77-3.33a26.67,26.67,0,0,0-3.56,1l3.68-.69s4.54,3.44,4.39,4a2,2,0,0,1-1.93,1.54,16.15,16.15,0,0,1-3.9-.43c0,1-2.17,2.81-2.17,2.81a21.07,21.07,0,0,1,5.91,3A23.14,23.14,0,0,1,292.82,64a14.44,14.44,0,0,0-3.93-6.31,2,2,0,0,0,1-.49c.12,1.51.48,2.91,2.39,2.78a2.44,2.44,0,0,0,2.14-1.19,2.11,2.11,0,0,0,1.31,1.92,2,2,0,0,0,2.44-.72,2.79,2.79,0,0,0,.24-.53.29.29,0,0,0,0-.09S298.46,59.29,298.41,59.29Zm-14.72-6.75s.63.11,2.68.23a10.36,10.36,0,0,0-.41,1.34,2.25,2.25,0,0,1-.35.69.7.7,0,0,1-.16.14,18.84,18.84,0,0,0-2.59-1.4A2.07,2.07,0,0,0,283.69,52.54Z" style="fill:#f28f8f"></path><path d="M286,54.08h0S286.08,54,286,54.08Z" style="fill:#f28f8f"></path><g id="freepik--beer--inject-51"><g id="freepik--beers--inject-51"><g id="freepik--beer-bottle--inject-51"><path d="M297,74.47,274.21,51.16c-1.49-1.52-1.82-5.23-2.11-6.71-.39-2-2-3.65-3.87-5.88-2.63-3.22-4.07-7-6-9.33a1.12,1.12,0,0,1-1-.51c-.37-.59,0-1.31-.12-1.43a4.53,4.53,0,0,1,1.6-2.7,4.58,4.58,0,0,1,2.74-1.55c.12.12.85-.23,1.43.16a.9.9,0,0,1,.18.15,1.19,1.19,0,0,1,.31.89c2.29,1.95,6,3.48,9.19,6.18,2.18,1.87,3.81,3.57,5.79,4,1.47.32,5.17.74,6.66,2.26L311.81,60h0c.89.92,1.07,2.55.31,4.66A18.89,18.89,0,0,1,301.66,74.9C299.53,75.61,297.9,75.4,297,74.47Z" style="fill:#37474f"></path><path d="M262.68,28.12a1.48,1.48,0,0,1-1.59-.15l0,0c0-.32.1-.58,0-.65a4.53,4.53,0,0,1,1.6-2.7,4.58,4.58,0,0,1,2.74-1.55c.07.07.33,0,.66,0l0,0a1.5,1.5,0,0,1,.11,1.59A6.43,6.43,0,0,1,262.68,28.12Z" style="fill:#263238"></path><path d="M263,30.23q-.35-.53-.72-1a2.9,2.9,0,0,0,.9-.16,7.28,7.28,0,0,0,4-3.93,3,3,0,0,0,.19-.9c.3.25.62.5,1,.74,0,0,0,.06,0,.1a2.74,2.74,0,0,1-.18,1.06,7.26,7.26,0,0,1-4,3.94A2.55,2.55,0,0,1,263,30.23Z" style="fill:#263238"></path><path d="M260.75,27.63a3.38,3.38,0,0,1-1.2-2v-.05a.75.75,0,0,1,0-.15,1.76,1.76,0,0,1,0-.31v0h0c0-.11.06-.23.1-.35A6,6,0,0,1,263,21.58l.36-.09h0l.3,0h.2a3.39,3.39,0,0,1,2,1.25,1.52,1.52,0,0,1,.1,1.59,6.4,6.4,0,0,1-3.56,3.48A1.5,1.5,0,0,1,260.75,27.63Z" style="fill:#37474f"></path><path d="M264.5,23.17c.47-1.32-.22-2-1.55-1.59a6,6,0,0,0-3.26,3.19c-.47,1.32.22,2,1.55,1.58A5.88,5.88,0,0,0,264.5,23.17Z" style="fill:#455a64"></path><path d="M263.81,23.4c.34-.94-.16-1.45-1.1-1.13a4.19,4.19,0,0,0-2.33,2.27c-.33.94.16,1.44,1.11,1.13A4.23,4.23,0,0,0,263.81,23.4Z" style="fill:#263238"></path><path d="M275.05,50.34l22.57,23.08c.67.7,2,.77,3.63.22a17.48,17.48,0,0,0,9.62-9.41c.59-1.65.55-2.94-.14-3.64L288.17,37.51c-1.05-1.07-3.69-1.55-5.26-1.83l-1-.19c-1.79-.39-2.86-1.23-4.79-3l-1.38-1.22-.07-.05a3.11,3.11,0,0,0-.28-.23,2.25,2.25,0,0,0-1.85,0,8.42,8.42,0,0,0-4.68,4.58,2.24,2.24,0,0,0,0,1.87l.19.24.08.09c.37.46.77.93,1.18,1.41,1.69,2,2.51,3,2.86,4.86.05.26.1.59.16,1C273.59,46.62,274,49.27,275.05,50.34Z" style="fill:#EEE9D6"></path><path d="M275.05,50.34l22.57,23.08c.67.7,2,.77,3.63.22a17.48,17.48,0,0,0,9.62-9.41c.59-1.65.55-2.94-.14-3.64L288.17,37.51c-1.05-1.07-3.69-1.55-5.26-1.83l-1-.19c-1.79-.39-2.86-1.23-4.79-3l-1.38-1.22-.07-.05a3.11,3.11,0,0,0-.28-.23,2.25,2.25,0,0,0-1.85,0,8.42,8.42,0,0,0-4.68,4.58,2.24,2.24,0,0,0,0,1.87l.19.24.08.09c.37.46.77.93,1.18,1.41,1.69,2,2.51,3,2.86,4.86.05.26.1.59.16,1C273.59,46.62,274,49.27,275.05,50.34Z" style="opacity:0.2"></path><path d="M310.51,64.44c1.32-3.66-.61-5.63-4.29-4.4a16.39,16.39,0,0,0-9.06,8.85c-1.31,3.66.62,5.63,4.3,4.4A16.37,16.37,0,0,0,310.51,64.44Z" style="opacity:0.1"></path><path d="M269.05,37.71a2,2,0,0,0,2.06.17,8.48,8.48,0,0,0,4.69-4.59,2,2,0,0,0-.1-2,1,1,0,0,0-.28-.23,2.25,2.25,0,0,0-1.85,0,8.42,8.42,0,0,0-4.68,4.58,2.24,2.24,0,0,0,0,1.87A1.55,1.55,0,0,0,269.05,37.71Z" style="fill:#EEE9D6"></path><path d="M269.05,37.71a2,2,0,0,0,2.06.17,8.48,8.48,0,0,0,4.69-4.59,2,2,0,0,0-.1-2,1,1,0,0,0-.28-.23,2.25,2.25,0,0,0-1.85,0,8.42,8.42,0,0,0-4.68,4.58,2.24,2.24,0,0,0,0,1.87A1.55,1.55,0,0,0,269.05,37.71Z" style="opacity:0.4"></path><path d="M306.61,72a18.6,18.6,0,0,0,1.6-2.34,10.44,10.44,0,0,0,1.48-4.15,3.3,3.3,0,0,0-.78-2.69L286.12,39.52c-1.49-1.53-4.64-2.39-6.05-2.86-2.37-.8-3.57-2.94-5.76-4.81-2.79-2.38-5.4-4.12-7.55-5.83a.67.67,0,0,0-.84-.7,2,2,0,0,0-.75.29,1.16,1.16,0,0,0-1.29-1.32c1.18-2.26-.12-3.48-2.5-1.78a5,5,0,0,1,1.57-.93l.36-.09h0l.3,0h.2a3.39,3.39,0,0,1,2,1.25A.94.94,0,0,1,266,23a1.4,1.4,0,0,1,.89.18.9.9,0,0,1,.18.15,1.19,1.19,0,0,1,.31.89c2.29,1.95,6,3.48,9.19,6.18,2.18,1.87,3.81,3.57,5.79,4,1.47.32,5.17.74,6.66,2.26L311.81,60h0c.89.92,1.07,2.55.31,4.66A18.15,18.15,0,0,1,306.61,72Z" style="opacity:0.2"></path><path d="M261.27,28.5c-.06-.18.75.29,1.77,0a8.37,8.37,0,0,0,3.47-2.36,8.63,8.63,0,0,1-3,2.56C261.88,29.3,261.38,28.86,261.27,28.5Z" style="fill:#fafafa;opacity:0.1"></path><path d="M259.66,25.23a2.06,2.06,0,0,0,.54,1.5c.46.58.72.87,1.05,1s1.67-.06,3.28-1.57c-1.47.74-2.54,1.23-3.25,1A2.49,2.49,0,0,1,259.66,25.23Z" style="fill:#fafafa;opacity:0.1"></path><path d="M275.61,49.79l22.8,23.31c.5.52,1.57.55,2.95.09a15,15,0,0,0,5.41-3.53c-5.14,4.07-6.92,1.84-9-.29L279.64,50.82c-4.31-4.4-3-6.32-3.95-9s-4.6-4.83-6.81-8c-1.47-2.1-2.16-3.44-3.06-4.71a8.17,8.17,0,0,1-.84.56c.46.73.91,1.53,1.37,2.35a35.84,35.84,0,0,0,3.37,5.22l.88,1.06c1.55,1.84,2.89,3.44,3.28,5.47.06.26.11.6.17,1C274.28,46.22,274.69,48.85,275.61,49.79Z" style="fill:#fafafa;opacity:0.2"></path></g></g></g><path d="M280,65.19c-1.83-3.29-4-6.84-3.36-10.15a23.69,23.69,0,0,1,3.52-8c1.41-2.32,3.58.41,3.16,3s-1.17,6-.26,7.44,4.46,9.72,4.46,9.72Z" style="fill:#ffa8a7"></path><path d="M292.44,44l.32.12a10.15,10.15,0,0,0,2.8.36c-.05.15-.23.2-.36.28a1,1,0,0,0-.43.86,1.66,1.66,0,0,0,.35.92,3.66,3.66,0,0,0,1.76,1.28,10.48,10.48,0,0,0,2.15.49.77.77,0,0,0-.33.91,1.82,1.82,0,0,0,.6.83,7.35,7.35,0,0,0,2.15,1.24c.39.16.78.29,1.17.42a5.85,5.85,0,0,1,1.1.34c.29.16,3.26,3,3.26,3s-.18-2.23-.31-3.18l-.36-2.53A5.19,5.19,0,0,0,306,48a4.55,4.55,0,0,0-2.73-2,1.29,1.29,0,0,1-.39-.19,1.49,1.49,0,0,1-.31-.74,2.56,2.56,0,0,0-1-1.42,20.5,20.5,0,0,0-2.1-1,4.15,4.15,0,0,1-1.31-1.42,2.06,2.06,0,0,0-1.22-.75,5.92,5.92,0,0,0-1.83-.16,15.46,15.46,0,0,0-4.07.52.87.87,0,0,0-.5.28.81.81,0,0,0-.13.51A2.91,2.91,0,0,0,292.44,44Z" style="fill:#ffa8a7"></path><path d="M208,147.62s-5.75,9.24-3.48,24.7c2,13.6,3.05,21.83,3.28,27.07.37,8,1.38,34.55,1.38,34.55,20,11.12,63.59.51,73-17.36,0,0-3.75-4.63-4.26-13.2-.89-14.75-1.55-35.2-2.84-42.92-1.74-10.47-9.06-18.39-12.9-21.4l-11-1.78s-12.53-3.2-17.63-.53Z" style="fill:#263238"></path><path d="M210.75,146.44c-10.45,3.83-15,5.73-17.84,13.68s-7.1,27.32-9.36,39c-1.94,10-2.57,19,.06,23.19l20.6-9.94,8.44-31.69S218.54,156.14,210.75,146.44Z" style="fill:#455a64"></path><path d="M205.37,197.09c-1.65,2.56-3.66,3.64-8,6-4.07,2.16-8.81,4.25-11.1,8.9.52-4.22,2.71-6.4,7.76-9.58s12.48-7,12.48-7Z" style="fill:#37474f"></path><path d="M205.37,197.09c-1.65,2.56-3.66,3.64-8,6-4.07,2.16-8.81,4.25-11.1,8.9-2,4.1-4.25,7.54-2.64,10.37,1.1,1.94,7.25,4,12.76,3.35s7.75-3.09,13.48-6.83c6.08-4,9.7-6.24,9.7-6.24Z" style="fill:#455a64"></path><path d="M215.87,201.58c-2.41-2-3.05-4.15-6.48-5.66s-5.48-1.23-9.11-2.63-6.53-2-9.05-.89-1.95,2.57.13,3.6,5.62,2.29,8.13,3.75,4.9,2.19,5.21,5.15a130.91,130.91,0,0,1,.43,14.12c-.12,5-.68,9.14-.25,9.64s2.58.52,3.59-2.39,1.66-13.17,1.66-13.17,1.69,6.9,2.59,11.68,1.44,8.45,1.69,9.46,3.58-.13,3.75-3.82S216.48,216,216.48,216s3.36,4.61,5.52,7.6,4.87,7.1,5.73,8.09,2.83-1.13,2-4-5.27-9.53-5.27-9.53,5,4.22,5.8,4.59,3.18-.24,2-3.35c-.77-2.08-2.27-3.3-6.31-7s-4.16-5.45-5.48-7.22C218.77,202.86,217.63,203,215.87,201.58Z" style="fill:#ffa8a7"></path><path d="M207.12,204.19c3.74,1.21,7.09-.77,7.48-1.71C214.62,205,209.85,206.93,207.12,204.19Z" style="fill:#f28f8f"></path><path d="M232.58,221.28a1.63,1.63,0,0,1-2.27.08c-1-.66-3.47-2.93-4.6-4s-5-4.78-5-4.78l3.78,5.6s5,4.22,5.8,4.59A1.76,1.76,0,0,0,232.58,221.28Z" style="fill:#f28f8f"></path><g id="freepik--head--inject-51"><path d="M214.58,103.27c.54,6.36,6.52,16.64,11.18,23.84,0,0,8.55-3.48,14.91-4,12.72-1.09,18.44-12.9,20.42-25.51,2.27-14.48-8.81-19.58-21.53-18.49-8.63.73-22.08,6.1-21.18,14.15C215,94.4,214.23,99.17,214.58,103.27Z" style="fill:#263238"></path><path d="M219.65,123.34c3.75,1.12,5.52-1.39,5.52-1.39l2.14,18.86a14.57,14.57,0,0,0,7.14,5.87c4.69,1.62,9.72-.41,14.68,4.27,3.19-5.85,5-8.77-.85-13l-.63-5.59a34,34,0,0,0,6.42-.57c4-1,6.3-4.4,7.16-8.89,1.37-7.24,0-17.82-3.83-31.32-4.84-3.15-19.82-2.47-28.88,4.37,1.13,8-.82,11.83-.56,14.76a7.59,7.59,0,0,1-1.57,2.42c-1.38,1.42-2.87-1.82-4.22-3s-6.17-1.57-7.84,2.89S216.77,122.49,219.65,123.34Z" style="fill:#ffa8a7"></path><path d="M249.22,151.69c-2.48-1.26-7.85-3.34-10.21-.38s-3.68,3.82-5.43,3.45-9.15-5.74-11.84-8.25-2.28-3.79-2.28-3.79a20.07,20.07,0,0,0,3.72-5c1.27-3.15,1.72-4.84,3.21-5.07l.61,5.32s1.13,2.06,5.6,4.6S245.62,145.28,249.22,151.69Z" style="fill:#37474f"></path><path d="M249.13,151c1.29-1.39,4.08-4.82,6.43-4.35s3.45,1.78,3.42.55-2.43-5.49-4.37-8c-3.86-4.93-5.26-5.86-6.82-6l.49,4.74s3,3.35,2.85,5.45S249.25,148.92,249.13,151Z" style="fill:#37474f"></path><path d="M241,107.28c.41,1.07-1,.37-2.14.83s-1.73,1.91-2.15.84a2.31,2.31,0,0,1,4.29-1.67Z" style="fill:#263238"></path><path d="M256.08,106.11c.05,1.15-1,0-2.3.11s-2.24,1.26-2.29.11a2.31,2.31,0,0,1,4.59-.22Z" style="fill:#263238"></path><path d="M238.15,101.8,234,104.36a2.57,2.57,0,0,1,.84-3.46A2.4,2.4,0,0,1,238.15,101.8Z" style="fill:#263238"></path><path d="M255.52,102.2l-4.68-1.56a2.36,2.36,0,0,1,3-1.61A2.59,2.59,0,0,1,255.52,102.2Z" style="fill:#263238"></path><path d="M243.88,102l1.93,13.69,7.1-3C249.88,106.87,246.87,103,243.88,102Z" style="fill:#f28f8f"></path><path d="M227.75,109.66c1.56,8.59,4.69,11.14,7.82,11.34,4.22.28,6.51-2.32,12-4,3.63-1.09,7.68-.26,10.37.2.52.09,1.12.16,1.69.22a1.94,1.94,0,0,0,2.1-2,68.47,68.47,0,0,0-1-9.92l-.56-3.07s3,13.36,3.09,17.5-.58,7.38-3.56,10.21-9,4.78-17.4,4.07-11.83-4.14-13.19-6.88c-4.41-8.89-3.75-13.47-5.05-15.09S227.75,109.66,227.75,109.66Z" style="fill:#263238"></path><path d="M243.16,121.13l5.83.79a2.9,2.9,0,0,1-3.25,2.61A3.08,3.08,0,0,1,243.16,121.13Z" style="fill:#b16668"></path><path d="M243.92,122a3.2,3.2,0,0,0-.7.06,3,3,0,0,0,2.52,2.46,2.74,2.74,0,0,0,.95,0A2.71,2.71,0,0,0,243.92,122Z" style="fill:#f28f8f"></path><path d="M217.72,100.33a12.24,12.24,0,0,0-3.22,1,12.5,12.5,0,0,0,1,6l2.55-1.87Z" style="fill:#EEE9D6"></path><path d="M217.72,100.33a12.24,12.24,0,0,0-3.22,1,12.5,12.5,0,0,0,1,6l2.55-1.87Z" style="opacity:0.1"></path><path d="M222.69,98.9c6.57-6.57,26.95-9.39,35.1-5.94a22.44,22.44,0,0,1,1.44,5.59c-9.72-3.49-26.86-1.53-35.5,4.48Z" style="fill:#EEE9D6"></path><path d="M222.69,98.9c6.57-6.57,26.95-9.39,35.1-5.94a22.44,22.44,0,0,1,1.44,5.59c-9.72-3.49-26.86-1.53-35.5,4.48Z" style="opacity:0.1"></path><path d="M218.18,107.13s-6.29,40.53-6.58,44.51,5.85,13.77,6.7,14.26,6.57-8.84,6.69-12-3.46-46.76-3.46-46.76Z" style="fill:#EEE9D6"></path><path d="M218.18,107.13s-6.29,40.53-6.58,44.51,5.85,13.77,6.7,14.26,6.57-8.84,6.69-12-3.46-46.76-3.46-46.76Z" style="opacity:0.1"></path><path d="M218,99.76s2.49-2,4.67-.86c.76,1.65,1.54,5.39.76,6.49s-2.23,3.32-3.81,3.12-3-2.2-3-4.15A10.8,10.8,0,0,1,218,99.76Z" style="fill:#EEE9D6"></path><path d="M218,99.76s2.49-2,4.67-.86c.76,1.65,1.54,5.39.76,6.49s-2.23,3.32-3.81,3.12-3-2.2-3-4.15A10.8,10.8,0,0,1,218,99.76Z" style="fill:#fff;opacity:0.2"></path></g></g></g></g><g id="freepik--Table--inject-51"><g id="freepik--table--inject-51"><path d="M237.62,417.49c-12-6.95-31.57-6.95-43.61,0-6,3.48-9,8-9,12.59,0,.47,0,2.5,0,3,.09,4.49,3.1,8.95,9,12.37,12,7,31.57,7,43.61,0,5.95-3.43,9-7.93,9-12.43,0-.52,0-2.55,0-3.05C246.61,425.48,243.61,421,237.62,417.49Z" style="fill:#37474f"></path><path d="M194,442.67c-12-6.95-12-18.22,0-25.18s31.57-6.95,43.61,0,12,18.23,0,25.18S206.05,449.62,194,442.67Z" style="fill:#455a64"></path><path d="M218.67,430.59h0V322.19H213v108.4h0a1.37,1.37,0,0,0,.82,1.32,4.47,4.47,0,0,0,4.06,0A1.35,1.35,0,0,0,218.67,430.59Z" style="fill:#37474f"></path><g id="freepik--table--inject-51"><path d="M164.11,268.46c28.57-16.5,74.9-16.5,103.48,0C281.88,276.71,289,291.21,289,302v2.1c0,10.81-7.13,21.62-21.42,29.87-28.58,16.5-74.91,16.5-103.48,0-14.29-8.25-21.43-19.06-21.42-29.87V302C142.69,291.21,149.82,276.71,164.11,268.46Z" style="fill:#EEE9D6"></path><path d="M164.11,268.46c28.57-16.5,74.9-16.5,103.48,0C281.88,276.71,289,291.21,289,302v2.1c0,10.81-7.13,21.62-21.42,29.87-28.58,16.5-74.91,16.5-103.48,0-14.29-8.25-21.43-19.06-21.42-29.87V302C142.69,291.21,149.82,276.71,164.11,268.46Z" style="opacity:0.2"></path><path d="M164,264.89c28.58-16.5,74.91-16.5,103.49,0,14.28,8.25,21.42,19.06,21.41,29.87v5.39c0,10.81-7.13,21.62-21.41,29.87-28.58,16.5-74.91,16.5-103.49,0-14.29-8.25-21.42-20.56-21.41-31.38v-3.88C142.62,284,149.75,273.14,164,264.89Z" style="fill:#EEE9D6"></path><path d="M164,264.89c28.58-16.5,74.91-16.5,103.49,0,14.28,8.25,21.42,19.06,21.41,29.87v5.39c0,10.81-7.13,21.62-21.41,29.87-28.58,16.5-74.91,16.5-103.49,0-14.29-8.25-21.42-20.56-21.41-31.38v-3.88C142.62,284,149.75,273.14,164,264.89Z" style="fill:#fff;opacity:0.4"></path><path d="M164,264.89c28.58-16.5,74.91-16.5,103.49,0,14.28,8.25,21.42,19.06,21.41,29.87v5.39c0,10.81-7.13,21.62-21.41,29.87-28.58,16.5-74.91,16.5-103.49,0-14.29-8.25-21.42-20.56-21.41-31.38v-3.88C142.62,284,149.75,273.14,164,264.89Z" style="opacity:0.1"></path><path d="M267.53,324.64c28.57-16.5,28.57-43.25,0-59.75s-74.91-16.5-103.49,0-28.57,43.25,0,59.75S239,341.13,267.53,324.64Z" style="fill:#EEE9D6"></path><ellipse cx="215.85" cy="294.76" rx="73.17" ry="42.25" style="fill:#fff;opacity:0.85"></ellipse></g></g><g id="freepik--beer--inject-51"><path id="freepik--shadow--inject-51" d="M184.4,278.83c5.47,3.18,5.47,8.34,0,11.52s-14.35,3.18-19.82,0-5.48-8.34,0-11.52S178.92,275.65,184.4,278.83Z" style="fill:#EEE9D6;opacity:0.30000000000000004"></path><g id="freepik--beers--inject-51"><g id="freepik--beer-bottle--inject-51"><path d="M185,283.8V250.7c0-2.16-2.39-5.09-3.24-6.37-1.12-1.72-1.1-4.11-1.36-7-.38-4.2-2-8-2.29-11a1.13,1.13,0,0,0,.39-1.09c-.15-.7-.93-1-.93-1.14a6.26,6.26,0,0,0-6.16,0c0,.18-.78.44-.93,1.14a.91.91,0,0,0,0,.23,1.23,1.23,0,0,0,.42.87c-.29,3-1.91,6.8-2.29,11-.26,2.91-.24,5.3-1.36,7-.85,1.28-3.23,4.21-3.23,6.37v33.11h0c0,1.3,1,2.61,3.07,3.6a19.15,19.15,0,0,0,14.86,0C184,286.42,185,285.11,185,283.8Z" style="fill:#37474f"></path><path d="M177,225.79c.7-.34,1.05-.79,1.05-1.24v0c-.25-.22-.5-.35-.5-.45a6.26,6.26,0,0,0-6.16,0c0,.1-.25.23-.5.45v0c0,.44.35.89,1,1.23A6.53,6.53,0,0,0,177,225.79Z" style="fill:#263238"></path><path d="M178.28,227.53c-.08-.42-.14-.83-.18-1.22a3,3,0,0,1-.76.52,7.46,7.46,0,0,1-5.72,0,3.14,3.14,0,0,1-.76-.52c0,.39-.1.8-.18,1.22l.06.08a2.65,2.65,0,0,0,.88.65,7.46,7.46,0,0,0,5.72,0A2.44,2.44,0,0,0,178.28,227.53Z" style="fill:#263238"></path><path d="M178.06,224.07a3.43,3.43,0,0,0-.53-2.29l0,0-.11-.11a1.64,1.64,0,0,0-.25-.19l0,0h0a2.57,2.57,0,0,0-.33-.18,5.88,5.88,0,0,0-4.62,0,2.57,2.57,0,0,0-.33.18h0l0,0a1.64,1.64,0,0,0-.25.19l-.11.12,0,0a3.38,3.38,0,0,0-.54,2.29c0,.45.35.89,1,1.23a6.53,6.53,0,0,0,5.06,0C177.71,225,178.06,224.51,178.06,224.07Z" style="fill:#37474f"></path><path d="M172.17,223.48c-1.28-.62-1.28-1.62,0-2.25a5.93,5.93,0,0,1,4.62,0c1.28.62,1.28,1.62,0,2.24A6,6,0,0,1,172.17,223.48Z" style="fill:#455a64"></path><path d="M172.83,223.16c-.91-.44-.91-1.16,0-1.6a4.29,4.29,0,0,1,3.3,0c.91.44.91,1.16,0,1.6A4.29,4.29,0,0,1,172.83,223.16Z" style="fill:#263238"></path><path d="M168.05,286.1c-3.54-1.72-3.54-4.52,0-6.24a16.67,16.67,0,0,1,12.86,0c3.55,1.72,3.55,4.52,0,6.24A16.58,16.58,0,0,1,168.05,286.1Z" style="opacity:0.1"></path><path d="M176.27,288.83a18.16,18.16,0,0,1-2.83-.56,10.45,10.45,0,0,1-4-2,3.36,3.36,0,0,1-1.34-2.5V250.7c0-2.17,1.67-5,2.36-6.37,1.15-2.26.51-4.67.77-7.58.33-3.71,1-6.82,1.34-9.59a.69.69,0,0,1,.12-1.11,1.9,1.9,0,0,1,.74-.32,1.18,1.18,0,0,1,0-1.87c-2.46-.81-2.38-2.62.56-3.07a5,5,0,0,0-1.8.45,2.57,2.57,0,0,0-.33.18h0l0,0a1.64,1.64,0,0,0-.25.19l-.11.12,0,0a3.38,3.38,0,0,0-.54,2.29.88.88,0,0,0,.09.38,1.39,1.39,0,0,0-.52.76.91.91,0,0,0,0,.23,1.23,1.23,0,0,0,.42.87c-.29,3-1.91,6.8-2.29,11-.26,2.91-.24,5.3-1.36,7-.85,1.28-3.23,4.21-3.23,6.37v33.11h0c0,1.3,1,2.61,3.07,3.6A18.57,18.57,0,0,0,176.27,288.83Z" style="opacity:0.2"></path><path d="M178.3,225.06c-.08-.17-.34.75-1.31,1.24a8.62,8.62,0,0,1-4.2.75,8.84,8.84,0,0,0,4-.29C178.42,226.08,178.47,225.4,178.3,225.06Z" style="fill:#fafafa;opacity:0.1"></path><path d="M177.14,221.55a2,2,0,0,1,.67,1.47,2.59,2.59,0,0,1-.06,1.46c-.16.32-1.26,1.14-3.49,1.18,1.59-.5,2.71-.9,3.05-1.59A2.5,2.5,0,0,0,177.14,221.55Z" style="fill:#fafafa;opacity:0.1"></path><path d="M183,250.7v33.1c0,.73-.76,1.52-2.08,2.16a15.36,15.36,0,0,1-6.44,1.28c6.62-.69,6.33-3.58,6.33-6.61V254.3c0-6.24-2.29-6.74-3.49-9.3s-.09-6.77-.73-10.63c-.43-2.58-.88-4-1.12-5.6a6.56,6.56,0,0,0,1-.2c.19.87.43,1.77.67,2.69a35.6,35.6,0,0,1,1.26,6.18c0,.48.08.94.12,1.4.18,2.43.34,4.54,1.49,6.3.15.23.36.51.58.83C181.43,247.16,183,249.36,183,250.7Z" style="fill:#fafafa;opacity:0.2"></path></g></g></g><g id="freepik--Pizza--inject-51"><path id="freepik--shadow--inject-51" d="M196.32,282.11c-19.28,11.13-19.28,29.17,0,40.3s50.53,11.13,69.8,0,19.28-29.17,0-40.3S215.59,271,196.32,282.11Z" style="fill:#EEE9D6;opacity:0.30000000000000004"></path><g id="freepik--Plate--inject-51"><path d="M265.11,279.81c-18.91-10.91-49.56-10.91-68.47,0h0v-2c-9.88,5.7-14.59,13.27-14.14,20.74-.45,7.48,4.26,15,14.14,20.75,18.91,10.92,49.56,10.92,68.47,0S284,290.73,265.11,279.81Z" style="fill:#e0e0e0"></path><path d="M265.11,277.85c18.91,10.91,18.91,28.61,0,39.52s-49.56,10.92-68.47,0-18.9-28.61,0-39.52S246.2,266.93,265.11,277.85Z" style="fill:#fafafa"></path><path d="M207.66,281.65c-13,7.5-13,19.66,0,27.16s34.06,7.5,47.05,0,13-19.66,0-27.16S220.66,274.15,207.66,281.65Z" style="fill:#e0e0e0"></path><path d="M209.26,282.57c-12.1,7-12.11,18.33,0,25.32s31.74,7,43.85,0,12.11-18.33,0-25.32S221.37,275.58,209.26,282.57Z" style="fill:#fafafa"></path></g><path d="M187,296.36c-.53,4,1.22,7.85,2.92,11.48a11.84,11.84,0,0,0,1.94,3.18,11.34,11.34,0,0,0,2.9,2l6.06,3.37a4.4,4.4,0,0,0,1.83.69c1.31.08,2.25-1.13,3.33-1.88,8.26-5.77,25.36-16.26,25.36-16.26s.44,2.33.56,3.1q.63,4.14,1,8.31c.26,2.84.35,5.94-1.28,8.29-.63.89-1.52,1.7-1.66,2.79a3,3,0,0,0,2.09,3,8.75,8.75,0,0,0,3.85.31,50.14,50.14,0,0,0,7.45-.86c5.78-1.24,10.91-4.43,15.91-7.57-1.57-1.72-3.82-2.61-6-3.55a72.28,72.28,0,0,1-18.11-12.14c7.41.45,23.34,1.41,34,1.23a5.91,5.91,0,0,0,2.83-.71,3,3,0,0,0,1.44-3.83,6.89,6.89,0,0,0-1.4-2q-4.63-5.22-9.28-10.42a21.12,21.12,0,0,0-3.33-3.22,20.8,20.8,0,0,0-4.94-2.36c-5.42-2-11-4.08-16.79-3.89a2.06,2.06,0,0,0-1.07.24,2.12,2.12,0,0,0-.75,1.29c-1.69,6.3,0,13.26-2.34,19.34a2.16,2.16,0,0,1-.89,1.21c-.52.26-1.32-.26-1.87-.43-5.5-1.73-10.82-3.11-16.31-4.84a35.14,35.14,0,0,1-6.21-2.4c-2.1-1.14-4-2.7-6.17-3.66C195.54,283.26,187.91,289.79,187,296.36Z" style="opacity:0.1"></path><path d="M230.89,297.05l.1,1.68a57.11,57.11,0,0,0,8,.61c5.14.09,27.49.93,28.56.24,1.69-1.11-.36-3.68-.36-3.68H231.75Z" style="fill:#ffbda7"></path><path d="M215.64,306.45c.81-.51,6.92-4.15,7.73-4.67,1.3-.84,2.59-1.68,3.83-2.63.48-.36.9-.72.42-2.18a7.9,7.9,0,0,0-1.47-.38,10.66,10.66,0,0,0-4.76.66c-3.36,1.08-6.56,2.59-9.84,3.89a35.57,35.57,0,0,0-7.15,3.34,28.72,28.72,0,0,0-4,3.45,4.79,4.79,0,0,0-1.67,2.58c-.2,1.46.49,3.82,2,4A125.2,125.2,0,0,0,215.64,306.45Z" style="fill:#ffbda7"></path><path d="M258.56,281a3.94,3.94,0,0,1,3.47-.12,6.55,6.55,0,0,1,2.18,1.63c.89,1,2,.94,4.54,2.74a6.33,6.33,0,0,1,2.89,3.79c.4.82.14,1.89.43,2.76a26.64,26.64,0,0,0,1.54,2.43,3.92,3.92,0,0,1,.36,2.62,2.39,2.39,0,0,1-1.83,1.79,8.43,8.43,0,0,0-.86.11,5,5,0,0,0-1,.5c-.74.39-1.85.86-2.58.44s-1.05-1.3-1.05-2.6a14.84,14.84,0,0,0-2.08-2.9L260.87,289c-.29-.41-4.64-6.59-4.7-6.55Z" style="fill:#f0997a"></path><path d="M262.41,291.16c.18.27.37.53.56.79l1.33,1.85.4.55.05.06a4.07,4.07,0,0,0,.5.52,1.9,1.9,0,0,1,.63.87,4.81,4.81,0,0,1,.76,1.26c0,1.3.17,2.1,1.05,2.6s1.84-.05,2.58-.44a5,5,0,0,1,1-.5,8.43,8.43,0,0,1,.86-.11,2.39,2.39,0,0,0,1.83-1.79,3.92,3.92,0,0,0-.36-2.62,6.5,6.5,0,0,0-.79-1.17,1.66,1.66,0,0,1-.4,1.89c-.67.42-2.8.19-3.67-.27s-.54-1.89-.8-2.54-1.54-1.16-1.31-2.54-.63-2.47-2.66-3.15-2.31-1.52-3.13-2.44-3.06-1.19-4.68-1.5c.06,0,4.4,6.13,4.7,6.54C261.38,289.74,261.89,290.45,262.41,291.16Z" style="opacity:0.1"></path><path d="M256.17,282.48a27.78,27.78,0,0,1,5.78,4.36l.07.07.23.24h0a14.36,14.36,0,0,1,4.39,9.9H230.89l2.54-1.46.93-.54.12-.07Z" style="fill:#ffbda7"></path><path d="M256.17,282.48a27.78,27.78,0,0,1,5.78,4.36l.07.07.23.24h0a14.36,14.36,0,0,1,4.39,9.9H230.89l2.54-1.46.93-.54.12-.07Z" style="fill:#fff;opacity:0.30000000000000004"></path><path d="M230.72,274.4c-.06-.77,1-1.43,2.31-1.5a14.66,14.66,0,0,1,3.54.27c1.86.34,2.57-.15,6.57.08a12.78,12.78,0,0,1,2.81.42,28.49,28.49,0,0,0,2.79.65l.75.16c2,.53,3,1.88,5.09,2.37l.49.1a4.56,4.56,0,0,0,.54,0c2.66.06,4.64,3,3.54,3.64s-3,1.85-3,1.85l-25.28-6Z" style="fill:#f0997a"></path><path d="M230.89,276.45c1.51-.45,3.43-1.17,5.14-.85a12.82,12.82,0,0,0,5.21.44,7.7,7.7,0,0,1,5.74,1.15c1.54,1.07,3.05.91,4,1.26s2.5,1.5,3.68,1.47,3-.73,2.93-1.3-1.36-1.37-2.56-1.67a4.56,4.56,0,0,0,.54,0c2.66.06,4.64,3,3.54,3.64s-3,1.85-3,1.85Z" style="opacity:0.1"></path><path d="M230.89,276.45a61.6,61.6,0,0,1,9.43.72l.14,0,.45.08h0a46.22,46.22,0,0,1,15.25,5.21l-25.28,14.58V276.45Z" style="fill:#ffbda7"></path><path d="M230.89,276.45a61.6,61.6,0,0,1,9.43.72l.14,0,.45.08h0a46.22,46.22,0,0,1,15.25,5.21l-25.28,14.58V276.45Z" style="fill:#fff;opacity:0.30000000000000004"></path><path d="M231.06,274.4c.06-.77-1-1.43-2.31-1.5a14.66,14.66,0,0,0-3.54.27c-1.86.34-2.57-.15-6.57.08a12.78,12.78,0,0,0-2.81.42,28.49,28.49,0,0,1-2.79.65l-.76.16c-2,.53-3,1.88-5.08,2.37l-.49.1a4.56,4.56,0,0,1-.54,0c-2.66.06-4.64,3-3.55,3.64s3,1.85,3,1.85l25.28-6Z" style="fill:#f0997a"></path><path d="M230.89,276.45c-1.52-.45-3.43-1.17-5.14-.85a12.82,12.82,0,0,1-5.21.44,7.7,7.7,0,0,0-5.74,1.15c-1.54,1.07-3.05.91-4,1.26s-2.5,1.5-3.68,1.47-3-.73-2.93-1.3,1.36-1.37,2.56-1.67a4.56,4.56,0,0,1-.54,0c-2.66.06-4.64,3-3.55,3.64s3,1.85,3,1.85Z" style="opacity:0.1"></path><path d="M230.89,276.45a61.6,61.6,0,0,0-9.43.72l-.14,0-.45.08h0a46.14,46.14,0,0,0-15.25,5.21l25.28,14.58V276.45Z" style="fill:#ffbda7"></path><path d="M230.89,276.45a61.6,61.6,0,0,0-9.43.72l-.14,0-.45.08h0a46.14,46.14,0,0,0-15.25,5.21l25.28,14.58V276.45Z" style="fill:#fff;opacity:0.30000000000000004"></path><path d="M191.59,297.16c-1.34,0-3.14-.44-3.25-1.22s.72-1.46,1.11-2.16,0-1.76,0-2.63a8.15,8.15,0,0,1,.13-1.2,1.75,1.75,0,0,1,.53-1,8.7,8.7,0,0,0,1.55-2.3,3,3,0,0,1,.44-.81c.83-1,2.33-1.09,3.15-2.1a21.19,21.19,0,0,0,1-2,4.17,4.17,0,0,1,1.54-1.28,5,5,0,0,1,1.36-.59,5.22,5.22,0,0,1,1.31-.07,8,8,0,0,1,2.9.7,5.39,5.39,0,0,1,2.07,1.65c.21.3.13.35-.05.6l-1,1.4-3.63,5.05-3.83,5.33-1.77,2.47Z" style="fill:#f0997a"></path><path d="M200.74,289.26l1.68-2.34,3.07-4.27c.09-.13.1-.22-.06-.44a5.39,5.39,0,0,0-2.07-1.65,8,8,0,0,0-2.9-.7,5.22,5.22,0,0,0-1.31.07,5,5,0,0,0-1.36.59,4.17,4.17,0,0,0-1.54,1.28,1.24,1.24,0,0,0-.1.2,7.59,7.59,0,0,1,1.95-1,3.3,3.3,0,0,1,2.78.22,1.42,1.42,0,0,1,.59.67,1.66,1.66,0,0,1-.17,1.3c-.57,1.17-1.79,1.46-2.69,2.29-.61.58-.33,1.45-2.19,2.33s-2.58,2-2,3.31-.22,2-.78,3,.7,2.09,1.48,3l1.77-2.47Z" style="opacity:0.1"></path><path d="M195.14,297.06a12.6,12.6,0,0,1,1.26-5.43l0-.08c0-.09.09-.18.13-.27h0c1.62-3.22,4.64-6.26,9-8.8l25.28,14.58H195.14Z" style="fill:#ffbda7"></path><path d="M195.14,297.06a12.6,12.6,0,0,1,1.26-5.43l0-.08c0-.09.09-.18.13-.27h0c1.62-3.22,4.64-6.26,9-8.8l25.28,14.58H195.14Z" style="fill:#fff;opacity:0.30000000000000004"></path><path d="M203.22,313.15a3.94,3.94,0,0,1-3.47.12,6.55,6.55,0,0,1-2.18-1.63,8.65,8.65,0,0,0-2.43-1.45c-1.57-.81-2.71-1.65-3.19-2.84a6.73,6.73,0,0,0-.86-1.85c-.46-.6-1.12-1.11-1.3-1.78s0-1.37-.43-2a1.94,1.94,0,0,0-.24-.27,2.05,2.05,0,0,0-.32-.24c-1.81-1.14.29-4.12,1.83-4.12h4.51l10.47,14.58Z" style="fill:#f0997a"></path><path d="M191.93,306.66a5.57,5.57,0,0,0,2.72,4.76c.58.33,1.21.55,1.76.92,1,.63,1.62,1.62,2.55,2.28a4.6,4.6,0,0,0,5.16,0,3.31,3.31,0,0,0,1.25-1.59,2.21,2.21,0,0,0-.21-2" style="fill:#f0997a"></path><path d="M205.61,311.64c-1.62-.31-3.86-.57-4.68-1.5s-1.11-1.76-3.13-2.44-2.89-1.76-2.66-3.15-1-1.88-1.31-2.54.07-2.08-.8-2.54-3-.69-3.67-.27a1.72,1.72,0,0,0-.24,2.22,2.05,2.05,0,0,0-.32-.24c-1.81-1.14.29-4.12,1.83-4.12h4.51Z" style="opacity:0.1"></path><path d="M205.61,311.64a27.78,27.78,0,0,1-5.78-4.36l-.07-.07-.23-.24h0a14.36,14.36,0,0,1-4.39-9.9h35.75l-2.54,1.46-.93.54-.12.07Z" style="fill:#ffbda7"></path><path d="M205.61,311.64a27.78,27.78,0,0,1-5.78-4.36l-.07-.07-.23-.24h0a14.36,14.36,0,0,1-4.39-9.9h35.75l-2.54,1.46-.93.54-.12.07Z" style="fill:#fff;opacity:0.30000000000000004"></path><path d="M259.92,314.33a1.09,1.09,0,0,1,0,.18,3.28,3.28,0,0,1-2.47,2.92,24.1,24.1,0,0,0-3.22.61c-1.13.49-1.93,1.63-3.12,1.92-.93.22-1.93-.12-2.86.13a13.86,13.86,0,0,0-1.78.86c-2,.88-4.24-.47-6.25.36-.68.28-1.27.75-1.95,1a7.26,7.26,0,0,1-2.59.31,17.92,17.92,0,0,1-3.8-.35A2.63,2.63,0,0,1,231,322a2.23,2.23,0,0,1-.85-1.82,3.53,3.53,0,0,1,.82-2.37c.27-.29.7-.29,1.09-.38l1.51-.37,6.43-1.53,7.6-1.82,6.23-1.48c1.6-.38,3.35-1.06,4.85,0A2.9,2.9,0,0,1,259.92,314.33Z" style="fill:#f0997a"></path><path d="M253.58,314.33c1.58-.46,2.06-1.72,2.57-2.66l-.38.06-3.14.75-8,1.91-8.48,2-2.79.66-1.05.25h0l-.22.06c-.39.09-.82.09-1.09.38a3.53,3.53,0,0,0-.82,2.37A2.23,2.23,0,0,0,231,322a2.63,2.63,0,0,0,.86.32,17.92,17.92,0,0,0,3.8.35,7.26,7.26,0,0,0,2.59-.31c.21-.09.42-.19.62-.3a10,10,0,0,1-1.72.19,4,4,0,0,1-1.34-.16,2.8,2.8,0,0,1-1.56-1.5,1.47,1.47,0,0,1,.79-1.66c.8-.5,3.27-.31,4.41-.47s2-.88,4.41-.75,4.28-.36,5.46-1.53S252,314.8,253.58,314.33Z" style="opacity:0.1"></path><path d="M256.17,311.63a39.84,39.84,0,0,1-7.55,3.33l-.13.05-.41.13h0A56.38,56.38,0,0,1,231,317.77l-.11-20.71,2.54,1.46.93.54.12.07Z" style="fill:#ffbda7"></path><path d="M256.17,311.63a39.84,39.84,0,0,1-7.55,3.33l-.13.05-.41.13h0A56.38,56.38,0,0,1,231,317.77l-.11-20.71,2.54,1.46.93.54.12.07Z" style="fill:#fff;opacity:0.30000000000000004"></path><g style="opacity:0.1"><path d="M240.92,277.27a46.22,46.22,0,0,1,15.25,5.21l-25.28,14.58V295c.14.48,1.05,0,5.78-2.71,6.51-3.75,14.86-8.8,15.48-9.67S244.55,278,240.92,277.27Z" style="mix-blend-mode:multiply"></path><path d="M230.89,294.23v2.82c0-.15-2-15.91-3.06-18.12s-11-.81-11.21-.77c1.38-.35,2.8-.65,4.24-.89h0l.45-.08.14,0a61.6,61.6,0,0,1,9.43-.72v17.78Z" style="mix-blend-mode:multiply"></path><path d="M196.57,291.28c1.62-3.22,4.64-6.26,9-8.8l25.28,14.58H227.3c.83-.08,0-.61-4.7-3.33-6.51-3.76-15.27-8.57-16.77-8.93S197.8,289.18,196.57,291.28Z" style="mix-blend-mode:multiply"></path><path d="M199.53,307a14.36,14.36,0,0,1-4.39-9.9h35.75l-2.54,1.46c.49-.39-.72-.44-7.41-.44-9.21,0-21.31.17-22.8.53S197.83,305,199.53,307Z" style="mix-blend-mode:multiply"></path><path d="M248.07,315.14A56.38,56.38,0,0,1,231,317.77l-.11-20.71,2.54,1.46c-.69-.28-.77.42-.77,4.28,0,5.31.29,12.28.91,13.14S244.62,316.12,248.07,315.14Z" style="mix-blend-mode:multiply"></path></g><path d="M245.07,290.05a2.56,2.56,0,0,1,1.07,1c.42.83.06,1.76-1.07,2.41a6.63,6.63,0,0,1-6,0,2,2,0,0,1-1.23-1.82,2.11,2.11,0,0,1,1.23-1.63A6.57,6.57,0,0,1,245.07,290.05Z" style="fill:#b16668"></path><path d="M236.86,302.54a2.63,2.63,0,0,1,1.07,1c.42.83.06,1.75-1.07,2.4a6.57,6.57,0,0,1-6,0,2,2,0,0,1-1.23-1.81,2.14,2.14,0,0,1,1.23-1.64A6.63,6.63,0,0,1,236.86,302.54Z" style="fill:#b16668"></path><path d="M256.78,288.09a6.91,6.91,0,0,1,2.05.28c1.32.41,2.22,1.2,2.25,2.12,0,1.35-1.83,2.45-4.17,2.47a5.87,5.87,0,0,1-3.11-.75,2.06,2.06,0,0,1-1.18-1.65C252.58,289.22,254.45,288.11,256.78,288.09Z" style="fill:#b16668"></path><path d="M211.26,299.5a2.66,2.66,0,0,1-1.06-1.05c-.41-.83,0-1.75,1.1-2.4a6.6,6.6,0,0,1,6,0,2,2,0,0,1,1.21,1.82,2.17,2.17,0,0,1-1.25,1.63A6.6,6.6,0,0,1,211.26,299.5Z" style="fill:#b16668"></path><path d="M210.72,286.45a2.71,2.71,0,0,1,1.14,1.21c.4.95-.08,2-1.41,2.7a7.51,7.51,0,0,1-6.79-.15,2.21,2.21,0,0,1-1.26-2.09,2.6,2.6,0,0,1,1.53-1.83A7.48,7.48,0,0,1,210.72,286.45Z" style="fill:#b16668"></path><path d="M223.72,279.42a2.75,2.75,0,0,1,1.13,1.22c.41.95-.07,2-1.4,2.7a7.5,7.5,0,0,1-6.8-.16,2.17,2.17,0,0,1-1.25-2.08,2.54,2.54,0,0,1,1.52-1.83A7.54,7.54,0,0,1,223.72,279.42Z" style="fill:#b16668"></path><path d="M227.28,288.28a2.78,2.78,0,0,1,1.14,1.22c.41.95-.07,2-1.4,2.7a7.5,7.5,0,0,1-6.8-.16A2.18,2.18,0,0,1,219,290a2.59,2.59,0,0,1,1.53-1.83A7.51,7.51,0,0,1,227.28,288.28Z" style="fill:#b16668"></path><path d="M244,279.29a6.6,6.6,0,0,1,2.05.28c1.32.41,2.22,1.2,2.25,2.12,0,1.34-1.83,2.45-4.17,2.47a6.06,6.06,0,0,1-3.11-.75,2.08,2.08,0,0,1-1.18-1.65C239.84,280.41,241.71,279.31,244,279.29Z" style="fill:#b16668"></path><path d="M241.7,310.34a3.41,3.41,0,0,1,1.32-.95,6.94,6.94,0,0,1,4.28-.27c2.13.55,3.07,2,2.11,3.23a4.17,4.17,0,0,1-2.5,1.3,7.18,7.18,0,0,1-3.09-.08C241.69,313,240.74,311.57,241.7,310.34Z" style="fill:#b16668"></path><path d="M204.71,301.06a7,7,0,0,1,2,.29c1.32.4,2.22,1.2,2.24,2.12,0,1.34-1.83,2.45-4.16,2.47a6.1,6.1,0,0,1-3.12-.75,2.12,2.12,0,0,1-1.18-1.65C200.51,302.19,202.38,301.08,204.71,301.06Z" style="fill:#b16668"></path></g><g id="freepik--Chips--inject-51"><path d="M175,306.84c-1.85-.74-4.12.49-6.55.23,3.36-3.08,1.9-7.69-1.51-7.7-2.56,0-4.53,3.31-8.2,2.8s-6.22,2.12-4.53,4.48a8.62,8.62,0,0,0,6.56,3c1.15,2.71,4.91,5.91,10.62,5.37C177.65,314.46,178.64,308.29,175,306.84Z" style="fill:#EEE9D6;opacity:0.30000000000000004"></path><path d="M166.94,298.21c-2.56,0-4.53,3.31-8.2,2.81s-6.22,2.11-4.53,4.47,6.8,4.54,12.4,1.68S170.86,298.23,166.94,298.21Z" style="fill:#ffbda7"></path><path d="M168.36,306a5.5,5.5,0,0,1-2.57-.7c-3.21-1.82-6.56-.34-5.87,2.48a5.16,5.16,0,0,0,.24.69,11.55,11.55,0,0,0,6.45-1.3A8.08,8.08,0,0,0,168.36,306Z" style="fill:#f0997a"></path><path d="M166.61,307.17a6.3,6.3,0,0,0,3.7-4.59c-1.79,4.23-7.62,5.83-11,5.16s-5.13-2.25-5.58-4.36a2.44,2.44,0,0,0,.45,2.11C155.89,307.85,161,310,166.61,307.17Z" style="fill:#f0997a"></path><path d="M175,305.68c-2.37-.95-5.43,1.4-8.65-.42s-6.56-.33-5.87,2.48,4.65,6.73,10.91,6.14S178.64,307.13,175,305.68Z" style="fill:#ffbda7"></path><path d="M177,309.67c-.4,1.95-2.24,3.9-5.62,4.21-6.26.59-10.22-3.32-10.91-6.14a2.57,2.57,0,0,1,.12-1.71,3,3,0,0,0,.07,1.05c.69,2.81,4.64,6.72,10.91,6.14C174.57,312.94,176.36,311.38,177,309.67Z" style="fill:#f0997a"></path></g><g id="freepik--chips--inject-51"><path d="M192.8,263.29c1.93-.51,4,1,6.48,1-3-3.47-.95-7.86,2.43-7.46,2.55.3,4.1,3.83,7.8,3.78s5.92,2.85,4,5a8.64,8.64,0,0,1-6.88,2.2c-1.47,2.54-5.59,5.26-11.2,4C189.25,270.53,189,264.29,192.8,263.29Z" style="fill:#EEE9D6;opacity:0.30000000000000004"></path><path d="M201.85,255.71c2.55.3,4.11,3.83,7.8,3.78s5.92,2.85,4,5-7.3,3.67-12.52.15S198,255.25,201.85,255.71Z" style="fill:#ffbda7"></path><path d="M199.5,263.26a5.39,5.39,0,0,0,2.63-.38c3.42-1.41,6.56.47,5.53,3.18a6.65,6.65,0,0,1-.32.66,11.64,11.64,0,0,1-6.25-2.08A8.4,8.4,0,0,1,199.5,263.26Z" style="fill:#f0997a"></path><path d="M201.09,264.64a6.3,6.3,0,0,1-3.11-5c1.26,4.42,6.85,6.72,10.26,6.47s5.36-1.61,6.07-3.65a2.49,2.49,0,0,1-.7,2C211.65,266.63,206.31,268.16,201.09,264.64Z" style="fill:#f0997a"></path><path d="M192.94,262.14c2.48-.66,5.23,2.05,8.65.63s6.55.47,5.52,3.19-5.43,6.11-11.58,4.76S189.16,263.14,192.94,262.14Z" style="fill:#ffbda7"></path><path d="M190.46,265.86c.17,2,1.76,4.13,5.07,4.86,6.15,1.35,10.55-2.05,11.58-4.76a2.58,2.58,0,0,0,.09-1.72,2.94,2.94,0,0,1-.2,1c-1,2.7-5.43,6.1-11.58,4.76C192.49,269.4,190.9,267.63,190.46,265.86Z" style="fill:#f0997a"></path></g></g><g id="freepik--Confetti--inject-51"><g id="freepik--confetti--inject-51"><path d="M380.61,29.76s-.29,5.23,3.6,8.15l4.07-1.24s-2.72-1.31-4.07-6.91Z" style="fill:#455a64"></path><path d="M487,55.47s-2.37,4.68-7.19,5.25L477,57.61s3,.23,7-3.94Z" style="fill:#455a64"></path><path d="M445.42,182.31s-2.37,4.68-7.2,5.25l-2.9-3.11s3,.23,7-3.94Z" style="fill:#455a64"></path><path d="M327.43,114.64a17.6,17.6,0,0,1-7,3.93l2.91,3.12a17.13,17.13,0,0,0,7.19-5.25Z" style="fill:#455a64"></path><path d="M126.09,26.53s.29,5.23-3.6,8.14l-4.07-1.23s2.72-1.31,4.07-6.91Z" style="fill:#455a64"></path><path d="M80.52,116.29s.29,5.23-3.6,8.14l-4.07-1.24s2.72-1.3,4.07-6.9Z" style="fill:#455a64"></path><path d="M28.74,25.35s2.37,4.67,7.2,5.24l2.9-3.11s-3,.23-7-3.93Z" style="fill:#455a64"></path><path d="M22.4,231s2.37,4.68,7.19,5.25l2.91-3.11s-3,.23-7-3.94Z" style="fill:#455a64"></path><path d="M455.4,28.34c2.06-2.78,5.86-5.33,9.44-5.23,2.74.08,6,2.32,4.25,5.27-.69,1.15-3.95,3.63-5.37,2.58-1-.73-.4-2.06.31-2.79,2.1-2.17,6.22-1.36,7.86.91,2.46,3.42-.6,7.49-3.33,9.61-.18.14.12.45.29.34,5-3.12,7-11.45-.51-12.63-2-.32-4.41.18-5.54,2.05-.63,1.07-.73,2.44.49,3.09,1.94,1,5.1-.93,6.22-2.42a3.59,3.59,0,0,0-.83-5.19c-4.37-3.37-11,.26-13.52,4.21-.08.11.15.33.24.2Z" style="fill:#EEE9D6"></path><path d="M476.11,166.76c6.74.54,5.52,13.34.08,15.07a2.66,2.66,0,0,1-2.07-.11,3,3,0,0,1-1.22-2.6c.64-2.21,4.27.58,4.75,1.44a6.28,6.28,0,0,1-.51,7.35c-2.78,3.05-8.08,3.16-11.55,1.41-.18-.09-.21.25-.09.33,3.73,2.4,10,2,12.76-1.74,2.21-3,.68-11.07-4.15-10.36-4.5.66-1.38,5.79,2,5.11s4.63-5.2,5-8c.42-3.53-.64-8.3-5-8.22-.14,0-.12.31,0,.32Z" style="fill:#EEE9D6"></path><path d="M424.38,71.9s-5.2.65-8.36-3l1-4.15s1.49,2.63,7.17,3.59Z" style="fill:#EEE9D6"></path><path d="M486.81,231.43s-5.2.64-8.37-3l1-4.15s1.48,2.62,7.16,3.59Z" style="fill:#EEE9D6"></path><path d="M340.77,42.62s-5.2.65-8.37-3l1-4.15s1.49,2.63,7.17,3.59Z" style="fill:#EEE9D6"></path><path d="M248.83,31.84s-5.2.64-8.37-3l.95-4.15s1.49,2.63,7.17,3.6Z" style="fill:#EEE9D6"></path><path d="M472.88,138.32s-5.2.65-8.37-3l.95-4.15s1.49,2.63,7.17,3.6Z" style="fill:#EEE9D6"></path><path d="M212.4,35.68c5.06-.5,11.89,7.94,6.95,12-2.74,2.25-8.73,1.27-8.67-2.94a.54.54,0,0,1,.45-.47c4-.91,7.91.8,7.23,5.43A8.93,8.93,0,0,1,210,57c-.24,0-.15-.42,0-.46,3.46-.73,6.73-2.88,7.4-6.58a4.72,4.72,0,0,0-.74-3.83,3.71,3.71,0,0,0-1.81-1.2c-.59-.19-2.73-.53-3.19-.05-.94,1,1.6,2.6,2.35,2.86a5.35,5.35,0,0,0,4.57-.43c2.1-1.47,1.58-4.24.57-6.2-1.37-2.64-3.78-4.8-6.87-4.91-.28,0-.14-.53.08-.55Z" style="fill:#EEE9D6"></path><path d="M70.11,27.37c-2.85-.83-6.77-.6-9.17,1.33-1.84,1.48-2.89,4.7-.17,5.81,1.07.43,4.59.43,5-1,.3-1-.79-1.61-1.66-1.74-2.56-.4-5,2.3-4.9,4.71.09,3.61,4.3,4.81,7.28,4.84.19,0,.14.37,0,.38-5.07.49-10.72-4.2-6.22-8.91,1.22-1.26,3.11-2.16,4.86-1.46,1,.39,1.77,1.28,1.28,2.36-.79,1.72-4,2-5.52,1.57a3.07,3.07,0,0,1-2.13-4c1.24-4.58,7.64-5.53,11.44-4.16.11,0,.07.31-.07.27Z" style="fill:#EEE9D6"></path><path d="M17.6,86.76c4,1.17,7.65,8.14,4,11.31-3.13,2.7-9.45,2.09-8.41-3a.38.38,0,0,1,.22-.26c4.16-1,5.53,3.86,4.66,7.06-1.36,5-6.38,4.91-10,2.31-.12-.08-.06-.43.11-.34,3,1.48,7.12,2.8,8.92-1,1-2,1-5.37-.87-6.93a2.58,2.58,0,0,0-1.78-.7c-1.38.17-1.14,1.66-.36,2.61,1.24,1.51,3.74,1.35,5.4.77,5.71-2,1.79-9.41-1.93-11.49-.11-.06-.08-.35.07-.3Z" style="fill:#EEE9D6"></path><path d="M23.36,174.62c-6.66,1.15-4.29,13.78,1.29,15a2.61,2.61,0,0,0,2-.29,3,3,0,0,0,1-2.7c-.84-2.14-4.2,1-4.6,1.86a6.29,6.29,0,0,0,1.18,7.28c3,2.78,8.33,2.41,11.63.35.17-.1.23.23.11.32-3.49,2.73-9.76,3-12.85-.57-2.48-2.82-1.69-11,3.18-10.69,4.55.25,1.91,5.64-1.55,5.27s-5.09-4.77-5.67-7.52c-.73-3.48-.12-8.32,4.24-8.64.15,0,.16.29,0,.32Z" style="fill:#EEE9D6"></path><path d="M61.24,77.52s5.2.65,8.37-3l-1-4.15S67.16,73,61.48,73.93Z" style="fill:#EEE9D6"></path><path d="M156.1,29.06s5.2.64,8.37-3l-1-4.15s-1.49,2.62-7.17,3.59Z" style="fill:#EEE9D6"></path><path d="M174.37,122.49s5.2.65,8.37-3l-1-4.15s-1.49,2.63-7.17,3.6Z" style="fill:#EEE9D6"></path><path d="M30.39,134.77s5.21.64,8.37-3l-.95-4.15s-1.49,2.63-7.17,3.6Z" style="fill:#EEE9D6"></path><g style="opacity:0.4"><path d="M455.4,28.34c2.06-2.78,5.86-5.33,9.44-5.23,2.74.08,6,2.32,4.25,5.27-.69,1.15-3.95,3.63-5.37,2.58-1-.73-.4-2.06.31-2.79,2.1-2.17,6.22-1.36,7.86.91,2.46,3.42-.6,7.49-3.33,9.61-.18.14.12.45.29.34,5-3.12,7-11.45-.51-12.63-2-.32-4.41.18-5.54,2.05-.63,1.07-.73,2.44.49,3.09,1.94,1,5.1-.93,6.22-2.42a3.59,3.59,0,0,0-.83-5.19c-4.37-3.37-11,.26-13.52,4.21-.08.11.15.33.24.2Z" style="fill:#fff"></path><path d="M476.11,166.76c6.74.54,5.52,13.34.08,15.07a2.66,2.66,0,0,1-2.07-.11,3,3,0,0,1-1.22-2.6c.64-2.21,4.27.58,4.75,1.44a6.28,6.28,0,0,1-.51,7.35c-2.78,3.05-8.08,3.16-11.55,1.41-.18-.09-.21.25-.09.33,3.73,2.4,10,2,12.76-1.74,2.21-3,.68-11.07-4.15-10.36-4.5.66-1.38,5.79,2,5.11s4.63-5.2,5-8c.42-3.53-.64-8.3-5-8.22-.14,0-.12.31,0,.32Z" style="fill:#fff"></path><path d="M212.4,35.68c5.06-.5,11.89,7.94,6.95,12-2.74,2.25-8.73,1.27-8.67-2.94a.54.54,0,0,1,.45-.47c4-.91,7.91.8,7.23,5.43A8.93,8.93,0,0,1,210,57c-.24,0-.15-.42,0-.46,3.46-.73,6.73-2.88,7.4-6.58a4.72,4.72,0,0,0-.74-3.83,3.71,3.71,0,0,0-1.81-1.2c-.59-.19-2.73-.53-3.19-.05-.94,1,1.6,2.6,2.35,2.86a5.35,5.35,0,0,0,4.57-.43c2.1-1.47,1.58-4.24.57-6.2-1.37-2.64-3.78-4.8-6.87-4.91-.28,0-.14-.53.08-.55Z" style="fill:#fff"></path><path d="M70.11,27.37c-2.85-.83-6.77-.6-9.17,1.33-1.84,1.48-2.89,4.7-.17,5.81,1.07.43,4.59.43,5-1,.3-1-.79-1.61-1.66-1.74-2.56-.4-5,2.3-4.9,4.71.09,3.61,4.3,4.81,7.28,4.84.19,0,.14.37,0,.38-5.07.49-10.72-4.2-6.22-8.91,1.22-1.26,3.11-2.16,4.86-1.46,1,.39,1.77,1.28,1.28,2.36-.79,1.72-4,2-5.52,1.57a3.07,3.07,0,0,1-2.13-4c1.24-4.58,7.64-5.53,11.44-4.16.11,0,.07.31-.07.27Z" style="fill:#fff"></path><path d="M17.6,86.76c4,1.17,7.65,8.14,4,11.31-3.13,2.7-9.45,2.09-8.41-3a.38.38,0,0,1,.22-.26c4.16-1,5.53,3.86,4.66,7.06-1.36,5-6.38,4.91-10,2.31-.12-.08-.06-.43.11-.34,3,1.48,7.12,2.8,8.92-1,1-2,1-5.37-.87-6.93a2.58,2.58,0,0,0-1.78-.7c-1.38.17-1.14,1.66-.36,2.61,1.24,1.51,3.74,1.35,5.4.77,5.71-2,1.79-9.41-1.93-11.49-.11-.06-.08-.35.07-.3Z" style="fill:#fff"></path><path d="M23.36,174.62c-6.66,1.15-4.29,13.78,1.29,15a2.61,2.61,0,0,0,2-.29,3,3,0,0,0,1-2.7c-.84-2.14-4.2,1-4.6,1.86a6.29,6.29,0,0,0,1.18,7.28c3,2.78,8.33,2.41,11.63.35.17-.1.23.23.11.32-3.49,2.73-9.76,3-12.85-.57-2.48-2.82-1.69-11,3.18-10.69,4.55.25,1.91,5.64-1.55,5.27s-5.09-4.77-5.67-7.52c-.73-3.48-.12-8.32,4.24-8.64.15,0,.16.29,0,.32Z" style="fill:#fff"></path></g><path d="M198.32,73.66s2.37,4.67,7.2,5.24l2.9-3.11s-3.55.55-7.53-3.62Z" style="fill:#455a64"></path><path d="M166.77,65.37s-3.23,4.13-1.7,8.74l4.05,1.31a13.52,13.52,0,0,1,.08-8.35Z" style="fill:#37474f"></path><path d="M257.92,62.17s-.93,5.16-5.38,7.09l-3.68-2.14A13.54,13.54,0,0,0,255,61.48Z" style="fill:#37474f"></path><path d="M333.27,83.06s-5.07,1.32-8.69-1.91l.4-4.24a13.48,13.48,0,0,0,7.7,3.24Z" style="fill:#37474f"></path></g></g></svg>