<svg xmlns="http://www.w3.org/2000/svg" viewBox="0 0 500 500"><g id="freepik--Floor--inject-6"><path id="freepik--floor--inject-6" d="M103.74,436.4c84.74,44.27,222.13,44.27,306.87,0s84.74-116,0-160.31-222.13-44.27-306.87,0S19,392.13,103.74,436.4Z" style="fill:#f5f5f5"></path></g><g id="freepik--Shadows--inject-6"><path d="M242.57,427.68,128.18,361.63c-1.34-.77-1.34-2,0-2.79l114.37-66a5.36,5.36,0,0,1,4.84,0l114.39,66.07c1.34.77,1.34,2,0,2.79l-114.37,66A5.3,5.3,0,0,1,242.57,427.68Z" style="fill:#e0e0e0"></path><path d="M121.76,310.91l42.93-24.81a5.64,5.64,0,0,1,4.6-.21l48,22.18c1.3.6,1.35,1.67.1,2.39l-53.51,30.9a4.37,4.37,0,0,1-4.35-.23l-37.94-27.4A1.56,1.56,0,0,1,121.76,310.91Z" style="fill:#e0e0e0"></path><path d="M368.22,310.91,325.29,286.1a5.64,5.64,0,0,0-4.6-.21l-48,22.18c-1.31.6-1.35,1.67-.11,2.39l53.51,30.9a4.37,4.37,0,0,0,4.35-.23l37.94-27.4A1.55,1.55,0,0,0,368.22,310.91Z" style="fill:#e0e0e0"></path></g><g id="freepik--Plants--inject-6"><g id="freepik--plants--inject-6"><path d="M363.89,279.18c.69-8.54,8.28-25.73,18-36.11s24.33-17.36,33.95-13.18c9,3.9,7,15.91-4.83,23s-29.45,15.83-35.48,29.28l-11.68,16.17Z" style="fill:#EEE9D6"></path><path d="M363.89,279.18c.69-8.54,8.28-25.73,18-36.11s24.33-17.36,33.95-13.18c9,3.9,7,15.91-4.83,23s-29.45,15.83-35.48,29.28l-11.68,16.17Z" style="opacity:0.2"></path><path d="M362.32,290.81a.63.63,0,0,0,.6-.46c8.06-28.68,33.55-50.48,48.08-54.58a.62.62,0,0,0-.34-1.2c-14.81,4.17-40.76,26.32-48.94,55.45a.62.62,0,0,0,.43.77Z" style="fill:#fff"></path><path d="M365.17,309.82c1.75-4.69,8.25-12.14,18.26-17.92,11.07-6.4,24.62-8.66,28.13-14,4.22-6.48-1-13.33-11.85-12.86s-31,13.65-35.82,35.54Z" style="fill:#EEE9D6"></path><path d="M363.49,304.61a.63.63,0,0,0,.57-.37c10.94-24.25,30.7-31.48,39.62-31.92a.62.62,0,0,0,.59-.65.63.63,0,0,0-.65-.6c-9.86.49-29.53,7.91-40.7,32.66a.62.62,0,0,0,.31.83A.58.58,0,0,0,363.49,304.61Z" style="fill:#fff"></path></g><g id="freepik--plants--inject-6"><path d="M125.44,273.7s1-14.73-4.13-27.25-13.71-21.32-22.78-23.74S80.47,227.4,89.25,235s25.2,16.76,29.27,40Z" style="fill:#EEE9D6"></path><path d="M125.44,273.7s1-14.73-4.13-27.25-13.71-21.32-22.78-23.74S80.47,227.4,89.25,235s25.2,16.76,29.27,40Z" style="opacity:0.2"></path><path d="M123.43,269.46h.1a.51.51,0,0,0,.39-.59c-5.33-25.71-22-39.09-30.07-42.57a.5.5,0,0,0-.39.92c7.9,3.41,24.23,16.55,29.48,41.85A.49.49,0,0,0,123.43,269.46Z" style="fill:#fff"></path><path d="M79.29,261.27c.52,2.17,2.51,3.61,4.39,4.8s3.92,2.46,4.67,4.56c1.51,4.22-3.1,8.92-1.41,13.06a6.93,6.93,0,0,0,4.17,3.57,46.27,46.27,0,0,0,4.51,1.25,18.58,18.58,0,0,0,2.21.22c2.16.09,4.46.41,6.19,1.84,2.72,2.25,3,6.25,4.25,9.54a14.62,14.62,0,0,0,9,8.29c1.33.42,3.82,1.13,5.35.62l.32-.13,0,0a7.13,7.13,0,0,0,.65-.54s0-.05.07-.08c.9-1.88.4-4.09.74-6.14,0-.13,0-.25.07-.37.52-2.37,1-4.71,1.51-7.08.91-4.33,1.76-8.7,2.53-13.06.49-2.85,1.4-5.89.69-8.77-.79-3.18-4.08-3.85-4.8-7-.29-1.24-.33-2.51-.6-3.76a10.29,10.29,0,0,0-7.54-7.62c-5.71-1.36-11.74,2.37-17.42.88a41.62,41.62,0,0,1-4.26-1.65c-4.51-1.72-10.15-1.38-13.5,2.08A6.16,6.16,0,0,0,79.29,261.27Z" style="fill:#EEE9D6"></path><path d="M125.87,299.25h0a.5.5,0,0,0,.46-.54c-2.49-31.35-33.19-41.44-40.65-42.25a.5.5,0,0,0-.11,1c7.3.8,37.33,10.67,39.76,41.34A.5.5,0,0,0,125.87,299.25Z" style="fill:#fff"></path><path d="M93.66,277.69a.47.47,0,0,0,.28-.09,26.63,26.63,0,0,1,22.54-2.1.51.51,0,0,0,.63-.32.5.5,0,0,0-.31-.63,27.68,27.68,0,0,0-23.43,2.23.5.5,0,0,0-.12.7A.48.48,0,0,0,93.66,277.69Z" style="fill:#fff"></path></g></g><g id="freepik--Characters--inject-6"><g id="freepik--Boy--inject-6"><path d="M359.11,242.08v66.56a1.85,1.85,0,0,0,.84,1.46l2.27,1.31a1.86,1.86,0,0,0,1.69,0l2.27-1.31a1.87,1.87,0,0,0,.84-1.46V242.08a1,1,0,0,0-1-1h-6A1,1,0,0,0,359.11,242.08Z" style="fill:#263238"></path><path d="M366,241.11h-2a1,1,0,0,0-1,1v68.85c0,.53.38.75.85.48l2.27-1.31a1.87,1.87,0,0,0,.84-1.46V242.08A1,1,0,0,0,366,241.11Z" style="fill:#37474f"></path><path d="M320.91,264.05v66.56a1.86,1.86,0,0,0,.85,1.46l2.27,1.31a1.84,1.84,0,0,0,1.68,0l2.27-1.31a1.86,1.86,0,0,0,.85-1.46V264.05a1,1,0,0,0-1-1h-6A1,1,0,0,0,320.91,264.05Z" style="fill:#263238"></path><path d="M327.85,263.08h-2a1,1,0,0,0-1,1v68.84c0,.54.38.76.84.49l2.27-1.31a1.86,1.86,0,0,0,.85-1.46V264.05A1,1,0,0,0,327.85,263.08Z" style="fill:#37474f"></path><path d="M323.45,215.19a3.58,3.58,0,0,1-3.1,4l-.44,0a3.58,3.58,0,0,1-3.55-3.13c-2.05-16.43.87-53.18,7.9-73.89.72-2.13,2.78-2.59,4.73-1.47h0c1.48.85,2.55,2.16,2,3.77C324.24,163.93,321.47,199.36,323.45,215.19Z" style="fill:#455a64"></path><path d="M364.85,224.65a2.25,2.25,0,0,0,.71-.12,2.28,2.28,0,0,0,1.45-2.87c-5.27-16-31.15-30.24-47.86-30.24a2.27,2.27,0,1,0,0,4.54c15.11,0,38.94,13.15,43.54,27.12A2.27,2.27,0,0,0,364.85,224.65Z" style="fill:#37474f"></path><path d="M367.29,203.89a2.23,2.23,0,0,0,.71-.11,2.28,2.28,0,0,0,1.45-2.87c-5.48-16.63-32.13-30.09-48.77-28.38a2.27,2.27,0,1,0,.47,4.52c14.74-1.5,39.18,10.71,44,25.28A2.26,2.26,0,0,0,367.29,203.89Z" style="fill:#37474f"></path><path d="M372.34,187.45a2.23,2.23,0,0,0,.91-.2,2.26,2.26,0,0,0,1.17-3c-7.83-17.83-35.68-32.47-50.75-30.38a2.27,2.27,0,0,0,.63,4.5c13.31-1.85,39,11.78,46,27.71A2.27,2.27,0,0,0,372.34,187.45Z" style="fill:#37474f"></path><path d="M378.12,168.36a3.56,3.56,0,0,1,1.47,4.51c-8.21,19.18-12.53,42.61-12.53,68.26v3.44l-.27.29a1.46,1.46,0,0,1-1.08.44,4.3,4.3,0,0,1-1.49-.37,7.1,7.1,0,0,0-.73-.23,3.57,3.57,0,0,1-3.57-3.57c0-26.61,4.52-51,13.13-71.08a3.56,3.56,0,0,1,5.06-1.7Z" style="fill:#455a64"></path><path d="M367,243.73v.87a5.68,5.68,0,0,1-2.11,4.12L327,276.15a4.34,4.34,0,0,1-4.35.22l-53.51-30.89a5,5,0,0,1-2.25-3.9v-.89a4.4,4.4,0,0,1,2.36-3.69l48-22.18a5.6,5.6,0,0,1,4.6.21l42.93,24.81A5,5,0,0,1,367,243.73Z" style="fill:#37474f"></path><path d="M364.77,239.84,321.84,215a5.6,5.6,0,0,0-4.6-.21l-48,22.18c-1.31.6-1.35,1.67-.11,2.39l53.51,30.89a4.34,4.34,0,0,0,4.35-.22l37.94-27.4A1.55,1.55,0,0,0,364.77,239.84Z" style="fill:#455a64"></path><path d="M281.51,182.13l-4.68,21.11L251,209.59l-3.24,10.25s41.07-2.18,42.74-4.62,7.86-28.34,7.86-28.34Z" style="fill:#ffa8a7"></path><path d="M298.55,150.6c-4.35.05-10.67,3.33-13.35,13s-6.52,27-6.52,27,7.05,5.53,14.86,4Z" style="fill:#e6e6e6"></path><rect x="295.7" y="331.17" width="10.69" height="18.3" style="fill:#ffa8a7"></rect><polygon points="275.44 326.72 264.76 327.08 264.22 307.72 274.9 307.35 275.44 326.72" style="fill:#ffa8a7"></polygon><path d="M295.7,344.67v-1.9c-1.11.49-6.17,11.18-10.78,15.38-3.66,3.34-10.1,7.92-9.94,11.09.2,4.09,6,5.9,11.06,4.72,3.94-.92,9.55-3.3,12.24-6.21s3.57-6.73,5-8.63,4.65-4,5.41-6.23c.42-1.21-.08-3.86-.67-6.1-.53-2.06-1.12-4.32-1.82-4.12v1.26c-.84.94-3.18,1.87-5.81,2C298.67,346,295.69,346,295.7,344.67Z" style="fill:#263238"></path><path d="M264.64,323.79c-.55,0-1,.8-2.23,2.12-1.48,1.61-4.78,3.28-7.17,4.47-4,2-14.48,4.7-18,6.28-2.2,1-1.65,4.41,1.47,6.33,2.32,1.43,9.73,2.82,16.32,1.34,3.59-.8,9.06-3.29,11.73-3.71,2.93-.46,8.32-1,10.5-2.53s1.31-4.72.69-7.49c-.67-3-1.63-7.63-2.63-7.42l0,.95c-1.28,1.94-7.83,2.74-10.65,1.31Z" style="fill:#263238"></path><path d="M349.45,219.89c2.34,16.52-.82,19.69-16.52,35.51-8.44,8.51-22,21-22,21s.19,5.27.3,17.11c.1,10.41-4.25,44.32-4.25,44.32s-7.09,3-12-.11c0,0-2.2-25.23-3.39-38.37-1.61-17.82-2.45-26.75-1.54-30.58.8-3.38,16.78-23.56,20.47-29.22l-34,19.73a115.79,115.79,0,0,1,1,15.08c-.37,14.14-2.11,42.39-2.11,42.39s-7.78,3.48-11.63.48c0,0-9.79-61.78-9.79-66.85,0-7.7,33.46-30.7,39.8-36.06,3.61-3.05,7.64-6.32,7.64-6.32Z" style="fill:#EEE9D6"></path><path d="M310.52,239.54a24.44,24.44,0,0,1-7.76-11.06,55.27,55.27,0,0,0,1.21,8.41c.91,3.68-27.41,22.38-27.41,22.38Z" style="opacity:0.1"></path><path d="M335.38,157.68a63.87,63.87,0,0,1,2.65,7.9l11.68,56.16c-7.49,8.16-44.42,9.95-55.89-7.43,0,0-7-34.77-6.95-43.1.06-5.76,1.59-16.94,11.68-20.61l16.5-2,7.69.34A14.39,14.39,0,0,1,335.38,157.68Z" style="fill:#f0f0f0"></path><circle cx="293.86" cy="115.78" r="15.17" transform="translate(-21.95 120.93) rotate(-22.44)" style="fill:#263238"></circle><path d="M320.57,125.32s-1.91,11.66-2.81,13.6a5.23,5.23,0,0,1-2.9,2.58l-.21-8.13Z" style="fill:#263238"></path><path d="M316.7,108.93a5.72,5.72,0,0,1,4.79,1.44c2.12,2,1.3,8.49-.92,14.95l-4.6.75Z" style="fill:#263238"></path><path d="M314.58,126.14c.95.51,2.19-1.34,3.28-2.59s4.75-3.06,6.8.78-1.21,9.36-4.11,10.42c-5,1.83-5.9-1.38-5.9-1.38l.48,18.3c-4.14,5.08-20,9.59-16.51.29l-.25-5.56a32.12,32.12,0,0,1-6.82.67c-3.75-.4-6.24-3.23-7.56-7.21-2.12-6.39-3.06-11.59-2.12-24.4,1-14,17.27-15,26.3-9.86S314.58,126.14,314.58,126.14Z" style="fill:#ffa8a7"></path><path d="M314.65,127.7c.42-.22,2.11-3,3.21-4.15,1.53-1.53-1.16-14.62-1.16-14.62s1.39-3.35-1.85-6.59a13.25,13.25,0,0,0-12.75-3.68,121,121,0,0,1-12.23,2.12c-3.94.47-9.38-.07-12.68-1.5A13.1,13.1,0,0,0,278,106a10.54,10.54,0,0,0,4.37,4.76c2.16,1.26,4.36,2,8.89,2.2a51.36,51.36,0,0,0,16.54-1.78c1.71-.32,2.16,1.33,3.3,5.84C312.09,121,311.05,129.63,314.65,127.7Z" style="fill:#263238"></path><path d="M316.74,110l5.47-3.28a3.09,3.09,0,0,0-4.31-1.2A3.35,3.35,0,0,0,316.74,110Z" style="fill:#263238"></path><path d="M298.37,146.4s8.24-2.07,11.07-3.75a9.56,9.56,0,0,0,3.83-4.17,13,13,0,0,1-2.06,4.8c-2,2.82-12.74,5.33-12.74,5.33Z" style="fill:#f28f8f"></path><path d="M296,124.43a1.67,1.67,0,1,0,1.59-1.82A1.71,1.71,0,0,0,296,124.43Z" style="fill:#263238"></path><path d="M297.45,118.67l3.66,1.8a2.13,2.13,0,0,0-1-2.8A2,2,0,0,0,297.45,118.67Z" style="fill:#263238"></path><path d="M298.65,136.35,294.91,138a2,2,0,0,0,2.64,1.14A2.15,2.15,0,0,0,298.65,136.35Z" style="fill:#f28f8f"></path><path d="M282.54,121.84l3.13-2.66a2,2,0,0,0-2.85-.3A2.16,2.16,0,0,0,282.54,121.84Z" style="fill:#263238"></path><path d="M283.53,125.34a1.67,1.67,0,1,0,1.59-1.82A1.72,1.72,0,0,0,283.53,125.34Z" style="fill:#263238"></path><polygon points="291.6 123.22 292.99 133.25 286.87 132.88 291.6 123.22" style="fill:#f28f8f"></polygon></g><g id="freepik--Girl--inject-6"><path d="M203.13,170.56l12.33,28,28,13.71s-10.05,6.49-11.38,6.14c-5.81-1.5-21.71-6.66-24.24-8-1.93-1-14-23.52-14-23.52Z" style="fill:#b16668"></path><path d="M130.86,242.08v66.56a1.87,1.87,0,0,1-.84,1.46l-2.27,1.31a1.86,1.86,0,0,1-1.69,0l-2.27-1.31a1.87,1.87,0,0,1-.84-1.46V242.08a1,1,0,0,1,1-1h6A1,1,0,0,1,130.86,242.08Z" style="fill:#263238"></path><path d="M123.92,241.11h2a1,1,0,0,1,1,1v68.85c0,.53-.38.75-.85.48l-2.27-1.31a1.87,1.87,0,0,1-.84-1.46V242.08A1,1,0,0,1,123.92,241.11Z" style="fill:#37474f"></path><path d="M169.05,264.05v66.56a1.85,1.85,0,0,1-.84,1.46l-2.27,1.31a1.84,1.84,0,0,1-1.68,0L162,332.07a1.86,1.86,0,0,1-.85-1.46V264.05a1,1,0,0,1,1-1h6A1,1,0,0,1,169.05,264.05Z" style="fill:#263238"></path><path d="M162.12,263.08h2a1,1,0,0,1,1,1v68.84c0,.54-.38.76-.84.49L162,332.07a1.86,1.86,0,0,1-.85-1.46V264.05A1,1,0,0,1,162.12,263.08Z" style="fill:#37474f"></path><path d="M166.52,215.19a3.58,3.58,0,0,0,3.1,4l.44,0a3.58,3.58,0,0,0,3.55-3.13c2-16.43-.87-53.18-7.9-73.89-.73-2.13-2.78-2.59-4.73-1.47h0c-1.48.85-2.55,2.16-2,3.77C165.73,163.93,168.5,199.36,166.52,215.19Z" style="fill:#455a64"></path><path d="M125.12,224.65a2.25,2.25,0,0,1-.71-.12,2.28,2.28,0,0,1-1.45-2.87c5.27-16,31.15-30.24,47.86-30.24a2.27,2.27,0,0,1,0,4.54c-15.12,0-38.95,13.15-43.54,27.12A2.28,2.28,0,0,1,125.12,224.65Z" style="fill:#37474f"></path><path d="M122.68,203.89a2.23,2.23,0,0,1-.71-.11,2.28,2.28,0,0,1-1.45-2.87c5.47-16.63,32.13-30.09,48.77-28.38a2.27,2.27,0,1,1-.47,4.52c-14.74-1.5-39.19,10.71-44,25.28A2.28,2.28,0,0,1,122.68,203.89Z" style="fill:#37474f"></path><path d="M117.63,187.45a2.31,2.31,0,0,1-.92-.2,2.27,2.27,0,0,1-1.16-3c7.83-17.83,35.68-32.47,50.74-30.38a2.27,2.27,0,0,1-.62,4.5c-13.31-1.85-39,11.78-46,27.71A2.28,2.28,0,0,1,117.63,187.45Z" style="fill:#37474f"></path><path d="M111.84,168.36a3.56,3.56,0,0,0-1.46,4.51c8.21,19.18,12.53,42.61,12.53,68.26v3.44l.27.29a1.45,1.45,0,0,0,1.08.44,4.3,4.3,0,0,0,1.49-.37,6.41,6.41,0,0,1,.73-.23,3.57,3.57,0,0,0,3.57-3.57c0-26.61-4.52-51-13.13-71.08a3.57,3.57,0,0,0-5.06-1.7Z" style="fill:#455a64"></path><path d="M123,243.73v.87a5.7,5.7,0,0,0,2.1,4.12L163,276.15a4.36,4.36,0,0,0,4.36.22l53.51-30.89a5,5,0,0,0,2.25-3.9v-.89a4.42,4.42,0,0,0-2.36-3.69l-48-22.18a5.62,5.62,0,0,0-4.61.21L125.2,239.84A5,5,0,0,0,123,243.73Z" style="fill:#37474f"></path><path d="M125.2,239.84,168.12,215a5.62,5.62,0,0,1,4.61-.21l48,22.18c1.3.6,1.35,1.67.11,2.39l-53.51,30.89a4.36,4.36,0,0,1-4.36-.22l-37.93-27.4A1.55,1.55,0,0,1,125.2,239.84Z" style="fill:#455a64"></path><path d="M215.46,172.2l-48.76.1,0-52a21.63,21.63,0,0,1,21.58-21.68h5.5a21.64,21.64,0,0,1,21.68,21.59Z" style="fill:#263238"></path><path d="M190.26,293c-1,.66-2.06,1.43-2.18,2.49a10.68,10.68,0,0,0,1.58,6.48c1.68,2.81,2.17,7.6,1.94,10.73s-1.58,11,1.64,14.84,12.28,7.36,13.47,1.69-5.45-29.82-5.45-29.82Z" style="fill:#263238"></path><path d="M194.69,297.72a85.7,85.7,0,0,1,1.24,13c0,4.75.68,8.23,2.74,9.94s5.58,2.21,4.93-1.15-2.34-20.09-2.34-20.09Z" style="fill:#9a4a4d"></path><path d="M191.87,213.19s12.7,11.17,20.66,17.86S228,244.23,229,248.48c1,4.5-1.4,10.12-7.24,20.39-1.79,3.15-12.17,21.34-12.17,21.34L198,252.64l-23.65-21.9Z" style="fill:#EEE9D6"></path><path d="M205.12,329.32c-.86.35-1.15,2.25-1.36,3.64s-1.59,3,0,5.53,4.88,3.43,7,6.9,3.21,8.19,10.63,10.15,13.24-.25,14.75-2.41.35-4.34-4.31-7.31c-4.94-3.15-6.34-4.08-6.34-4.08Z" style="fill:#263238"></path><path d="M213.93,314.31s3.14,10.19,5.11,14.89,3.27,7.74,6.93,12c.8.93,2.61,2.65,3.27,3.4a1.44,1.44,0,0,1-.16,2.22c-1.64,1.56-8.55,1.92-12.42-1s-5.69-7-8-9.3c-1.15-1.17-2.24-2.29-3-3.12a3.12,3.12,0,0,1-.78-3c.08-.31.17-.66.27-1.08.54-2.23-2.39-11.4-2.39-11.4Z" style="fill:#b16668"></path><path d="M140.86,216.24a21.67,21.67,0,0,0-2.42,19.08C141,243,151,251.39,159.67,256.54s22,11.41,24.64,12.57,2.87,2.74,2.49,7.71,1.32,13.12,6.82,23.32c5.82,10.77,9.11,17.78,9.11,17.78a11.54,11.54,0,0,0,11.67-2.81s-9.28-49.25-11.48-55.76-26.6-27.57-26.6-27.57,13.59-11.1,15.55-18.59Z" style="fill:#EEE9D6"></path><path d="M206.32,262.5c-1.33-6.57-6.15-11.75-10.76-16.14-3.78-3.59-13.45-12.29-16.82-15.31a39.79,39.79,0,0,0,2.43-7.11s-1.92,3.45-3.61,6.05h0l-1.06,1.56c-.06.07-.12.16-.17.23h0l.07.07c1.44,1.23,24.4,21.21,26.53,27.51,1.22,3.6,4.62,20.39,7.42,34.61C210.11,291.84,207.58,268.75,206.32,262.5Z" style="opacity:0.2"></path><path d="M196.37,152.72c4.92,1.23,6,4.19,9.65,12.86,2.63,6.33,4.92,11.38,2.8,19.32-1.41,5.27-9,8.9-9,8.9l-5.65,9.28S194,214,193.92,215c0,0-13.18,16.95-29.31,14-16.72-3.05-20.45-7.05-23.75-12.76,5.6-8.45,15.29-19.13,15.29-19.13,2.62-22.19,1.79-33,9.7-40.43l15.21-6.08Z" style="fill:#f0f0f0"></path><path d="M205.76,110.1c2.39,1.8,7.85,8.93,6,22.39-1.55,11.41-5.58,13.82-7.53,14.42s-5.49-.29-8.91-1.27l-.77,6.87s3.32,4.72,2.66,7.84-7.29,2.71-11.46-.88a19.46,19.46,0,0,1-5.53-8.93l1.62-14.43s-2.71,2.88-6.27-.11-3-9.34-.5-11.36,7.24-.76,7.79,2.48c0,0,4.6,1.74,12.47-1.5S204.77,114.48,205.76,110.1Z" style="fill:#b16668"></path><path d="M197.23,123.49,194,125a1.85,1.85,0,0,1,.87-2.41A1.72,1.72,0,0,1,197.23,123.49Z" style="fill:#263238"></path><path d="M198.63,137.92l3.22,1.44a1.74,1.74,0,0,1-2.31,1A1.85,1.85,0,0,1,198.63,137.92Z" style="fill:#9a4a4d"></path><path d="M210.57,128.39a1.45,1.45,0,1,1-1.35-1.59A1.47,1.47,0,0,1,210.57,128.39Z" style="fill:#263238"></path><path d="M199.11,128.39a1.45,1.45,0,1,1-1.35-1.59A1.47,1.47,0,0,1,199.11,128.39Z" style="fill:#263238"></path><polygon points="203.88 126.81 203.13 135.49 207.85 134.59 203.88 126.81" style="fill:#9a4a4d"></polygon><path d="M195.34,145.64c-2.88-.65-8.5-3.08-9.57-5.18,0,0-.1,1.34,1.6,3.37s7.72,4,7.72,4Z" style="fill:#9a4a4d"></path><path d="M204.05,108.91s1.55,9.08-2.41,17c0,0,11,1.93,12.5-6.34,0,0,.23-6.93-4.18-11.55Z" style="fill:#263238"></path><path d="M181.86,136.11v27.52h0a5.76,5.76,0,0,1-5.75-5.75V140.15a7.22,7.22,0,0,0,3.54-1A6.49,6.49,0,0,0,181.86,136.11Z" style="fill:#263238"></path></g><g id="freepik--Table--inject-6"><path d="M239.72,324.11v88.74a2.49,2.49,0,0,0,1.12,1.95l3,1.75a2.54,2.54,0,0,0,2.25,0l3-1.75a2.49,2.49,0,0,0,1.12-1.95V324.11a1.3,1.3,0,0,0-1.29-1.3h-8A1.3,1.3,0,0,0,239.72,324.11Z" style="fill:#263238"></path><path d="M249,322.81h-2.68a1.3,1.3,0,0,0-1.3,1.3V415.9c0,.71.5,1,1.13.65l3-1.75a2.49,2.49,0,0,0,1.12-1.95V324.11A1.3,1.3,0,0,0,249,322.81Z" style="fill:#37474f"></path><path d="M339.91,266.27V355A2.49,2.49,0,0,0,341,357l3,1.75a2.54,2.54,0,0,0,2.25,0l3-1.75a2.5,2.5,0,0,0,1.13-1.95V266.27a1.3,1.3,0,0,0-1.3-1.3h-8A1.3,1.3,0,0,0,339.91,266.27Z" style="fill:#263238"></path><path d="M349.16,265h-2.68a1.3,1.3,0,0,0-1.3,1.3v91.79c0,.71.5,1,1.13.65l3-1.75a2.5,2.5,0,0,0,1.13-1.95V266.27A1.3,1.3,0,0,0,349.16,265Z" style="fill:#37474f"></path><path d="M139.51,266.25V355a2.49,2.49,0,0,0,1.12,1.95l3,1.74a2.48,2.48,0,0,0,2.25,0l3-1.74a2.47,2.47,0,0,0,1.13-1.95V266.25a1.3,1.3,0,0,0-1.3-1.3h-7.95A1.31,1.31,0,0,0,139.51,266.25Z" style="fill:#263238"></path><path d="M148.76,265h-2.68a1.31,1.31,0,0,0-1.3,1.3V358c0,.72.5,1,1.12.65l3-1.74a2.47,2.47,0,0,0,1.13-1.95V266.25A1.3,1.3,0,0,0,148.76,265Z" style="fill:#37474f"></path><path d="M242.74,330.64,136.49,269.29a5,5,0,0,1-2.25-3.89v-.9a5,5,0,0,1,2.25-3.9l106.24-61.33a4.94,4.94,0,0,1,4.49,0l106.26,61.35a5,5,0,0,1,2.25,3.9v.9a5,5,0,0,1-2.25,3.89L247.24,330.64A5,5,0,0,1,242.74,330.64Z" style="fill:#37474f"></path><path d="M245,331.19a4.49,4.49,0,0,1-2.25-.55L136.49,269.29a5,5,0,0,1-2.25-3.9v-.89a5,5,0,0,1,1.83-3.61c-.8.71-.67,1.68.42,2.31l106.25,61.35a4.52,4.52,0,0,0,2.14.54Z" style="fill:#263238"></path><path d="M242.74,324.56,136.49,263.2c-1.25-.72-1.25-1.88,0-2.6l106.24-61.33a4.94,4.94,0,0,1,4.49,0l106.26,61.36a1.37,1.37,0,0,1,0,2.6L247.24,324.56A5,5,0,0,1,242.74,324.56Z" style="fill:#455a64"></path><path d="M248.82,231.21a2.85,2.85,0,0,1-2.47-2.78v-.26c.09-4.15,2.22-8.26,6.12-14.16,3.29-5,6.13-13.82,6.13-17.43H231.37c0,3.61,2.84,12.45,6.13,17.43,4,6,6.13,10.19,6.13,14.44a2.83,2.83,0,0,1-2.44,2.8c-3,.45-5.08,1.43-5.07,2.86,0,2,4,3.57,8.88,3.55s8.86-1.65,8.85-3.63C253.85,232.6,251.8,231.63,248.82,231.21Z" style="fill:#ebebeb"></path><path d="M245.84,221.64a.92.92,0,0,1-1.71,0,55.7,55.7,0,0,0-5-8.73,45.34,45.34,0,0,1-5.58-14.33h22.78a45.3,45.3,0,0,1-5.57,14.33A55.7,55.7,0,0,0,245.84,221.64Z" style="fill:#EEE9D6"></path><path d="M235.36,202.14c5.31,3.07,13.93,3.07,19.25,0s5.32-8,0-11.11-13.93-3.07-19.25,0S230,199.07,235.36,202.14Z" style="fill:#ebebeb"></path><path d="M239.29,194.58a.49.49,0,0,1-.48-.38l-5.14-21a2,2,0,0,0-1.49-1.44l-5.24-1.09a.5.5,0,1,1,.2-1l5.25,1.09a3,3,0,0,1,2.25,2.18l5.14,21a.5.5,0,0,1-.37.6Z" style="fill:#EEE9D6"></path><path d="M250.67,194.58h-.1a.5.5,0,0,1-.39-.59l5.38-26a3,3,0,0,1,2.28-2.28l5.18-1.08a.5.5,0,0,1,.2,1L258,166.69a2,2,0,0,0-1.5,1.51l-5.38,26A.49.49,0,0,1,250.67,194.58Z" style="fill:#EEE9D6"></path><path d="M253.11,190.28c-.27-3.73-4.06-4.84-4.06-4.84.45-2.2-1.36-3.6-2.6-4.34s.23-1.91.23-1.91c-5.91,1.3-6.28,5-5.52,6.25-3.83.62-4.3,4.84-4.3,4.84-2.32,1.17-3.07,3.78-3.07,6.3,0,1.19,1,2.45,2.78,3.47a19,19,0,0,0,16.83,0c1.77-1,2.78-2.29,2.78-3.47C256.18,191.59,253.11,190.28,253.11,190.28Z" style="fill:#f5f5f5"></path><path d="M242.63,193.45c.81.83,8.59,1.55,11.22-2.69a3.64,3.64,0,0,0-.74-.48S251.42,194,242.63,193.45Z" style="fill:#e6e6e6"></path><path d="M240.4,185.63c2.58,2.29,6.13.75,6.13.75-2.24.6-4.7-.21-5.37-.94A4.45,4.45,0,0,0,240.4,185.63Z" style="fill:#e6e6e6"></path></g><path d="M165.85,156.68c-6.39,1.8-11,7.79-7.4,18.51,2.73,8.22,23,43.33,24.59,45.36s37.63,18.45,41.39,20,4,3.59,8.45,4.07,10,.28,12.89,2,10,1.08,11.32-.89-8.89-8-13-9.58-7.49-2.16-12.55-3.47-38.17-22.59-38.17-22.59-15.07-30.36-18.07-36.54C171.8,166.51,168,156.67,165.85,156.68Z" style="fill:#b16668"></path><path d="M327.13,152.3c6.39,1.79,11.47,12.5,7.9,23.22-2.74,8.22-15.83,45.8-17.42,47.83s-37.29,20.7-41.05,22.29-5.38,3-10,2.82-10.8-.51-14,.55c-6,2-9.12,1.23-10.43-.74s6.28-7.21,10.43-8.8,12.61-1.54,17.68-2.85,35.06-23.43,35.06-23.43,9.21-31.58,11.59-39C319.53,166,325,152.29,327.13,152.3Z" style="fill:#ffa8a7"></path><path d="M326,149.47c-3.26-.52-15.44,40.5-15.44,40.5s7.92,9.27,19.69,7c0,0,8-22.41,8.18-29.45S337,151.77,326,149.47Z" style="fill:#e6e6e6"></path></g><g id="freepik--Heart--inject-6"><path id="freepik--heart--inject-6" d="M263.57,72.28a11,11,0,0,0-15.53,0l-3.06,3-3-3a11,11,0,0,0-15.53,0c-4.29,4.29-5.14,9.94-.48,17S245,106.4,245,106.4s14.41-10.16,19.07-17.17S267.86,76.57,263.57,72.28Z" style="fill:#EEE9D6"></path></g></svg>
